{
.appVersion = "1356";
classes = (
{
automatic = 1;

glyphs = (
{
color = 4;
glyphname = A;
lastChange = "2020-11-05 18:30:03 +0000";
layers = (
{
anchors = (
{
name = bottom;
position = "{228, 0}";
},
{
name = ogonek;
position = "{399, 0}";
},
{
name = top;
position = "{224, 702.5}";
}
);
components = (
{
name = V;
transform = "{-1, 0, 0, -1, 455, 700}";
}
);
layerId = "C46E4D83-CAC2-4426-A09C-7F1020C0FA19";
paths = (
{
closed = 1;
nodes = (
"307 99 LINE",
"307 107 LINE",
"57 107 LINE",
"57 99 LINE"
);
}
);
width = 455;
},
{
anchors = (
{
name = bottom;
position = "{223, 0}";
},
{
name = ogonek;
position = "{394, 0}";
},
{
name = top;
position = "{227, 702.5}";
}
);
components = (
{
name = V;
transform = "{-1, 0, 0, -1, 460, 700}";
}
);
guideLines = (
{
angle = 90;
position = "{197, 737}";
}
);
layerId = "1CDF7AA2-9B9F-46E0-8866-C4919D639C4C";
paths = (
{
closed = 1;
nodes = (
"317 89 LINE",
"317 117 LINE",
"72 117 LINE",
"72 89 LINE"
);
}
);
width = 460;
},
{
anchors = (
{
name = bottom;
position = "{223, 0}";
},
{
name = ogonek;
position = "{394, 0}";
},
{
name = top;
position = "{227, 703}";
}
);
components = (
{
alignment = -1;
name = V;
transform = "{-1, 0, 0, -1, 461, 700}";
}
);
layerId = "BEE1AFF0-4415-4363-825D-BBA98FF62E65";
paths = (
{
closed = 1;
nodes = (
"318 88 LINE",
"318 118 LINE",
"73.5 118 LINE",
"73.5 88 LINE"
);
}
);
width = 461;
},
{
anchors = (
{
name = bottom;
position = "{229, 0}";
},
{
name = ogonek;
position = "{400, 0}";
},
{
name = top;
position = "{224, 703}";
}
);
components = (
{
alignment = -1;
name = V;
transform = "{-1, 0, 0, -1, 454, 700}";
}
);
layerId = "09961995-7511-4D97-AA69-D4CC820B8978";
paths = (
{
closed = 1;
nodes = (
"305 101 LINE",
"305 105 LINE",
"54 105 LINE",
"54 101 LINE"
);
}
);
width = 454;
}
);
leftKerningGroup = A;
rightKerningGroup = A;
unicode = "0041,0061";
},
{
color = 4;
glyphname = AE;
lastChange = "2021-01-11 14:34:09 +0000";
layers = (
{
backgroundImage = {
crop = "{{0, 0}, {67.68, 82.08}}";
imagePath = "../../Documents/PERSONAL TYPEFACES/PERSONAL TYPEFACES/_FLORIA/_scans lettres 01 /half-ae.jpg";
locked = "1";
transform = "{9.7965, 0, 0, 9.7965, -170.5, -73.5}";
};
layerId = "C46E4D83-CAC2-4426-A09C-7F1020C0FA19";
paths = (
{
closed = 1;
nodes = (
"32 0 LINE",
"287 700 LINE",
"278.5 700 LINE",
"23.5 0 LINE"
);
},
{
closed = 1;
nodes = (
"103 0 LINE",
"103 8 LINE",
"-25 8 LINE",
"-25 0 LINE"
);
},
{
closed = 1;
nodes = (
"144.5 99 LINE",
"102.5 214.5 LINE",
"60.5 99 LINE"
);
},
{
closed = 1;
nodes = (
"317.5 99 LINE",
"317.5 107 LINE",
"67.5 107 LINE",
"67.5 99 LINE"
);
},
{
closed = 1;
nodes = (
"520 0 LINE",
"575 168 LINE",
"566 168 LINE",
"479 0 LINE"
);
},
{
closed = 1;
nodes = (
"487 303 LINE",
"487 421 LINE",
"459 421 LINE",
"477 303 LINE"
);
},
{
closed = 1;
nodes = (
"387 0 LINE",
"387 700 LINE",
"287 700 LINE",
"287 0 LINE"
);
},
{
closed = 1;
nodes = (
"487 413 LINE",
"487 421 LINE",
"377 421 LINE",
"377 413 LINE"
);
},
{
closed = 1;
nodes = (
"487 413 LINE",
"487 531 LINE",
"477 531 LINE",
"459 413 LINE"
);
},
{
closed = 1;
nodes = (
"357.5 692 LINE",
"357.5 700 LINE",
"197.5 700 LINE",
"197.5 692 LINE"
);
},
{
closed = 1;
nodes = (
"545 532 LINE",
"520 700 LINE",
"479 700 LINE",
"536 532 LINE"
);
},
{
closed = 1;
nodes = (
"513 692 LINE",
"513 700 LINE",
"387 700 LINE",
"387 692 LINE"
);
},
{
closed = 1;
nodes = (
"503 0 LINE",
"503 8 LINE",
"227 8 LINE",
"227 0 LINE"
);
}
);
width = 585;
},
{
associatedMasterId = "C46E4D83-CAC2-4426-A09C-7F1020C0FA19";
backgroundImage = {
crop = "{{0, 0}, {67.68, 82.08}}";
imagePath = "../../Documents/PERSONAL TYPEFACES/PERSONAL TYPEFACES/_FLORIA/_scans lettres 01 /half-ae.jpg";
locked = "1";
transform = "{9.7965, 0, 0, 9.7965, -170, -73.5}";
};
layerId = "C1F7FA21-76DA-47DD-BD4F-38B8E256F521";
name = "Aug 30 20, 17:16";
paths = (
{
closed = 1;
nodes = (
"32.5 0 LINE",
"287.5 700 LINE",
"279 700 LINE",
"24 0 LINE"
);
},
{
closed = 1;
nodes = (
"103 0 LINE",
"103 8 LINE",
"-25 8 LINE",
"-25 0 LINE"
);
},
{
closed = 1;
nodes = (
"318 99 LINE",
"318 107 LINE",
"68 107 LINE",
"68 99 LINE"
);
},
{
closed = 1;
nodes = (
"447.5 0 LINE",
"447.5 8 LINE",
"227.5 8 LINE",
"227.5 0 LINE"
);
},
{
closed = 1;
nodes = (
"503.5 0 LINE",
"503.5 8 LINE",
"367.5 8 LINE",
"367.5 0 LINE"
);
},
{
closed = 1;
nodes = (
"520.5 0 LINE",
"575.5 168 LINE",
"566.5 168 LINE",
"479.5 0 LINE"
);
},
{
closed = 1;
nodes = (
"387.5 0 LINE",
"387.5 700 LINE",
"287.5 700 LINE",
"287.5 0 LINE"
);
},
{
closed = 1;
nodes = (
"487.5 303 LINE",
"487.5 421 LINE",
"459.5 421 LINE",
"477.5 303 LINE"
);
},
{
closed = 1;
nodes = (
"487.5 413 LINE",
"487.5 421 LINE",
"377.5 421 LINE",
"377.5 413 LINE"
);
},
{
closed = 1;
nodes = (
"487.5 413 LINE",
"487.5 531 LINE",
"477.5 531 LINE",
"459.5 413 LINE"
);
},
{
closed = 1;
nodes = (
"358 692 LINE",
"358 700 LINE",
"198 700 LINE",
"198 692 LINE"
);
},
{
closed = 1;
nodes = (
"545.5 532 LINE",
"520.5 700 LINE",
"479.5 700 LINE",
"536.5 532 LINE"
);
},
{
closed = 1;
nodes = (
"513.5 692 LINE",
"513.5 700 LINE",
"387.5 700 LINE",
"387.5 692 LINE"
);
},
{
closed = 1;
nodes = (
"138 99 LINE",
"138 197.5 OFFCURVE",
"149.5 305 OFFCURVE",
"166.5 368 CURVE",
"160 372.5 LINE",
"61 99 LINE"
);
}
);
width = 585.5;
},
{
layerId = "1CDF7AA2-9B9F-46E0-8866-C4919D639C4C";
paths = (
{
closed = 1;
nodes = (
"62 0 LINE",
"317 700 LINE",
"288.5 700 LINE",
"33.5 0 LINE"
);
},
{
closed = 1;
nodes = (
"113 0 LINE",
"113 28 LINE",
"-15 28 LINE",
"-15 0 LINE"
);
},
{
closed = 1;
nodes = (
"154.5 99 LINE",
"112.5 214.5 LINE",
"70.5 99 LINE"
);
},
{
closed = 1;
nodes = (
"327.5 89 LINE",
"327.5 117 LINE",
"77.5 117 LINE",
"77.5 89 LINE"
);
},
{
closed = 1;
nodes = (
"530 0 LINE",
"585 168 LINE",
"567 168 LINE",
"480 0 LINE"
);
},
{
closed = 1;
nodes = (
"497 303 LINE",
"497 421 LINE",
"456 421 LINE",
"479 303 LINE"
);
},
{
closed = 1;
nodes = (
"397 0 LINE",
"397 700 LINE",
"297 700 LINE",
"297 0 LINE"
);
},
{
closed = 1;
nodes = (
"497 403 LINE",
"497 431 LINE",
"387 431 LINE",
"387 403 LINE"
);
},
{
closed = 1;
nodes = (
"497 413 LINE",
"497 531 LINE",
"479 531 LINE",
"456 413 LINE"
);
},
{
closed = 1;
nodes = (
"367.5 672 LINE",
"367.5 700 LINE",
"207.5 700 LINE",
"207.5 672 LINE"
);
},
{
closed = 1;
nodes = (
"560 532 LINE",
"535 700 LINE",
"485 700 LINE",
"542 532 LINE"
);
},
{
closed = 1;
nodes = (
"523 672 LINE",
"523 700 LINE",
"397 700 LINE",
"397 672 LINE"
);
},
{
closed = 1;
nodes = (
"513 0 LINE",
"513 28 LINE",
"237 28 LINE",
"237 0 LINE"
);
}
);
width = 615;
},
{
associatedMasterId = "1CDF7AA2-9B9F-46E0-8866-C4919D639C4C";
backgroundImage = {
crop = "{{0, 0}, {67.68, 82.08}}";
imagePath = "../../Documents/PERSONAL TYPEFACES/PERSONAL TYPEFACES/_FLORIA/_scans lettres 01 /half-ae.jpg";
locked = "1";
transform = "{9.7965, 0, 0, 9.7965, -170, -73.5}";
};
layerId = "AB8431BF-3F73-418C-8416-5F4B1A3B40E9";
name = "Aug 30 20, 17:16";
paths = (
{
closed = 1;
nodes = (
"32.5 0 LINE",
"287.5 700 LINE",
"279 700 LINE",
"24 0 LINE"
);
},
{
closed = 1;
nodes = (
"103 0 LINE",
"103 8 LINE",
"-25 8 LINE",
"-25 0 LINE"
);
},
{
closed = 1;
nodes = (
"318 99 LINE",
"318 107 LINE",
"68 107 LINE",
"68 99 LINE"
);
},
{
closed = 1;
nodes = (
"447.5 0 LINE",
"447.5 8 LINE",
"227.5 8 LINE",
"227.5 0 LINE"
);
},
{
closed = 1;
nodes = (
"503.5 0 LINE",
"503.5 8 LINE",
"367.5 8 LINE",
"367.5 0 LINE"
);
},
{
closed = 1;
nodes = (
"520.5 0 LINE",
"575.5 168 LINE",
"566.5 168 LINE",
"479.5 0 LINE"
);
},
{
closed = 1;
nodes = (
"387.5 0 LINE",
"387.5 700 LINE",
"287.5 700 LINE",
"287.5 0 LINE"
);
},
{
closed = 1;
nodes = (
"487.5 303 LINE",
"487.5 421 LINE",
"459.5 421 LINE",
"477.5 303 LINE"
);
},
{
closed = 1;
nodes = (
"487.5 413 LINE",
"487.5 421 LINE",
"377.5 421 LINE",
"377.5 413 LINE"
);
},
{
closed = 1;
nodes = (
"487.5 413 LINE",
"487.5 531 LINE",
"477.5 531 LINE",
"459.5 413 LINE"
);
},
{
closed = 1;
nodes = (
"358 692 LINE",
"358 700 LINE",
"198 700 LINE",
"198 692 LINE"
);
},
{
closed = 1;
nodes = (
"545.5 532 LINE",
"520.5 700 LINE",
"479.5 700 LINE",
"536.5 532 LINE"
);
},
{
closed = 1;
nodes = (
"513.5 692 LINE",
"513.5 700 LINE",
"387.5 700 LINE",
"387.5 692 LINE"
);
},
{
closed = 1;
nodes = (
"138 99 LINE",
"138 197.5 OFFCURVE",
"149.5 305 OFFCURVE",
"166.5 368 CURVE",
"160 372.5 LINE",
"61 99 LINE"
);
}
);
width = 585.5;
},
{
layerId = "BEE1AFF0-4415-4363-825D-BBA98FF62E65";
paths = (
{
closed = 1;
nodes = (
"65 0 LINE",
"320 700 LINE",
"289.5 700 LINE",
"34.5 0 LINE"
);
},
{
closed = 1;
nodes = (
"114 0 LINE",
"114 30 LINE",
"-14 30 LINE",
"-14 0 LINE"
);
},
{
closed = 1;
nodes = (
"155.5 99 LINE",
"113.5 214.5 LINE",
"71.5 99 LINE"
);
},
{
closed = 1;
nodes = (
"328.5 88 LINE",
"328.5 118 LINE",
"78.5 118 LINE",
"78.5 88 LINE"
);
},
{
closed = 1;
nodes = (
"531 0 LINE",
"586 168 LINE",
"567 168 LINE",
"480 0 LINE"
);
},
{
closed = 1;
nodes = (
"498 303 LINE",
"498 421 LINE",
"455.5 421 LINE",
"479 303 LINE"
);
},
{
closed = 1;
nodes = (
"398 0 LINE",
"398 700 LINE",
"298 700 LINE",
"298 0 LINE"
);
},
{
closed = 1;
nodes = (
"498 402 LINE",
"498 432 LINE",
"388 432 LINE",
"388 402 LINE"
);
},
{
closed = 1;
nodes = (
"498 413 LINE",
"498 531 LINE",
"479 531 LINE",
"455.5 413 LINE"
);
},
{
closed = 1;
nodes = (
"368.5 670 LINE",
"368.5 700 LINE",
"208.5 700 LINE",
"208.5 670 LINE"
);
},
{
closed = 1;
nodes = (
"561.5 532 LINE",
"536.5 700 LINE",
"485.5 700 LINE",
"542.5 532 LINE"
);
},
{
closed = 1;
nodes = (
"524 670 LINE",
"524 700 LINE",
"398 700 LINE",
"398 670 LINE"
);
},
{
closed = 1;
nodes = (
"514 0 LINE",
"514 30 LINE",
"238 30 LINE",
"238 0 LINE"
);
}
);
width = 618;
},
{
layerId = "09961995-7511-4D97-AA69-D4CC820B8978";
paths = (
{
closed = 1;
nodes = (
"26 0 LINE",
"281 700 LINE",
"276.5 700 LINE",
"21.5 0 LINE"
);
},
{
closed = 1;
nodes = (
"101 0 LINE",
"101 4 LINE",
"-27 4 LINE",
"-27 0 LINE"
);
},
{
closed = 1;
nodes = (
"142.5 99 LINE",
"100.5 214.5 LINE",
"58.5 99 LINE"
);
},
{
closed = 1;
nodes = (
"315.5 101 LINE",
"315.5 105 LINE",
"65.5 105 LINE",
"65.5 101 LINE"
);
},
{
closed = 1;
nodes = (
"518 0 LINE",
"573 168 LINE",
"566 168 LINE",
"479 0 LINE"
);
},
{
closed = 1;
nodes = (
"485 303 LINE",
"485 419 LINE",
"459.5 419 LINE",
"476.5 303 LINE"
);
},
{
closed = 1;
nodes = (
"385 0 LINE",
"385 700 LINE",
"285 700 LINE",
"285 0 LINE"
);
},
{
closed = 1;
nodes = (
"485 415 LINE",
"485 419 LINE",
"375 419 LINE",
"375 415 LINE"
);
},
{
closed = 1;
nodes = (
"485 415 LINE",
"485 531 LINE",
"476.5 531 LINE",
"459.5 415 LINE"
);
},
{
closed = 1;
nodes = (
"355.5 696 LINE",
"355.5 700 LINE",
"195.5 700 LINE",
"195.5 696 LINE"
);
},
{
closed = 1;
nodes = (
"542 532 LINE",
"517 700 LINE",
"478 700 LINE",
"535 532 LINE"
);
},
{
closed = 1;
nodes = (
"511 696 LINE",
"511 700 LINE",
"385 700 LINE",
"385 696 LINE"
);
},
{
closed = 1;
nodes = (
"501 0 LINE",
"501 4 LINE",
"225 4 LINE",
"225 0 LINE"
);
}
);
width = 579;
}
);
leftKerningGroup = A;
leftMetricsKey = A;
rightKerningGroup = E;
rightMetricsKey = E;
unicode = "00C6,00E6";
},
{
color = 4;
glyphname = B;
lastChange = "2021-01-11 14:33:28 +0000";
layers = (
{
anchors = (
{
name = bottom;
position = "{227, 0}";
},
{
name = top;
position = "{227, 700}";
}
);
components = (
{
name = "_part.halfstem-left";
}
);
layerId = "C46E4D83-CAC2-4426-A09C-7F1020C0FA19";
paths = (
{
closed = 1;
nodes = (
"329 393 OFFCURVE",
"412 484 OFFCURVE",
"412 566.5 CURVE SMOOTH",
"412 636 OFFCURVE",
"353.5 700 OFFCURVE",
"231 700 CURVE SMOOTH",
"172 700 LINE",
"172 692 LINE",
"194 692 LINE SMOOTH",
"276 692 OFFCURVE",
"317 624 OFFCURVE",
"317 553 CURVE SMOOTH",
"317 476 OFFCURVE",
"268.5 396 OFFCURVE",
"172 396 CURVE",
"172 393 LINE"
);
},
{
closed = 1;
nodes = (
"231 0 LINE SMOOTH",
"370 0 OFFCURVE",
"453 80.5 OFFCURVE",
"453 201 CURVE",
"353 201 LINE",
"353 85 OFFCURVE",
"289.5 8 OFFCURVE",
"194 8 CURVE SMOOTH",
"172 8 LINE",
"172 0 LINE"
);
},
{
closed = 1;
nodes = (
"453 201 LINE",
"453 318 OFFCURVE",
"370 396 OFFCURVE",
"231 396 CURVE SMOOTH",
"172 396 LINE",
"172 388 LINE",
"194 388 LINE SMOOTH",
"289.5 388 OFFCURVE",
"353 313 OFFCURVE",
"353 201 CURVE"
);
}
);
width = 468;
},
{
associatedMasterId = "C46E4D83-CAC2-4426-A09C-7F1020C0FA19";
backgroundImage = {
crop = "{{0, 0}, {54, 90.72}}";
imagePath = "../../Documents/PERSONAL TYPEFACES/PERSONAL TYPEFACES/_FLORIA/_scans lettres 01 /Bgood.jpg";
locked = "1";
transform = "{9.74144, 0, 0, 9.74144, 18, -63}";
};
components = (
{
name = "_part.stem-serifs";
}
);
layerId = "96952324-AA0E-458D-AEF3-5026261B0C15";
name = "Jun 7 20, 14:26";
paths = (
{
closed = 1;
nodes = (
"309 388 OFFCURVE",
"373 319 OFFCURVE",
"373 201 CURVE",
"465 201 LINE",
"465 324 OFFCURVE",
"379 396 OFFCURVE",
"251 396 CURVE SMOOTH",
"192 396 LINE",
"192 388 LINE",
"214 388 LINE SMOOTH"
);
},
{
closed = 1;
nodes = (
"192 8 LINE",
"192 0 LINE",
"251 0 LINE SMOOTH",
"379 0 OFFCURVE",
"465 71 OFFCURVE",
"465 201 CURVE",
"373 201 LINE",
"373 63 OFFCURVE",
"301 8 OFFCURVE",
"214 8 CURVE SMOOTH"
);
},
{
closed = 1;
nodes = (
"281 692 OFFCURVE",
"333 657 OFFCURVE",
"333 539 CURVE",
"425 539 LINE",
"425 628 OFFCURVE",
"392 700 OFFCURVE",
"251 700 CURVE SMOOTH",
"192 700 LINE",
"192 692 LINE",
"214 692 LINE SMOOTH"
);
},
{
closed = 1;
nodes = (
"192 396 CURVE",
"192 393 LINE",
"332 393 OFFCURVE",
"425 451 OFFCURVE",
"425 539 CURVE",
"333 539 LINE",
"333 453 OFFCURVE",
"277 396 OFFCURVE"
);
}
);
width = 520;
},
{
associatedMasterId = "C46E4D83-CAC2-4426-A09C-7F1020C0FA19";
backgroundImage = {
crop = "{{0, 0}, {54, 90.72}}";
imagePath = "../../Documents/PERSONAL TYPEFACES/PERSONAL TYPEFACES/_FLORIA/_scans lettres 01 /Bgood.jpg";
locked = "1";
transform = "{9.74144, 0, 0, 9.74144, 18, -63}";
};
components = (
{
name = "_part.stem-serifs";
}
);
layerId = "A6E0C84F-2044-4863-A6EF-AB02389D7E39";
name = "Jun 7 20, 14:39";
paths = (
{
closed = 1;
nodes = (
"309 388 OFFCURVE",
"373 319 OFFCURVE",
"373 201 CURVE",
"465 201 LINE",
"465 324 OFFCURVE",
"379 396 OFFCURVE",
"251 396 CURVE SMOOTH",
"192 396 LINE",
"192 388 LINE",
"214 388 LINE SMOOTH"
);
},
{
closed = 1;
nodes = (
"192 8 LINE",
"192 0 LINE",
"251 0 LINE SMOOTH",
"379 0 OFFCURVE",
"465 71 OFFCURVE",
"465 201 CURVE",
"373 201 LINE",
"373 63 OFFCURVE",
"301 8 OFFCURVE",
"214 8 CURVE SMOOTH"
);
},
{
closed = 1;
nodes = (
"345 393 OFFCURVE",
"431 486 OFFCURVE",
"431 570 CURVE SMOOTH",
"431 638 OFFCURVE",
"374 700 OFFCURVE",
"251 700 CURVE SMOOTH",
"192 700 LINE",
"192 692 LINE",
"214 692 LINE SMOOTH",
"296 692 OFFCURVE",
"336 624 OFFCURVE",
"336 553 CURVE SMOOTH",
"336 476 OFFCURVE",
"288 396 OFFCURVE",
"192 396 CURVE",
"192 393 LINE"
);
}
);
width = 520;
},
{
anchors = (
{
name = bottom;
position = "{247, 0}";
},
{
name = top;
position = "{247, 700}";
}
);
components = (
{
name = "_part.halfstem-left";
transform = "{1, 0, 0, 1, 10, 0}";
}
);
layerId = "1CDF7AA2-9B9F-46E0-8866-C4919D639C4C";
paths = (
{
closed = 1;
nodes = (
"349 393 OFFCURVE",
"432 484 OFFCURVE",
"432 566.5 CURVE SMOOTH",
"432 646.5 OFFCURVE",
"359.5 700 OFFCURVE",
"251 700 CURVE SMOOTH",
"192 700 LINE",
"192 672 LINE",
"214 672 LINE SMOOTH",
"302.5 672 OFFCURVE",
"337 624.5 OFFCURVE",
"337 553 CURVE SMOOTH",
"337 465 OFFCURVE",
"279 406 OFFCURVE",
"192 406 CURVE",
"192 393 LINE"
);
},
{
closed = 1;
nodes = (
"251 0 LINE SMOOTH",
"390 0 OFFCURVE",
"473 80.5 OFFCURVE",
"473 201 CURVE",
"373 201 LINE",
"373 85 OFFCURVE",
"309.5 28 OFFCURVE",
"214 28 CURVE SMOOTH",
"192 28 LINE",
"192 0 LINE"
);
},
{
closed = 1;
nodes = (
"473 201 LINE",
"473 318 OFFCURVE",
"390 396 OFFCURVE",
"251 396 CURVE SMOOTH",
"192 396 LINE",
"192 378 LINE",
"214 378 LINE SMOOTH",
"309.5 378 OFFCURVE",
"373 313 OFFCURVE",
"373 201 CURVE"
);
}
);
width = 498;
},
{
associatedMasterId = "1CDF7AA2-9B9F-46E0-8866-C4919D639C4C";
backgroundImage = {
crop = "{{0, 0}, {54, 90.72}}";
imagePath = "../../Documents/PERSONAL TYPEFACES/PERSONAL TYPEFACES/_FLORIA/_scans lettres 01 /Bgood.jpg";
locked = "1";
transform = "{9.74144, 0, 0, 9.74144, 18, -63}";
};
components = (
{
name = "_part.stem-serifs";
}
);
layerId = "96765707-C0C6-43E0-8ACA-106A2CE3BAF9";
name = "Jun 7 20, 14:26";
paths = (
{
closed = 1;
nodes = (
"309 388 OFFCURVE",
"373 319 OFFCURVE",
"373 201 CURVE",
"465 201 LINE",
"465 324 OFFCURVE",
"379 396 OFFCURVE",
"251 396 CURVE SMOOTH",
"192 396 LINE",
"192 388 LINE",
"214 388 LINE SMOOTH"
);
},
{
closed = 1;
nodes = (
"192 8 LINE",
"192 0 LINE",
"251 0 LINE SMOOTH",
"379 0 OFFCURVE",
"465 71 OFFCURVE",
"465 201 CURVE",
"373 201 LINE",
"373 63 OFFCURVE",
"301 8 OFFCURVE",
"214 8 CURVE SMOOTH"
);
},
{
closed = 1;
nodes = (
"281 692 OFFCURVE",
"333 657 OFFCURVE",
"333 539 CURVE",
"425 539 LINE",
"425 628 OFFCURVE",
"392 700 OFFCURVE",
"251 700 CURVE SMOOTH",
"192 700 LINE",
"192 692 LINE",
"214 692 LINE SMOOTH"
);
},
{
closed = 1;
nodes = (
"192 396 CURVE",
"192 393 LINE",
"332 393 OFFCURVE",
"425 451 OFFCURVE",
"425 539 CURVE",
"333 539 LINE",
"333 453 OFFCURVE",
"277 396 OFFCURVE"
);
}
);
width = 520;
},
{
associatedMasterId = "1CDF7AA2-9B9F-46E0-8866-C4919D639C4C";
backgroundImage = {
crop = "{{0, 0}, {54, 90.72}}";
imagePath = "../../Documents/PERSONAL TYPEFACES/PERSONAL TYPEFACES/_FLORIA/_scans lettres 01 /Bgood.jpg";
locked = "1";
transform = "{9.74144, 0, 0, 9.74144, 18, -63}";
};
components = (
{
name = "_part.stem-serifs";
}
);
layerId = "FA485C6D-D515-4B15-8944-95557067876C";
name = "Jun 7 20, 14:39";
paths = (
{
closed = 1;
nodes = (
"309 388 OFFCURVE",
"373 319 OFFCURVE",
"373 201 CURVE",
"465 201 LINE",
"465 324 OFFCURVE",
"379 396 OFFCURVE",
"251 396 CURVE SMOOTH",
"192 396 LINE",
"192 388 LINE",
"214 388 LINE SMOOTH"
);
},
{
closed = 1;
nodes = (
"192 8 LINE",
"192 0 LINE",
"251 0 LINE SMOOTH",
"379 0 OFFCURVE",
"465 71 OFFCURVE",
"465 201 CURVE",
"373 201 LINE",
"373 63 OFFCURVE",
"301 8 OFFCURVE",
"214 8 CURVE SMOOTH"
);
},
{
closed = 1;
nodes = (
"345 393 OFFCURVE",
"431 486 OFFCURVE",
"431 570 CURVE SMOOTH",
"431 638 OFFCURVE",
"374 700 OFFCURVE",
"251 700 CURVE SMOOTH",
"192 700 LINE",
"192 692 LINE",
"214 692 LINE SMOOTH",
"296 692 OFFCURVE",
"336 624 OFFCURVE",
"336 553 CURVE SMOOTH",
"336 476 OFFCURVE",
"288 396 OFFCURVE",
"192 396 CURVE",
"192 393 LINE"
);
}
);
width = 520;
},
{
anchors = (
{
name = bottom;
position = "{249, 0}";
},
{
name = top;
position = "{249, 700}";
}
);
components = (
{
alignment = -1;
name = "_part.halfstem-left";
transform = "{1, 0, 0, 1, 11, 0}";
}
);
layerId = "BEE1AFF0-4415-4363-825D-BBA98FF62E65";
paths = (
{
closed = 1;
nodes = (
"351 393 OFFCURVE",
"434 484 OFFCURVE",
"434 566.5 CURVE SMOOTH",
"434 647.5 OFFCURVE",
"360 700 OFFCURVE",
"253 700 CURVE SMOOTH",
"194 700 LINE",
"194 670 LINE",
"216 670 LINE SMOOTH",
"305 670 OFFCURVE",
"339 624.5 OFFCURVE",
"339 553 CURVE SMOOTH",
"339 464 OFFCURVE",
"280 407 OFFCURVE",
"194 407 CURVE",
"194 393 LINE"
);
},
{
closed = 1;
nodes = (
"253 0 LINE SMOOTH",
"392 0 OFFCURVE",
"475 80.5 OFFCURVE",
"475 201 CURVE",
"375 201 LINE",
"375 85 OFFCURVE",
"311.5 30 OFFCURVE",
"216 30 CURVE SMOOTH",
"194 30 LINE",
"194 0 LINE"
);
},
{
closed = 1;
nodes = (
"475 201 LINE",
"475 318 OFFCURVE",
"392 396 OFFCURVE",
"253 396 CURVE SMOOTH",
"194 396 LINE",
"194 377 LINE",
"216 377 LINE SMOOTH",
"311.5 377 OFFCURVE",
"375 313 OFFCURVE",
"375 201 CURVE"
);
}
);
width = 501;
},
{
anchors = (
{
name = bottom;
position = "{223, 0}";
},
{
name = top;
position = "{223, 700}";
}
);
components = (
{
alignment = -1;
name = "_part.halfstem-left";
transform = "{1, 0, 0, 1, -2, 0}";
}
);
layerId = "09961995-7511-4D97-AA69-D4CC820B8978";
paths = (
{
closed = 1;
nodes = (
"325 393 OFFCURVE",
"408 484 OFFCURVE",
"408 566.5 CURVE SMOOTH",
"408 634 OFFCURVE",
"352.5 700 OFFCURVE",
"227 700 CURVE SMOOTH",
"168 700 LINE",
"168 696 LINE",
"190 696 LINE SMOOTH",
"271 696 OFFCURVE",
"313 624 OFFCURVE",
"313 553 CURVE SMOOTH",
"313 478 OFFCURVE",
"266.5 396 OFFCURVE",
"168 396 CURVE",
"168 393 LINE"
);
},
{
closed = 1;
nodes = (
"227 0 LINE SMOOTH",
"366 0 OFFCURVE",
"449 80.5 OFFCURVE",
"449 201 CURVE",
"349 201 LINE",
"349 85 OFFCURVE",
"285.5 4 OFFCURVE",
"190 4 CURVE SMOOTH",
"168 4 LINE",
"168 0 LINE"
);
},
{
closed = 1;
nodes = (
"449 201 LINE",
"449 318 OFFCURVE",
"366 396 OFFCURVE",
"227 396 CURVE SMOOTH",
"168 396 LINE",
"168 390 LINE",
"190 390 LINE SMOOTH",
"285.5 390 OFFCURVE",
"349 313 OFFCURVE",
"349 201 CURVE"
);
}
);
width = 462;
}
);
leftKerningGroup = H;
leftMetricsKey = H;
rightKerningGroup = B;
unicode = "0042,0062";
},
{
color = 4;
glyphname = C;
lastChange = "2020-11-05 18:40:22 +0000";
layers = (
{
associatedMasterId = "C46E4D83-CAC2-4426-A09C-7F1020C0FA19";
layerId = "D81BF6A4-9C2A-4270-BB32-7E79692EB486";
name = "Jun 10 20, 09:35";
paths = (
{
closed = 1;
nodes = (
"122 708 OFFCURVE",
"45 526 OFFCURVE",
"45 350 CURVE",
"155 350 LINE",
"155 558 OFFCURVE",
"203 700 OFFCURVE",
"280 700 CURVE",
"280 708 LINE"
);
},
{
closed = 1;
nodes = (
"396 622 OFFCURVE",
"350 700 OFFCURVE",
"280 700 CURVE",
"280 708 LINE",
"354 708 OFFCURVE",
"404 626 OFFCURVE",
"404 504 CURVE",
"396 504 LINE"
);
},
{
closed = 1;
nodes = (
"280 0 LINE",
"203 0 OFFCURVE",
"155 142 OFFCURVE",
"155 350 CURVE",
"45 350 LINE",
"45 174 OFFCURVE",
"122 -8 OFFCURVE",
"280 -8 CURVE"
);
},
{
closed = 1;
nodes = (
"433 255 LINE",
"433 53 OFFCURVE",
"354 -8 OFFCURVE",
"280 -8 CURVE",
"280 0 LINE",
"350 0 OFFCURVE",
"425 57 OFFCURVE",
"425 255 CURVE"
);
},
{
closed = 1;
nodes = (
"396 504 LINE",
"400 600 LINE",
"443 754 LINE",
"454 754 LINE",
"417 443 LINE",
"405 443 LINE"
);
}
);
width = 479;
},
{
associatedMasterId = "C46E4D83-CAC2-4426-A09C-7F1020C0FA19";
backgroundImage = {
crop = "{{0, 0}, {64.08, 88.56}}";
imagePath = "../../Documents/PERSONAL TYPEFACES/PERSONAL TYPEFACES/_FLORIA/_scans lettres 01 /C.jpg";
locked = "1";
transform = "{9.63541, 0, 0, 9.63541, -52, -60}";
};
layerId = "66B5EEBB-3119-43A4-B3E3-6C17589D616E";
name = "Jun 10 20, 09:39";
paths = (
{
closed = 1;
nodes = (
"280 0 LINE",
"203 0 OFFCURVE",
"155 142 OFFCURVE",
"155 350 CURVE",
"45 350 LINE",
"45 174 OFFCURVE",
"122 -8 OFFCURVE",
"280 -8 CURVE"
);
},
{
closed = 1;
nodes = (
"354 -8 OFFCURVE",
"433 53 OFFCURVE",
"433 255 CURVE",
"425 255 LINE",
"425 57 OFFCURVE",
"350 0 OFFCURVE",
"280 0 CURVE",
"280 -8 LINE"
);
},
{
closed = 1;
nodes = (
"155 350 LINE",
"155 558 OFFCURVE",
"203 700 OFFCURVE",
"280 700 CURVE",
"280 708 LINE",
"122 708 OFFCURVE",
"45 526 OFFCURVE",
"45 350 CURVE"
);
},
{
closed = 1;
nodes = (
"408 443 LINE",
"408 595 OFFCURVE",
"354 708 OFFCURVE",
"280 708 CURVE",
"280 700 LINE",
"350 700 OFFCURVE",
"400 591 OFFCURVE",
"400 443 CURVE"
);
},
{
closed = 1;
nodes = (
"408 443 LINE",
"464 754 LINE",
"456 754 LINE",
"428 676 LINE SMOOTH",
"411 630 OFFCURVE",
"375 632 OFFCURVE",
"356 660 CURVE",
"380 609 LINE",
"400 504 LINE",
"400 443 LINE"
);
}
);
width = 479;
},
{
anchors = (
{
name = bottom;
position = "{250, -10}";
},
{
name = top;
position = "{210, 700}";
}
);
annotations = (
{
position = "{448.828, 146.982}";
type = Arrow;
},
{
position = "{510.387, 153.314}";
text = "plus large ?";
type = Text;
}
);
associatedMasterId = "C46E4D83-CAC2-4426-A09C-7F1020C0FA19";
backgroundImage = {
crop = "{{0, 0}, {64.08, 88.56}}";
imagePath = "../../Documents/PERSONAL TYPEFACES/PERSONAL TYPEFACES/_FLORIA/_scans lettres 01 /C.jpg";
locked = "1";
transform = "{9.63541, 0, 0, 9.63541, -82, -60}";
};
guideLines = (
{
position = "{395, 307}";
}
);
layerId = "1633C92C-AAE8-482D-B5CE-BFEB84819504";
name = "Jun 12 20, 00:21";
paths = (
{
closed = 1;
nodes = (
"235 0 LINE",
"158 0 OFFCURVE",
"125 142 OFFCURVE",
"125 350 CURVE",
"15 350 LINE",
"15 174 OFFCURVE",
"77 -8 OFFCURVE",
"235 -8 CURVE"
);
},
{
closed = 1;
nodes = (
"284 -8 OFFCURVE",
"378 53 OFFCURVE",
"363 255 CURVE",
"355 255 LINE",
"370 57 OFFCURVE",
"280 0 OFFCURVE",
"235 0 CURVE",
"235 -8 LINE"
);
},
{
closed = 1;
nodes = (
"125 350 LINE",
"125 558 OFFCURVE",
"173 700 OFFCURVE",
"250 700 CURVE",
"250 708 LINE",
"92 708 OFFCURVE",
"15 526 OFFCURVE",
"15 350 CURVE"
);
},
{
closed = 1;
nodes = (
"250 700 LINE",
"336 700 OFFCURVE",
"351 609 OFFCURVE",
"342 510 CURVE SMOOTH",
"339 477 LINE",
"345 477 LINE",
"412 703 LINE",
"404 705 LINE",
"394 679 OFFCURVE",
"385 667 OFFCURVE",
"369 667 CURVE SMOOTH",
"346 667 OFFCURVE",
"307 708 OFFCURVE",
"250 708 CURVE"
);
},
{
closed = 1;
nodes = (
"370.5 93 OFFCURVE",
"362 48 CURVE",
"370 48 LINE",
"376.5 77.5 OFFCURVE",
"379.5 107.5 OFFCURVE",
"379.5 137 CURVE SMOOTH",
"379.5 177.5 OFFCURVE",
"373.5 218 OFFCURVE",
"363 255 CURVE",
"355 255 LINE",
"358.5 206 LINE",
"358.5 162 LINE",
"330.5 60 LINE",
"357.5 102.5 OFFCURVE"
);
}
);
width = 412;
},
{
anchors = (
{
name = bottom;
position = "{250, -10}";
},
{
name = top;
position = "{210, 700}";
}
);
annotations = (
{
position = "{448.828, 146.982}";
type = Arrow;
},
{
position = "{510.387, 153.314}";
text = "plus large ?";
type = Text;
}
);
associatedMasterId = "C46E4D83-CAC2-4426-A09C-7F1020C0FA19";
backgroundImage = {
crop = "{{0, 0}, {64.08, 88.56}}";
imagePath = "../../Documents/PERSONAL TYPEFACES/PERSONAL TYPEFACES/_FLORIA/_scans lettres 01 /C.jpg";
locked = "1";
transform = "{9.63541, 0, 0, 9.63541, -82, -60}";
};
guideLines = (
{
position = "{395, 307}";
}
);
layerId = "2CDDA7AB-07E8-4AD5-AF27-3A401027F225";
name = "Jun 12 20, 00:21";
paths = (
{
closed = 1;
nodes = (
"235 0 LINE",
"158 0 OFFCURVE",
"125 142 OFFCURVE",
"125 350 CURVE",
"15 350 LINE",
"15 174 OFFCURVE",
"77 -8 OFFCURVE",
"235 -8 CURVE"
);
},
{
closed = 1;
nodes = (
"284 -8 OFFCURVE",
"378 53 OFFCURVE",
"363 255 CURVE",
"355 255 LINE",
"370 57 OFFCURVE",
"280 0 OFFCURVE",
"235 0 CURVE",
"235 -8 LINE"
);
},
{
closed = 1;
nodes = (
"125 350 LINE",
"125 558 OFFCURVE",
"173 700 OFFCURVE",
"250 700 CURVE",
"250 708 LINE",
"92 708 OFFCURVE",
"15 526 OFFCURVE",
"15 350 CURVE"
);
},
{
closed = 1;
nodes = (
"250 700 LINE",
"336 700 OFFCURVE",
"351 609 OFFCURVE",
"342 510 CURVE SMOOTH",
"339 477 LINE",
"345 477 LINE",
"412 703 LINE",
"404 705 LINE",
"394 679 OFFCURVE",
"385 667 OFFCURVE",
"369 667 CURVE SMOOTH",
"346 667 OFFCURVE",
"307 708 OFFCURVE",
"250 708 CURVE"
);
},
{
closed = 1;
nodes = (
"370.5 93 OFFCURVE",
"362 48 CURVE",
"370 48 LINE",
"376.5 77.5 OFFCURVE",
"379.5 107.5 OFFCURVE",
"379.5 137 CURVE SMOOTH",
"379.5 177.5 OFFCURVE",
"373.5 218 OFFCURVE",
"363 255 CURVE",
"355 255 LINE",
"358.5 206 LINE",
"358.5 162 LINE",
"330.5 60 LINE",
"357.5 102.5 OFFCURVE"
);
}
);
width = 412;
},
{
anchors = (
{
name = bottom;
position = "{250, -10}";
},
{
name = top;
position = "{210, 700}";
}
);
annotations = (
{
position = "{448.828, 146.982}";
type = Arrow;
},
{
position = "{510.387, 153.314}";
text = "plus large ?";
type = Text;
}
);
associatedMasterId = "C46E4D83-CAC2-4426-A09C-7F1020C0FA19";
guideLines = (
{
position = "{395, 307}";
}
);
layerId = "994482D0-9F24-435D-A312-860B2B131390";
name = "Jul 6 20, 16:30";
paths = (
{
closed = 1;
nodes = (
"250 0 LINE",
"173 0 OFFCURVE",
"125 142 OFFCURVE",
"125 350 CURVE",
"15 350 LINE",
"15 174 OFFCURVE",
"92 -8 OFFCURVE",
"250 -8 CURVE"
);
},
{
closed = 1;
nodes = (
"324 -8 OFFCURVE",
"403 53 OFFCURVE",
"403 255 CURVE",
"395 255 LINE",
"395 57 OFFCURVE",
"320 0 OFFCURVE",
"250 0 CURVE",
"250 -8 LINE"
);
},
{
closed = 1;
nodes = (
"125 350 LINE",
"125 558 OFFCURVE",
"173 700 OFFCURVE",
"250 700 CURVE",
"250 708 LINE",
"92 708 OFFCURVE",
"15 526 OFFCURVE",
"15 350 CURVE"
);
},
{
closed = 1;
nodes = (
"250 700 LINE",
"336 700 OFFCURVE",
"351 609 OFFCURVE",
"342 510 CURVE SMOOTH",
"339 477 LINE",
"345 477 LINE",
"412 703 LINE",
"404 705 LINE",
"394 679 OFFCURVE",
"385 667 OFFCURVE",
"369 667 CURVE SMOOTH",
"346 667 OFFCURVE",
"307 708 OFFCURVE",
"250 708 CURVE"
);
},
{
closed = 1;
nodes = (
"396 87 OFFCURVE",
"402 75 OFFCURVE",
"397 48 CURVE",
"405 48 LINE",
"412.5 80.5 OFFCURVE",
"415.5 116 OFFCURVE",
"415.5 151.5 CURVE SMOOTH",
"415.5 205.5 OFFCURVE",
"408.5 260 OFFCURVE",
"402 304 CURVE",
"394 304 LINE",
"394 295 OFFCURVE",
"395 274 OFFCURVE",
"395 255 CURVE",
"398 206 LINE",
"393 162 LINE",
"362 60 LINE",
"372.5 76 OFFCURVE",
"379.5 87 OFFCURVE",
"387 87 CURVE SMOOTH"
);
}
);
width = 430.5;
},
{
anchors = (
{
name = bottom;
position = "{250, -10}";
},
{
name = top;
position = "{210, 700}";
}
);
annotations = (
{
position = "{448.828, 146.982}";
type = Arrow;
},
{
position = "{510.387, 153.314}";
text = "plus large ?";
type = Text;
}
);
associatedMasterId = "C46E4D83-CAC2-4426-A09C-7F1020C0FA19";
guideLines = (
{
position = "{395, 307}";
}
);
layerId = "88E0ABA7-4A9A-4B31-8BAF-8EE975BDC294";
name = "Jul 6 20, 16:36";
paths = (
{
closed = 1;
nodes = (
"250 0 LINE",
"173 0 OFFCURVE",
"125 142 OFFCURVE",
"125 350 CURVE",
"15 350 LINE",
"15 174 OFFCURVE",
"92 -8 OFFCURVE",
"250 -8 CURVE"
);
},
{
closed = 1;
nodes = (
"309 -8 OFFCURVE",
"383 53 OFFCURVE",
"383 255 CURVE",
"375 255 LINE",
"375 57 OFFCURVE",
"305 0 OFFCURVE",
"250 0 CURVE",
"250 -8 LINE"
);
},
{
closed = 1;
nodes = (
"125 350 LINE",
"125 558 OFFCURVE",
"173 700 OFFCURVE",
"250 700 CURVE",
"250 708 LINE",
"92 708 OFFCURVE",
"15 526 OFFCURVE",
"15 350 CURVE"
);
},
{
closed = 1;
nodes = (
"250 700 LINE",
"336 700 OFFCURVE",
"351 609 OFFCURVE",
"342 510 CURVE SMOOTH",
"339 477 LINE",
"345 477 LINE",
"412 703 LINE",
"404 705 LINE",
"394 679 OFFCURVE",
"385 667 OFFCURVE",
"369 667 CURVE SMOOTH",
"346 667 OFFCURVE",
"307 708 OFFCURVE",
"250 708 CURVE"
);
},
{
closed = 1;
nodes = (
"371 85.5 OFFCURVE",
"382 85.5 CURVE SMOOTH",
"396.5 85.5 OFFCURVE",
"406.5 72 OFFCURVE",
"402 48 CURVE",
"410 48 LINE",
"414 71.5 OFFCURVE",
"416 97 OFFCURVE",
"416 122.5 CURVE SMOOTH",
"416 188 OFFCURVE",
"403.5 256 OFFCURVE",
"380.5 307 CURVE",
"372.5 307 LINE",
"372.5 298 OFFCURVE",
"375 274 OFFCURVE",
"375 255 CURVE",
"378 206 LINE",
"373 147 LINE",
"345.5 59.5 LINE",
"357 77 OFFCURVE"
);
}
);
width = 430.5;
},
{
anchors = (
{
name = bottom;
position = "{250, -10}";
},
{
name = top;
position = "{210, 700}";
}
);
annotations = (
{
position = "{448.828, 146.982}";
type = Arrow;
},
{
position = "{510.387, 153.314}";
text = "plus large ?";
type = Text;
}
);
associatedMasterId = "C46E4D83-CAC2-4426-A09C-7F1020C0FA19";
guideLines = (
{
position = "{395, 307}";
}
);
layerId = "715C28CB-A872-481E-BA8E-58F035EF48E7";
name = "Jul 6 20, 16:40";
paths = (
{
closed = 1;
nodes = (
"250 0 LINE",
"173 0 OFFCURVE",
"125 142 OFFCURVE",
"125 350 CURVE",
"15 350 LINE",
"15 174 OFFCURVE",
"92 -8 OFFCURVE",
"250 -8 CURVE"
);
},
{
closed = 1;
nodes = (
"309 -8 OFFCURVE",
"383 53 OFFCURVE",
"383 255 CURVE",
"375 255 LINE",
"375 57 OFFCURVE",
"305 0 OFFCURVE",
"250 0 CURVE",
"250 -8 LINE"
);
},
{
closed = 1;
nodes = (
"125 350 LINE",
"125 558 OFFCURVE",
"173 700 OFFCURVE",
"250 700 CURVE",
"250 708 LINE",
"92 708 OFFCURVE",
"15 526 OFFCURVE",
"15 350 CURVE"
);
},
{
closed = 1;
nodes = (
"250 700 LINE",
"336 700 OFFCURVE",
"351 609 OFFCURVE",
"342 510 CURVE SMOOTH",
"339 477 LINE",
"345 477 LINE",
"412 703 LINE",
"404 705 LINE",
"394 679 OFFCURVE",
"385 667 OFFCURVE",
"369 667 CURVE SMOOTH",
"346 667 OFFCURVE",
"307 708 OFFCURVE",
"250 708 CURVE"
);
},
{
closed = 1;
nodes = (
"371 90 OFFCURVE",
"383.5 90 CURVE SMOOTH",
"399.5 90 OFFCURVE",
"412 74.5 OFFCURVE",
"407 48 CURVE",
"415 48 LINE",
"419 71.5 OFFCURVE",
"421 97 OFFCURVE",
"421 122.5 CURVE SMOOTH",
"421 214.5 OFFCURVE",
"403 308.5 OFFCURVE",
"375.5 357 CURVE",
"367.5 355 LINE",
"372 322 OFFCURVE",
"375 282 OFFCURVE",
"375 255 CURVE",
"378 206 LINE",
"373 147 LINE",
"345.5 59.5 LINE",
"356 80.5 OFFCURVE"
);
}
);
width = 431;
},
{
anchors = (
{
name = bottom;
position = "{250, -10}";
},
{
name = top;
position = "{210, 700}";
}
);
annotations = (
{
position = "{448.828, 146.982}";
type = Arrow;
},
{
position = "{510.387, 153.314}";
text = "plus large ?";
type = Text;
}
);
associatedMasterId = "C46E4D83-CAC2-4426-A09C-7F1020C0FA19";
guideLines = (
{
position = "{395, 307}";
}
);
layerId = "4FAA1772-B7BB-40E0-8B17-3D8D06328DE3";
name = "Jul 6 20, 16:41";
paths = (
{
closed = 1;
nodes = (
"250 0 LINE",
"173 0 OFFCURVE",
"125 142 OFFCURVE",
"125 350 CURVE",
"15 350 LINE",
"15 174 OFFCURVE",
"92 -8 OFFCURVE",
"250 -8 CURVE"
);
},
{
closed = 1;
nodes = (
"309 -8 OFFCURVE",
"383 53 OFFCURVE",
"383 255 CURVE",
"375 255 LINE",
"375 57 OFFCURVE",
"305 0 OFFCURVE",
"250 0 CURVE",
"250 -8 LINE"
);
},
{
closed = 1;
nodes = (
"125 350 LINE",
"125 558 OFFCURVE",
"173 700 OFFCURVE",
"250 700 CURVE",
"250 708 LINE",
"92 708 OFFCURVE",
"15 526 OFFCURVE",
"15 350 CURVE"
);
},
{
closed = 1;
nodes = (
"250 700 LINE",
"336 700 OFFCURVE",
"351 609 OFFCURVE",
"342 510 CURVE SMOOTH",
"339 477 LINE",
"345 477 LINE",
"412 703 LINE",
"404 705 LINE",
"394 679 OFFCURVE",
"385 667 OFFCURVE",
"369 667 CURVE SMOOTH",
"346 667 OFFCURVE",
"307 708 OFFCURVE",
"250 708 CURVE"
);
},
{
closed = 1;
nodes = (
"401 96.5 OFFCURVE",
"392 48 CURVE",
"400 48 LINE",
"404 71.5 OFFCURVE",
"406 97 OFFCURVE",
"406 122.5 CURVE SMOOTH",
"406 214.5 OFFCURVE",
"388 308.5 OFFCURVE",
"375.5 357 CURVE",
"367.5 355 LINE",
"372 322 OFFCURVE",
"375 282 OFFCURVE",
"375 255 CURVE",
"378 206 LINE",
"373 147 LINE",
"345.5 59.5 LINE",
"383 125 OFFCURVE"
);
}
);
width = 431;
},
{
anchors = (
{
name = bottom;
position = "{250, -10}";
},
{
name = top;
position = "{210, 700}";
}
);
annotations = (
{
position = "{448.828, 146.982}";
type = Arrow;
},
{
position = "{510.387, 153.314}";
text = "plus large ?";
type = Text;
}
);
associatedMasterId = "C46E4D83-CAC2-4426-A09C-7F1020C0FA19";
guideLines = (
{
position = "{395, 307}";
},
{
position = "{23, 10}";
}
);
layerId = "4117DF66-7C0F-4DC0-A279-4C6461F1E4D3";
name = "Jul 6 20, 16:44";
paths = (
{
closed = 1;
nodes = (
"250 0 LINE",
"173 0 OFFCURVE",
"125 142 OFFCURVE",
"125 350 CURVE",
"15 350 LINE",
"15 174 OFFCURVE",
"92 -8 OFFCURVE",
"250 -8 CURVE"
);
},
{
closed = 1;
nodes = (
"309 -8 OFFCURVE",
"383 53 OFFCURVE",
"383 255 CURVE",
"375 255 LINE",
"375 57 OFFCURVE",
"305 0 OFFCURVE",
"250 0 CURVE",
"250 -8 LINE"
);
},
{
closed = 1;
nodes = (
"125 350 LINE",
"125 558 OFFCURVE",
"173 700 OFFCURVE",
"250 700 CURVE",
"250 708 LINE",
"92 708 OFFCURVE",
"15 526 OFFCURVE",
"15 350 CURVE"
);
},
{
closed = 1;
nodes = (
"250 700 LINE",
"336 700 OFFCURVE",
"351 609 OFFCURVE",
"342 510 CURVE SMOOTH",
"339 477 LINE",
"345 477 LINE",
"412 703 LINE",
"404 705 LINE",
"394 679 OFFCURVE",
"385 667 OFFCURVE",
"369 667 CURVE SMOOTH",
"346 667 OFFCURVE",
"307 708 OFFCURVE",
"250 708 CURVE"
);
},
{
closed = 1;
nodes = (
"410.5 96.5 OFFCURVE",
"401.5 48 CURVE",
"409.5 48 LINE",
"413.5 65.5 OFFCURVE",
"416 93.5 OFFCURVE",
"416 118.5 CURVE SMOOTH",
"416 190.5 OFFCURVE",
"400 286 OFFCURVE",
"375.5 357 CURVE",
"367.5 355 LINE",
"372 322 OFFCURVE",
"375 282 OFFCURVE",
"375 255 CURVE",
"378 206 LINE",
"373 147 LINE",
"345.5 59.5 LINE",
"383 125 OFFCURVE"
);
}
);
width = 431;
},
{
anchors = (
{
name = bottom;
position = "{250, -10}";
},
{
name = top;
position = "{210, 700}";
}
);
annotations = (
{
position = "{448.828, 146.982}";
type = Arrow;
},
{
position = "{510.387, 153.314}";
text = "plus large ?";
type = Text;
}
);
associatedMasterId = "C46E4D83-CAC2-4426-A09C-7F1020C0FA19";
guideLines = (
{
position = "{395, 307}";
},
{
position = "{23, 10}";
}
);
layerId = "D2C68F93-7432-4FA4-8291-F4FCAA5C05AC";
name = "Jul 6 20, 17:41";
paths = (
{
closed = 1;
nodes = (
"250 0 LINE",
"173 0 OFFCURVE",
"125 142 OFFCURVE",
"125 350 CURVE",
"15 350 LINE",
"15 174 OFFCURVE",
"92 -8 OFFCURVE",
"250 -8 CURVE"
);
},
{
closed = 1;
nodes = (
"309 -8 OFFCURVE",
"383 53 OFFCURVE",
"383 255 CURVE",
"375 255 LINE",
"375 57 OFFCURVE",
"305 0 OFFCURVE",
"250 0 CURVE",
"250 -8 LINE"
);
},
{
closed = 1;
nodes = (
"125 350 LINE",
"125 558 OFFCURVE",
"173 700 OFFCURVE",
"250 700 CURVE",
"250 708 LINE",
"92 708 OFFCURVE",
"15 526 OFFCURVE",
"15 350 CURVE"
);
},
{
closed = 1;
nodes = (
"250 700 LINE",
"336 700 OFFCURVE",
"351 609 OFFCURVE",
"342 510 CURVE SMOOTH",
"339 477 LINE",
"345 477 LINE",
"412 703 LINE",
"404 705 LINE",
"394 679 OFFCURVE",
"385 667 OFFCURVE",
"369 667 CURVE SMOOTH",
"346 667 OFFCURVE",
"307 708 OFFCURVE",
"250 708 CURVE"
);
},
{
closed = 1;
nodes = (
"412 46.5 OFFCURVE",
"403 -2 CURVE",
"411 -2 LINE",
"415 15.5 OFFCURVE",
"417.5 43.5 OFFCURVE",
"417.5 68.5 CURVE SMOOTH",
"417.5 140.5 OFFCURVE",
"401.5 236 OFFCURVE",
"377 307 CURVE",
"369 305 LINE",
"372.5 290 OFFCURVE",
"375 270 OFFCURVE",
"375 255 CURVE",
"375 159 LINE",
"352.5 80.5 LINE",
"315.5 19.5 LINE",
"383 82.5 OFFCURVE"
);
}
);
width = 431;
},
{
anchors = (
{
name = bottom;
position = "{250, -10}";
},
{
name = top;
position = "{210, 700}";
}
);
annotations = (
{
position = "{448.828, 146.982}";
type = Arrow;
},
{
position = "{510.387, 153.314}";
text = "plus large ?";
type = Text;
}
);
associatedMasterId = "C46E4D83-CAC2-4426-A09C-7F1020C0FA19";
guideLines = (
{
position = "{395, 307}";
},
{
position = "{23, 10}";
}
);
layerId = "F5F5D1B8-4057-4D44-A3C3-53FBAAFC3CD6";
name = "Jul 6 20, 17:43";
paths = (
{
closed = 1;
nodes = (
"250 0 LINE",
"173 0 OFFCURVE",
"125 142 OFFCURVE",
"125 350 CURVE",
"15 350 LINE",
"15 174 OFFCURVE",
"92 -8 OFFCURVE",
"250 -8 CURVE"
);
},
{
closed = 1;
nodes = (
"309 -8 OFFCURVE",
"383 53 OFFCURVE",
"383 255 CURVE",
"375 255 LINE",
"375 57 OFFCURVE",
"305 0 OFFCURVE",
"250 0 CURVE",
"250 -8 LINE"
);
},
{
closed = 1;
nodes = (
"125 350 LINE",
"125 558 OFFCURVE",
"173 700 OFFCURVE",
"250 700 CURVE",
"250 708 LINE",
"92 708 OFFCURVE",
"15 526 OFFCURVE",
"15 350 CURVE"
);
},
{
closed = 1;
nodes = (
"250 700 LINE",
"336 700 OFFCURVE",
"351 609 OFFCURVE",
"342 510 CURVE SMOOTH",
"339 477 LINE",
"345 477 LINE",
"412 703 LINE",
"404 705 LINE",
"394 679 OFFCURVE",
"385 667 OFFCURVE",
"369 667 CURVE SMOOTH",
"346 667 OFFCURVE",
"307 708 OFFCURVE",
"250 708 CURVE"
);
},
{
closed = 1;
nodes = (
"353 43.5 OFFCURVE",
"369.5 43.5 CURVE SMOOTH",
"393 43.5 OFFCURVE",
"408.5 26.5 OFFCURVE",
"403 -2 CURVE",
"411 -2 LINE",
"415 15.5 OFFCURVE",
"417.5 43.5 OFFCURVE",
"417.5 68.5 CURVE SMOOTH",
"417.5 140.5 OFFCURVE",
"401.5 236 OFFCURVE",
"377 307 CURVE",
"369 305 LINE",
"372.5 290 OFFCURVE",
"375 270 OFFCURVE",
"375 255 CURVE",
"375 159 LINE",
"352.5 80.5 LINE",
"311.5 16 LINE",
"332 35 OFFCURVE"
);
}
);
width = 431;
},
{
anchors = (
{
name = bottom;
position = "{250, -10}";
},
{
name = top;
position = "{210, 700}";
}
);
associatedMasterId = "C46E4D83-CAC2-4426-A09C-7F1020C0FA19";
guideLines = (
{
position = "{395, 307}";
},
{
position = "{23, 10}";
}
);
layerId = "1AAD85C0-FA1A-4820-BA92-EF4082A6A8D2";
name = "Jul 6 20, 17:55";
paths = (
{
closed = 1;
nodes = (
"250 0 LINE",
"173 0 OFFCURVE",
"125 142 OFFCURVE",
"125 350 CURVE",
"15 350 LINE",
"15 174 OFFCURVE",
"92 -8 OFFCURVE",
"250 -8 CURVE"
);
},
{
closed = 1;
nodes = (
"309 -8 OFFCURVE",
"383 53 OFFCURVE",
"383 255 CURVE",
"375 255 LINE",
"375 57 OFFCURVE",
"305 0 OFFCURVE",
"250 0 CURVE",
"250 -8 LINE"
);
},
{
closed = 1;
nodes = (
"125 350 LINE",
"125 558 OFFCURVE",
"173 700 OFFCURVE",
"250 700 CURVE",
"250 708 LINE",
"92 708 OFFCURVE",
"15 526 OFFCURVE",
"15 350 CURVE"
);
},
{
closed = 1;
nodes = (
"250 700 LINE",
"336 700 OFFCURVE",
"351 609 OFFCURVE",
"342 510 CURVE SMOOTH",
"339 477 LINE",
"345 477 LINE",
"412 703 LINE",
"404 705 LINE",
"394 679 OFFCURVE",
"385 667 OFFCURVE",
"369 667 CURVE SMOOTH",
"346 667 OFFCURVE",
"307 708 OFFCURVE",
"250 708 CURVE"
);
},
{
closed = 1;
nodes = (
"413 63 OFFCURVE",
"403 10 CURVE",
"411 10 LINE",
"415.5 30 OFFCURVE",
"418 53.5 OFFCURVE",
"418 80 CURVE SMOOTH",
"418 147 OFFCURVE",
"405.5 230 OFFCURVE",
"379.5 307 CURVE",
"371.5 305 LINE",
"373.5 296 OFFCURVE",
"375 276 OFFCURVE",
"375 255 CURVE",
"375 159 LINE",
"352.5 80.5 LINE",
"321 25 LINE",
"371.5 79 OFFCURVE"
);
}
);
width = 431;
},
{
anchors = (
{
name = bottom;
position = "{250, -10}";
},
{
name = top;
position = "{210, 700}";
}
);
associatedMasterId = "C46E4D83-CAC2-4426-A09C-7F1020C0FA19";
guideLines = (
{
position = "{395, 307}";
}
);
layerId = "F6092447-BBF3-4974-90F2-B1BC10057DA8";
name = "Jul 10 20, 16:29";
paths = (
{
closed = 1;
nodes = (
"250 0 LINE",
"173 0 OFFCURVE",
"125 142 OFFCURVE",
"125 350 CURVE",
"15 350 LINE",
"15 174 OFFCURVE",
"92 -8 OFFCURVE",
"250 -8 CURVE"
);
},
{
closed = 1;
nodes = (
"309 -8 OFFCURVE",
"383 53 OFFCURVE",
"383 255 CURVE",
"375 255 LINE",
"375 57 OFFCURVE",
"305 0 OFFCURVE",
"250 0 CURVE",
"250 -8 LINE"
);
},
{
closed = 1;
nodes = (
"125 350 LINE",
"125 558 OFFCURVE",
"173 700 OFFCURVE",
"250 700 CURVE",
"250 708 LINE",
"92 708 OFFCURVE",
"15 526 OFFCURVE",
"15 350 CURVE"
);
},
{
closed = 1;
nodes = (
"250 700 LINE",
"336 700 OFFCURVE",
"351 609 OFFCURVE",
"342 510 CURVE SMOOTH",
"339 477 LINE",
"345 477 LINE",
"412 703 LINE",
"404 705 LINE",
"394 679 OFFCURVE",
"385 667 OFFCURVE",
"369 667 CURVE SMOOTH",
"346 667 OFFCURVE",
"307 708 OFFCURVE",
"250 708 CURVE"
);
},
{
closed = 1;
nodes = (
"370.5 83.5 OFFCURVE",
"413 68 OFFCURVE",
"403 15 CURVE",
"411 15 LINE",
"415.5 35 OFFCURVE",
"418 53.5 OFFCURVE",
"418 80 CURVE SMOOTH",
"418 147 OFFCURVE",
"405.5 230 OFFCURVE",
"379.5 307 CURVE",
"371.5 305 LINE",
"373.5 296 OFFCURVE",
"375 276 OFFCURVE",
"375 255 CURVE",
"375 159 LINE",
"352.5 80.5 LINE",
"325 29.5 LINE"
);
}
);
width = 431;
},
{
anchors = (
{
name = bottom;
position = "{250, -10}";
},
{
name = top;
position = "{210, 700}";
}
);
associatedMasterId = "C46E4D83-CAC2-4426-A09C-7F1020C0FA19";
guideLines = (
{
position = "{395, 307}";
},
{
position = "{411, 40}";
}
);
layerId = "69236EAE-4EBC-4E60-A783-99EA85EC2435";
name = "Jul 10 20, 16:32";
paths = (
{
closed = 1;
nodes = (
"250 0 LINE",
"173 0 OFFCURVE",
"125 142 OFFCURVE",
"125 350 CURVE",
"15 350 LINE",
"15 174 OFFCURVE",
"92 -8 OFFCURVE",
"250 -8 CURVE"
);
},
{
closed = 1;
nodes = (
"309 -8 OFFCURVE",
"381 78 OFFCURVE",
"381 280 CURVE",
"373 280 LINE",
"373 82 OFFCURVE",
"305 0 OFFCURVE",
"250 0 CURVE",
"250 -8 LINE"
);
},
{
closed = 1;
nodes = (
"125 350 LINE",
"125 558 OFFCURVE",
"173 700 OFFCURVE",
"250 700 CURVE",
"250 708 LINE",
"92 708 OFFCURVE",
"15 526 OFFCURVE",
"15 350 CURVE"
);
},
{
closed = 1;
nodes = (
"250 700 LINE",
"336 700 OFFCURVE",
"351 609 OFFCURVE",
"342 510 CURVE SMOOTH",
"339 477 LINE",
"345 477 LINE",
"412 703 LINE",
"404 705 LINE",
"394 679 OFFCURVE",
"385 667 OFFCURVE",
"369 667 CURVE SMOOTH",
"346 667 OFFCURVE",
"307 708 OFFCURVE",
"250 708 CURVE"
);
},
{
closed = 1;
nodes = (
"367 108 OFFCURVE",
"401 93 OFFCURVE",
"391 40 CURVE",
"399 40 LINE",
"405.5 69 OFFCURVE",
"408.5 102 OFFCURVE",
"408.5 137 CURVE SMOOTH",
"408.5 201.5 OFFCURVE",
"398 271.5 OFFCURVE",
"377.5 332 CURVE",
"369.5 330 LINE",
"371.5 321 OFFCURVE",
"373 301 OFFCURVE",
"373 280 CURVE",
"373 184 LINE",
"350.5 105.5 LINE",
"334 54 LINE"
);
}
);
width = 422;
},
{
anchors = (
{
name = bottom;
position = "{250, -10}";
},
{
name = top;
position = "{210, 700}";
}
);
associatedMasterId = "C46E4D83-CAC2-4426-A09C-7F1020C0FA19";
guideLines = (
{
position = "{395, 307}";
},
{
position = "{411, 40}";
}
);
layerId = "3711C02D-4EF2-4BC5-B99B-11CC8E8CA116";
name = "Jul 10 20, 17:32";
paths = (
{
closed = 1;
nodes = (
"250 0 LINE",
"173 0 OFFCURVE",
"125 142 OFFCURVE",
"125 350 CURVE",
"15 350 LINE",
"15 174 OFFCURVE",
"92 -8 OFFCURVE",
"250 -8 CURVE"
);
},
{
closed = 1;
nodes = (
"309 -8 OFFCURVE",
"381 78 OFFCURVE",
"381 280 CURVE",
"373 280 LINE",
"373 82 OFFCURVE",
"305 0 OFFCURVE",
"250 0 CURVE",
"250 -8 LINE"
);
},
{
closed = 1;
nodes = (
"125 350 LINE",
"125 558 OFFCURVE",
"173 700 OFFCURVE",
"250 700 CURVE",
"250 708 LINE",
"92 708 OFFCURVE",
"15 526 OFFCURVE",
"15 350 CURVE"
);
},
{
closed = 1;
nodes = (
"250 700 LINE",
"336 700 OFFCURVE",
"351 609 OFFCURVE",
"342 510 CURVE SMOOTH",
"339 477 LINE",
"345 477 LINE",
"412 703 LINE",
"404 705 LINE",
"394 679 OFFCURVE",
"385 667 OFFCURVE",
"369 667 CURVE SMOOTH",
"346 667 OFFCURVE",
"307 708 OFFCURVE",
"250 708 CURVE"
);
},
{
closed = 1;
nodes = (
"367 108 OFFCURVE",
"411 93 OFFCURVE",
"401 40 CURVE",
"409 40 LINE",
"413.5 60 OFFCURVE",
"416 78.5 OFFCURVE",
"416 105 CURVE SMOOTH",
"416 172 OFFCURVE",
"403.5 255 OFFCURVE",
"377.5 332 CURVE",
"369.5 330 LINE",
"371.5 321 OFFCURVE",
"373 301 OFFCURVE",
"373 280 CURVE",
"373 184 LINE",
"350.5 105.5 LINE",
"334 54 LINE"
);
}
);
width = 431;
},
{
anchors = (
{
name = bottom;
position = "{250, -10}";
},
{
name = top;
position = "{210, 700}";
}
);
associatedMasterId = "C46E4D83-CAC2-4426-A09C-7F1020C0FA19";
guideLines = (
{
position = "{395, 307}";
},
{
position = "{411, 40}";
}
);
layerId = "318C6C73-2D39-4799-8F99-EE7894CE0AA0";
name = "Aug 27 20, 09:32";
paths = (
{
closed = 1;
nodes = (
"240 0 LINE",
"163 0 OFFCURVE",
"125 142 OFFCURVE",
"125 350 CURVE",
"15 350 LINE",
"15 174 OFFCURVE",
"82 -8 OFFCURVE",
"240 -8 CURVE"
);
},
{
closed = 1;
nodes = (
"298 -8 OFFCURVE",
"370 78 OFFCURVE",
"370 280 CURVE",
"362 280 LINE",
"362 82 OFFCURVE",
"294 0 OFFCURVE",
"240 0 CURVE",
"240 -8 LINE"
);
},
{
closed = 1;
nodes = (
"125 350 LINE",
"125 558 OFFCURVE",
"163 700 OFFCURVE",
"240 700 CURVE",
"240 708 LINE",
"82 708 OFFCURVE",
"15 526 OFFCURVE",
"15 350 CURVE"
);
},
{
closed = 1;
nodes = (
"240 700 LINE",
"325 700 OFFCURVE",
"340 609 OFFCURVE",
"331 510 CURVE SMOOTH",
"328 477 LINE",
"334 477 LINE",
"401 703 LINE",
"393 705 LINE",
"383 679 OFFCURVE",
"374 667 OFFCURVE",
"358 667 CURVE SMOOTH",
"335 667 OFFCURVE",
"296 708 OFFCURVE",
"240 708 CURVE"
);
},
{
closed = 1;
nodes = (
"344 83.5 OFFCURVE",
"364.5 100 OFFCURVE",
"377 100 CURVE SMOOTH",
"393.5 100 OFFCURVE",
"395.5 70.5 OFFCURVE",
"390 40 CURVE",
"398 40 LINE",
"402.5 60.5 OFFCURVE",
"405 85 OFFCURVE",
"405 112 CURVE SMOOTH",
"405 177.5 OFFCURVE",
"391.5 258 OFFCURVE",
"366.5 332 CURVE",
"358.5 330 LINE",
"360.5 321 OFFCURVE",
"362 301 OFFCURVE",
"362 280 CURVE",
"362 184 LINE",
"339.5 105.5 LINE",
"312.5 37.5 LINE"
);
}
);
width = 415;
},
{
anchors = (
{
name = bottom;
position = "{250, -10}";
},
{
name = top;
position = "{210, 700}";
}
);
associatedMasterId = "C46E4D83-CAC2-4426-A09C-7F1020C0FA19";
guideLines = (
{
position = "{411, 40}";
}
);
layerId = "4108419A-1C06-4390-97C1-5A584224D99C";
name = "Aug 27 20, 10:09";
paths = (
{
closed = 1;
nodes = (
"240 0 LINE",
"163 0 OFFCURVE",
"125 142 OFFCURVE",
"125 350 CURVE",
"15 350 LINE",
"15 135 OFFCURVE",
"105 -8 OFFCURVE",
"240 -8 CURVE"
);
},
{
closed = 1;
nodes = (
"318 -8 OFFCURVE",
"370 107 OFFCURVE",
"370 280 CURVE",
"362 280 LINE",
"362 82 OFFCURVE",
"294 0 OFFCURVE",
"240 0 CURVE",
"240 -8 LINE"
);
},
{
closed = 1;
nodes = (
"125 350 LINE",
"125 558 OFFCURVE",
"163 700 OFFCURVE",
"240 700 CURVE",
"240 708 LINE",
"82 708 OFFCURVE",
"15 526 OFFCURVE",
"15 350 CURVE"
);
},
{
closed = 1;
nodes = (
"240 700 LINE",
"325 700 OFFCURVE",
"340 609 OFFCURVE",
"331 510 CURVE SMOOTH",
"328 477 LINE",
"334 477 LINE",
"401 703 LINE",
"393 705 LINE",
"383 679 OFFCURVE",
"374 667 OFFCURVE",
"358 667 CURVE SMOOTH",
"335 667 OFFCURVE",
"296 708 OFFCURVE",
"240 708 CURVE"
);
},
{
closed = 1;
nodes = (
"349 86.5 OFFCURVE",
"362.5 100 OFFCURVE",
"377 100 CURVE SMOOTH",
"391.5 100 OFFCURVE",
"396.5 76 OFFCURVE",
"390 40 CURVE",
"398 40 LINE",
"402 59 OFFCURVE",
"405 88 OFFCURVE",
"405 112 CURVE SMOOTH",
"405 177.5 OFFCURVE",
"391.5 258 OFFCURVE",
"366.5 332 CURVE",
"358.5 330 LINE",
"360.5 321 OFFCURVE",
"362 301 OFFCURVE",
"362 280 CURVE",
"362 184 LINE",
"339.5 105.5 LINE",
"320 44.5 LINE"
);
}
);
width = 415;
},
{
anchors = (
{
name = bottom;
position = "{240, -8}";
},
{
name = top;
position = "{240, 708}";
}
);
guideLines = (
{
position = "{395, 307}";
},
{
position = "{411, 40}";
}
);
layerId = "C46E4D83-CAC2-4426-A09C-7F1020C0FA19";
paths = (
{
closed = 1;
nodes = (
"125 350 LINE",
"125 558 OFFCURVE",
"163 700 OFFCURVE",
"240 700 CURVE",
"240 708 LINE",
"82 708 OFFCURVE",
"15 526 OFFCURVE",
"15 350 CURVE"
);
},
{
closed = 1;
nodes = (
"240 0 LINE",
"163 0 OFFCURVE",
"125 142 OFFCURVE",
"125 350 CURVE",
"15 350 LINE",
"15 174 OFFCURVE",
"82 -8 OFFCURVE",
"240 -8 CURVE"
);
},
{
closed = 1;
nodes = (
"334 477 LINE",
"401 703 LINE",
"393 705 LINE",
"383 679 OFFCURVE",
"374 667 OFFCURVE",
"358 667 CURVE SMOOTH",
"335 667 OFFCURVE",
"296 708 OFFCURVE",
"240 708 CURVE",
"240 700 LINE",
"325 700 OFFCURVE",
"340 609 OFFCURVE",
"331 510 CURVE SMOOTH",
"328 477 LINE"
);
},
{
closed = 1;
nodes = (
"268.5 -8 OFFCURVE",
"300.5 12.5 OFFCURVE",
"325.5 57.5 CURVE SMOOTH",
"337.5 79 OFFCURVE",
"352.5 88.5 OFFCURVE",
"365 88.5 CURVE SMOOTH",
"383 88.5 OFFCURVE",
"396 70 OFFCURVE",
"390 40 CURVE",
"398 40 LINE",
"402.5 60.5 OFFCURVE",
"405 85 OFFCURVE",
"405 112 CURVE SMOOTH",
"405 177.5 OFFCURVE",
"391.5 258 OFFCURVE",
"366.5 332 CURVE",
"358.5 330 LINE",
"360.5 321 OFFCURVE",
"362 301 OFFCURVE",
"362 280 CURVE SMOOTH",
"362 82 OFFCURVE",
"294 0 OFFCURVE",
"240 0 CURVE",
"240 -8 LINE"
);
}
);
width = 415;
},
{
associatedMasterId = "1CDF7AA2-9B9F-46E0-8866-C4919D639C4C";
layerId = "53E6B9C5-7273-4A32-96AA-F6FC6750340D";
name = "Jun 10 20, 09:35";
paths = (
{
closed = 1;
nodes = (
"122 708 OFFCURVE",
"45 526 OFFCURVE",
"45 350 CURVE",
"155 350 LINE",
"155 558 OFFCURVE",
"203 700 OFFCURVE",
"280 700 CURVE",
"280 708 LINE"
);
},
{
closed = 1;
nodes = (
"396 622 OFFCURVE",
"350 700 OFFCURVE",
"280 700 CURVE",
"280 708 LINE",
"354 708 OFFCURVE",
"404 626 OFFCURVE",
"404 504 CURVE",
"396 504 LINE"
);
},
{
closed = 1;
nodes = (
"280 0 LINE",
"203 0 OFFCURVE",
"155 142 OFFCURVE",
"155 350 CURVE",
"45 350 LINE",
"45 174 OFFCURVE",
"122 -8 OFFCURVE",
"280 -8 CURVE"
);
},
{
closed = 1;
nodes = (
"433 255 LINE",
"433 53 OFFCURVE",
"354 -8 OFFCURVE",
"280 -8 CURVE",
"280 0 LINE",
"350 0 OFFCURVE",
"425 57 OFFCURVE",
"425 255 CURVE"
);
},
{
closed = 1;
nodes = (
"396 504 LINE",
"400 600 LINE",
"443 754 LINE",
"454 754 LINE",
"417 443 LINE",
"405 443 LINE"
);
}
);
width = 479;
},
{
associatedMasterId = "1CDF7AA2-9B9F-46E0-8866-C4919D639C4C";
backgroundImage = {
crop = "{{0, 0}, {64.08, 88.56}}";
imagePath = "../../Documents/PERSONAL TYPEFACES/PERSONAL TYPEFACES/_FLORIA/_scans lettres 01 /C.jpg";
locked = "1";
transform = "{9.63541, 0, 0, 9.63541, -52, -60}";
};
layerId = "120553A5-2947-4A5F-9888-B6515F75720B";
name = "Jun 10 20, 09:39";
paths = (
{
closed = 1;
nodes = (
"280 0 LINE",
"203 0 OFFCURVE",
"155 142 OFFCURVE",
"155 350 CURVE",
"45 350 LINE",
"45 174 OFFCURVE",
"122 -8 OFFCURVE",
"280 -8 CURVE"
);
},
{
closed = 1;
nodes = (
"354 -8 OFFCURVE",
"433 53 OFFCURVE",
"433 255 CURVE",
"425 255 LINE",
"425 57 OFFCURVE",
"350 0 OFFCURVE",
"280 0 CURVE",
"280 -8 LINE"
);
},
{
closed = 1;
nodes = (
"155 350 LINE",
"155 558 OFFCURVE",
"203 700 OFFCURVE",
"280 700 CURVE",
"280 708 LINE",
"122 708 OFFCURVE",
"45 526 OFFCURVE",
"45 350 CURVE"
);
},
{
closed = 1;
nodes = (
"408 443 LINE",
"408 595 OFFCURVE",
"354 708 OFFCURVE",
"280 708 CURVE",
"280 700 LINE",
"350 700 OFFCURVE",
"400 591 OFFCURVE",
"400 443 CURVE"
);
},
{
closed = 1;
nodes = (
"408 443 LINE",
"464 754 LINE",
"456 754 LINE",
"428 676 LINE SMOOTH",
"411 630 OFFCURVE",
"375 632 OFFCURVE",
"356 660 CURVE",
"380 609 LINE",
"400 504 LINE",
"400 443 LINE"
);
}
);
width = 479;
},
{
anchors = (
{
name = bottom;
position = "{250, -10}";
},
{
name = top;
position = "{210, 700}";
}
);
annotations = (
{
position = "{448.828, 146.982}";
type = Arrow;
},
{
position = "{510.387, 153.314}";
text = "plus large ?";
type = Text;
}
);
associatedMasterId = "1CDF7AA2-9B9F-46E0-8866-C4919D639C4C";
backgroundImage = {
crop = "{{0, 0}, {64.08, 88.56}}";
imagePath = "../../Documents/PERSONAL TYPEFACES/PERSONAL TYPEFACES/_FLORIA/_scans lettres 01 /C.jpg";
locked = "1";
transform = "{9.63541, 0, 0, 9.63541, -82, -60}";
};
guideLines = (
{
position = "{395, 307}";
}
);
layerId = "C58DE429-71FD-43B4-B0FF-F5E0C6CE6A1C";
name = "Jun 12 20, 00:21";
paths = (
{
closed = 1;
nodes = (
"235 0 LINE",
"158 0 OFFCURVE",
"125 142 OFFCURVE",
"125 350 CURVE",
"15 350 LINE",
"15 174 OFFCURVE",
"77 -8 OFFCURVE",
"235 -8 CURVE"
);
},
{
closed = 1;
nodes = (
"284 -8 OFFCURVE",
"378 53 OFFCURVE",
"363 255 CURVE",
"355 255 LINE",
"370 57 OFFCURVE",
"280 0 OFFCURVE",
"235 0 CURVE",
"235 -8 LINE"
);
},
{
closed = 1;
nodes = (
"125 350 LINE",
"125 558 OFFCURVE",
"173 700 OFFCURVE",
"250 700 CURVE",
"250 708 LINE",
"92 708 OFFCURVE",
"15 526 OFFCURVE",
"15 350 CURVE"
);
},
{
closed = 1;
nodes = (
"250 700 LINE",
"336 700 OFFCURVE",
"351 609 OFFCURVE",
"342 510 CURVE SMOOTH",
"339 477 LINE",
"345 477 LINE",
"412 703 LINE",
"404 705 LINE",
"394 679 OFFCURVE",
"385 667 OFFCURVE",
"369 667 CURVE SMOOTH",
"346 667 OFFCURVE",
"307 708 OFFCURVE",
"250 708 CURVE"
);
},
{
closed = 1;
nodes = (
"370.5 93 OFFCURVE",
"362 48 CURVE",
"370 48 LINE",
"376.5 77.5 OFFCURVE",
"379.5 107.5 OFFCURVE",
"379.5 137 CURVE SMOOTH",
"379.5 177.5 OFFCURVE",
"373.5 218 OFFCURVE",
"363 255 CURVE",
"355 255 LINE",
"358.5 206 LINE",
"358.5 162 LINE",
"330.5 60 LINE",
"357.5 102.5 OFFCURVE"
);
}
);
width = 412;
},
{
anchors = (
{
name = bottom;
position = "{250, -10}";
},
{
name = top;
position = "{210, 700}";
}
);
annotations = (
{
position = "{448.828, 146.982}";
type = Arrow;
},
{
position = "{510.387, 153.314}";
text = "plus large ?";
type = Text;
}
);
associatedMasterId = "1CDF7AA2-9B9F-46E0-8866-C4919D639C4C";
backgroundImage = {
crop = "{{0, 0}, {64.08, 88.56}}";
imagePath = "../../Documents/PERSONAL TYPEFACES/PERSONAL TYPEFACES/_FLORIA/_scans lettres 01 /C.jpg";
locked = "1";
transform = "{9.63541, 0, 0, 9.63541, -82, -60}";
};
guideLines = (
{
position = "{395, 307}";
}
);
layerId = "79E84198-EF8C-437D-8490-FF83E08E957D";
name = "Jun 12 20, 00:21";
paths = (
{
closed = 1;
nodes = (
"235 0 LINE",
"158 0 OFFCURVE",
"125 142 OFFCURVE",
"125 350 CURVE",
"15 350 LINE",
"15 174 OFFCURVE",
"77 -8 OFFCURVE",
"235 -8 CURVE"
);
},
{
closed = 1;
nodes = (
"284 -8 OFFCURVE",
"378 53 OFFCURVE",
"363 255 CURVE",
"355 255 LINE",
"370 57 OFFCURVE",
"280 0 OFFCURVE",
"235 0 CURVE",
"235 -8 LINE"
);
},
{
closed = 1;
nodes = (
"125 350 LINE",
"125 558 OFFCURVE",
"173 700 OFFCURVE",
"250 700 CURVE",
"250 708 LINE",
"92 708 OFFCURVE",
"15 526 OFFCURVE",
"15 350 CURVE"
);
},
{
closed = 1;
nodes = (
"250 700 LINE",
"336 700 OFFCURVE",
"351 609 OFFCURVE",
"342 510 CURVE SMOOTH",
"339 477 LINE",
"345 477 LINE",
"412 703 LINE",
"404 705 LINE",
"394 679 OFFCURVE",
"385 667 OFFCURVE",
"369 667 CURVE SMOOTH",
"346 667 OFFCURVE",
"307 708 OFFCURVE",
"250 708 CURVE"
);
},
{
closed = 1;
nodes = (
"370.5 93 OFFCURVE",
"362 48 CURVE",
"370 48 LINE",
"376.5 77.5 OFFCURVE",
"379.5 107.5 OFFCURVE",
"379.5 137 CURVE SMOOTH",
"379.5 177.5 OFFCURVE",
"373.5 218 OFFCURVE",
"363 255 CURVE",
"355 255 LINE",
"358.5 206 LINE",
"358.5 162 LINE",
"330.5 60 LINE",
"357.5 102.5 OFFCURVE"
);
}
);
width = 412;
},
{
anchors = (
{
name = bottom;
position = "{250, -10}";
},
{
name = top;
position = "{210, 700}";
}
);
annotations = (
{
position = "{448.828, 146.982}";
type = Arrow;
},
{
position = "{510.387, 153.314}";
text = "plus large ?";
type = Text;
}
);
associatedMasterId = "1CDF7AA2-9B9F-46E0-8866-C4919D639C4C";
guideLines = (
{
position = "{395, 307}";
}
);
layerId = "E8401AFF-E20A-44A8-91E9-8C874B3E0B91";
name = "Jul 6 20, 16:30";
paths = (
{
closed = 1;
nodes = (
"250 0 LINE",
"173 0 OFFCURVE",
"125 142 OFFCURVE",
"125 350 CURVE",
"15 350 LINE",
"15 174 OFFCURVE",
"92 -8 OFFCURVE",
"250 -8 CURVE"
);
},
{
closed = 1;
nodes = (
"324 -8 OFFCURVE",
"403 53 OFFCURVE",
"403 255 CURVE",
"395 255 LINE",
"395 57 OFFCURVE",
"320 0 OFFCURVE",
"250 0 CURVE",
"250 -8 LINE"
);
},
{
closed = 1;
nodes = (
"125 350 LINE",
"125 558 OFFCURVE",
"173 700 OFFCURVE",
"250 700 CURVE",
"250 708 LINE",
"92 708 OFFCURVE",
"15 526 OFFCURVE",
"15 350 CURVE"
);
},
{
closed = 1;
nodes = (
"250 700 LINE",
"336 700 OFFCURVE",
"351 609 OFFCURVE",
"342 510 CURVE SMOOTH",
"339 477 LINE",
"345 477 LINE",
"412 703 LINE",
"404 705 LINE",
"394 679 OFFCURVE",
"385 667 OFFCURVE",
"369 667 CURVE SMOOTH",
"346 667 OFFCURVE",
"307 708 OFFCURVE",
"250 708 CURVE"
);
},
{
closed = 1;
nodes = (
"396 87 OFFCURVE",
"402 75 OFFCURVE",
"397 48 CURVE",
"405 48 LINE",
"412.5 80.5 OFFCURVE",
"415.5 116 OFFCURVE",
"415.5 151.5 CURVE SMOOTH",
"415.5 205.5 OFFCURVE",
"408.5 260 OFFCURVE",
"402 304 CURVE",
"394 304 LINE",
"394 295 OFFCURVE",
"395 274 OFFCURVE",
"395 255 CURVE",
"398 206 LINE",
"393 162 LINE",
"362 60 LINE",
"372.5 76 OFFCURVE",
"379.5 87 OFFCURVE",
"387 87 CURVE SMOOTH"
);
}
);
width = 430.5;
},
{
anchors = (
{
name = bottom;
position = "{250, -10}";
},
{
name = top;
position = "{210, 700}";
}
);
annotations = (
{
position = "{448.828, 146.982}";
type = Arrow;
},
{
position = "{510.387, 153.314}";
text = "plus large ?";
type = Text;
}
);
associatedMasterId = "1CDF7AA2-9B9F-46E0-8866-C4919D639C4C";
guideLines = (
{
position = "{395, 307}";
}
);
layerId = "0E4917CA-BD1B-415F-818E-A70CE19620DC";
name = "Jul 6 20, 16:36";
paths = (
{
closed = 1;
nodes = (
"250 0 LINE",
"173 0 OFFCURVE",
"125 142 OFFCURVE",
"125 350 CURVE",
"15 350 LINE",
"15 174 OFFCURVE",
"92 -8 OFFCURVE",
"250 -8 CURVE"
);
},
{
closed = 1;
nodes = (
"309 -8 OFFCURVE",
"383 53 OFFCURVE",
"383 255 CURVE",
"375 255 LINE",
"375 57 OFFCURVE",
"305 0 OFFCURVE",
"250 0 CURVE",
"250 -8 LINE"
);
},
{
closed = 1;
nodes = (
"125 350 LINE",
"125 558 OFFCURVE",
"173 700 OFFCURVE",
"250 700 CURVE",
"250 708 LINE",
"92 708 OFFCURVE",
"15 526 OFFCURVE",
"15 350 CURVE"
);
},
{
closed = 1;
nodes = (
"250 700 LINE",
"336 700 OFFCURVE",
"351 609 OFFCURVE",
"342 510 CURVE SMOOTH",
"339 477 LINE",
"345 477 LINE",
"412 703 LINE",
"404 705 LINE",
"394 679 OFFCURVE",
"385 667 OFFCURVE",
"369 667 CURVE SMOOTH",
"346 667 OFFCURVE",
"307 708 OFFCURVE",
"250 708 CURVE"
);
},
{
closed = 1;
nodes = (
"371 85.5 OFFCURVE",
"382 85.5 CURVE SMOOTH",
"396.5 85.5 OFFCURVE",
"406.5 72 OFFCURVE",
"402 48 CURVE",
"410 48 LINE",
"414 71.5 OFFCURVE",
"416 97 OFFCURVE",
"416 122.5 CURVE SMOOTH",
"416 188 OFFCURVE",
"403.5 256 OFFCURVE",
"380.5 307 CURVE",
"372.5 307 LINE",
"372.5 298 OFFCURVE",
"375 274 OFFCURVE",
"375 255 CURVE",
"378 206 LINE",
"373 147 LINE",
"345.5 59.5 LINE",
"357 77 OFFCURVE"
);
}
);
width = 430.5;
},
{
anchors = (
{
name = bottom;
position = "{250, -10}";
},
{
name = top;
position = "{210, 700}";
}
);
annotations = (
{
position = "{448.828, 146.982}";
type = Arrow;
},
{
position = "{510.387, 153.314}";
text = "plus large ?";
type = Text;
}
);
associatedMasterId = "1CDF7AA2-9B9F-46E0-8866-C4919D639C4C";
guideLines = (
{
position = "{395, 307}";
}
);
layerId = "DBACBAEA-4230-408E-913A-FA05F2749580";
name = "Jul 6 20, 16:40";
paths = (
{
closed = 1;
nodes = (
"250 0 LINE",
"173 0 OFFCURVE",
"125 142 OFFCURVE",
"125 350 CURVE",
"15 350 LINE",
"15 174 OFFCURVE",
"92 -8 OFFCURVE",
"250 -8 CURVE"
);
},
{
closed = 1;
nodes = (
"309 -8 OFFCURVE",
"383 53 OFFCURVE",
"383 255 CURVE",
"375 255 LINE",
"375 57 OFFCURVE",
"305 0 OFFCURVE",
"250 0 CURVE",
"250 -8 LINE"
);
},
{
closed = 1;
nodes = (
"125 350 LINE",
"125 558 OFFCURVE",
"173 700 OFFCURVE",
"250 700 CURVE",
"250 708 LINE",
"92 708 OFFCURVE",
"15 526 OFFCURVE",
"15 350 CURVE"
);
},
{
closed = 1;
nodes = (
"250 700 LINE",
"336 700 OFFCURVE",
"351 609 OFFCURVE",
"342 510 CURVE SMOOTH",
"339 477 LINE",
"345 477 LINE",
"412 703 LINE",
"404 705 LINE",
"394 679 OFFCURVE",
"385 667 OFFCURVE",
"369 667 CURVE SMOOTH",
"346 667 OFFCURVE",
"307 708 OFFCURVE",
"250 708 CURVE"
);
},
{
closed = 1;
nodes = (
"371 90 OFFCURVE",
"383.5 90 CURVE SMOOTH",
"399.5 90 OFFCURVE",
"412 74.5 OFFCURVE",
"407 48 CURVE",
"415 48 LINE",
"419 71.5 OFFCURVE",
"421 97 OFFCURVE",
"421 122.5 CURVE SMOOTH",
"421 214.5 OFFCURVE",
"403 308.5 OFFCURVE",
"375.5 357 CURVE",
"367.5 355 LINE",
"372 322 OFFCURVE",
"375 282 OFFCURVE",
"375 255 CURVE",
"378 206 LINE",
"373 147 LINE",
"345.5 59.5 LINE",
"356 80.5 OFFCURVE"
);
}
);
width = 431;
},
{
anchors = (
{
name = bottom;
position = "{250, -10}";
},
{
name = top;
position = "{210, 700}";
}
);
annotations = (
{
position = "{448.828, 146.982}";
type = Arrow;
},
{
position = "{510.387, 153.314}";
text = "plus large ?";
type = Text;
}
);
associatedMasterId = "1CDF7AA2-9B9F-46E0-8866-C4919D639C4C";
guideLines = (
{
position = "{395, 307}";
}
);
layerId = "CFF40FFB-9DBE-4F9E-87B1-18708791EAA4";
name = "Jul 6 20, 16:41";
paths = (
{
closed = 1;
nodes = (
"250 0 LINE",
"173 0 OFFCURVE",
"125 142 OFFCURVE",
"125 350 CURVE",
"15 350 LINE",
"15 174 OFFCURVE",
"92 -8 OFFCURVE",
"250 -8 CURVE"
);
},
{
closed = 1;
nodes = (
"309 -8 OFFCURVE",
"383 53 OFFCURVE",
"383 255 CURVE",
"375 255 LINE",
"375 57 OFFCURVE",
"305 0 OFFCURVE",
"250 0 CURVE",
"250 -8 LINE"
);
},
{
closed = 1;
nodes = (
"125 350 LINE",
"125 558 OFFCURVE",
"173 700 OFFCURVE",
"250 700 CURVE",
"250 708 LINE",
"92 708 OFFCURVE",
"15 526 OFFCURVE",
"15 350 CURVE"
);
},
{
closed = 1;
nodes = (
"250 700 LINE",
"336 700 OFFCURVE",
"351 609 OFFCURVE",
"342 510 CURVE SMOOTH",
"339 477 LINE",
"345 477 LINE",
"412 703 LINE",
"404 705 LINE",
"394 679 OFFCURVE",
"385 667 OFFCURVE",
"369 667 CURVE SMOOTH",
"346 667 OFFCURVE",
"307 708 OFFCURVE",
"250 708 CURVE"
);
},
{
closed = 1;
nodes = (
"401 96.5 OFFCURVE",
"392 48 CURVE",
"400 48 LINE",
"404 71.5 OFFCURVE",
"406 97 OFFCURVE",
"406 122.5 CURVE SMOOTH",
"406 214.5 OFFCURVE",
"388 308.5 OFFCURVE",
"375.5 357 CURVE",
"367.5 355 LINE",
"372 322 OFFCURVE",
"375 282 OFFCURVE",
"375 255 CURVE",
"378 206 LINE",
"373 147 LINE",
"345.5 59.5 LINE",
"383 125 OFFCURVE"
);
}
);
width = 431;
},
{
anchors = (
{
name = bottom;
position = "{250, -10}";
},
{
name = top;
position = "{210, 700}";
}
);
annotations = (
{
position = "{448.828, 146.982}";
type = Arrow;
},
{
position = "{510.387, 153.314}";
text = "plus large ?";
type = Text;
}
);
associatedMasterId = "1CDF7AA2-9B9F-46E0-8866-C4919D639C4C";
guideLines = (
{
position = "{395, 307}";
},
{
position = "{23, 10}";
}
);
layerId = "CEDA20C4-5D33-4CC5-B0B4-DB4430E10251";
name = "Jul 6 20, 16:44";
paths = (
{
closed = 1;
nodes = (
"250 0 LINE",
"173 0 OFFCURVE",
"125 142 OFFCURVE",
"125 350 CURVE",
"15 350 LINE",
"15 174 OFFCURVE",
"92 -8 OFFCURVE",
"250 -8 CURVE"
);
},
{
closed = 1;
nodes = (
"309 -8 OFFCURVE",
"383 53 OFFCURVE",
"383 255 CURVE",
"375 255 LINE",
"375 57 OFFCURVE",
"305 0 OFFCURVE",
"250 0 CURVE",
"250 -8 LINE"
);
},
{
closed = 1;
nodes = (
"125 350 LINE",
"125 558 OFFCURVE",
"173 700 OFFCURVE",
"250 700 CURVE",
"250 708 LINE",
"92 708 OFFCURVE",
"15 526 OFFCURVE",
"15 350 CURVE"
);
},
{
closed = 1;
nodes = (
"250 700 LINE",
"336 700 OFFCURVE",
"351 609 OFFCURVE",
"342 510 CURVE SMOOTH",
"339 477 LINE",
"345 477 LINE",
"412 703 LINE",
"404 705 LINE",
"394 679 OFFCURVE",
"385 667 OFFCURVE",
"369 667 CURVE SMOOTH",
"346 667 OFFCURVE",
"307 708 OFFCURVE",
"250 708 CURVE"
);
},
{
closed = 1;
nodes = (
"410.5 96.5 OFFCURVE",
"401.5 48 CURVE",
"409.5 48 LINE",
"413.5 65.5 OFFCURVE",
"416 93.5 OFFCURVE",
"416 118.5 CURVE SMOOTH",
"416 190.5 OFFCURVE",
"400 286 OFFCURVE",
"375.5 357 CURVE",
"367.5 355 LINE",
"372 322 OFFCURVE",
"375 282 OFFCURVE",
"375 255 CURVE",
"378 206 LINE",
"373 147 LINE",
"345.5 59.5 LINE",
"383 125 OFFCURVE"
);
}
);
width = 431;
},
{
anchors = (
{
name = bottom;
position = "{250, -10}";
},
{
name = top;
position = "{210, 700}";
}
);
annotations = (
{
position = "{448.828, 146.982}";
type = Arrow;
},
{
position = "{510.387, 153.314}";
text = "plus large ?";
type = Text;
}
);
associatedMasterId = "1CDF7AA2-9B9F-46E0-8866-C4919D639C4C";
guideLines = (
{
position = "{395, 307}";
},
{
position = "{23, 10}";
}
);
layerId = "AB68DD0B-E3FC-445F-B4BD-E2C57E101148";
name = "Jul 6 20, 17:41";
paths = (
{
closed = 1;
nodes = (
"250 0 LINE",
"173 0 OFFCURVE",
"125 142 OFFCURVE",
"125 350 CURVE",
"15 350 LINE",
"15 174 OFFCURVE",
"92 -8 OFFCURVE",
"250 -8 CURVE"
);
},
{
closed = 1;
nodes = (
"309 -8 OFFCURVE",
"383 53 OFFCURVE",
"383 255 CURVE",
"375 255 LINE",
"375 57 OFFCURVE",
"305 0 OFFCURVE",
"250 0 CURVE",
"250 -8 LINE"
);
},
{
closed = 1;
nodes = (
"125 350 LINE",
"125 558 OFFCURVE",
"173 700 OFFCURVE",
"250 700 CURVE",
"250 708 LINE",
"92 708 OFFCURVE",
"15 526 OFFCURVE",
"15 350 CURVE"
);
},
{
closed = 1;
nodes = (
"250 700 LINE",
"336 700 OFFCURVE",
"351 609 OFFCURVE",
"342 510 CURVE SMOOTH",
"339 477 LINE",
"345 477 LINE",
"412 703 LINE",
"404 705 LINE",
"394 679 OFFCURVE",
"385 667 OFFCURVE",
"369 667 CURVE SMOOTH",
"346 667 OFFCURVE",
"307 708 OFFCURVE",
"250 708 CURVE"
);
},
{
closed = 1;
nodes = (
"412 46.5 OFFCURVE",
"403 -2 CURVE",
"411 -2 LINE",
"415 15.5 OFFCURVE",
"417.5 43.5 OFFCURVE",
"417.5 68.5 CURVE SMOOTH",
"417.5 140.5 OFFCURVE",
"401.5 236 OFFCURVE",
"377 307 CURVE",
"369 305 LINE",
"372.5 290 OFFCURVE",
"375 270 OFFCURVE",
"375 255 CURVE",
"375 159 LINE",
"352.5 80.5 LINE",
"315.5 19.5 LINE",
"383 82.5 OFFCURVE"
);
}
);
width = 431;
},
{
anchors = (
{
name = bottom;
position = "{250, -10}";
},
{
name = top;
position = "{210, 700}";
}
);
annotations = (
{
position = "{448.828, 146.982}";
type = Arrow;
},
{
position = "{510.387, 153.314}";
text = "plus large ?";
type = Text;
}
);
associatedMasterId = "1CDF7AA2-9B9F-46E0-8866-C4919D639C4C";
guideLines = (
{
position = "{395, 307}";
},
{
position = "{23, 10}";
}
);
layerId = "A1200AC3-24D7-4EBB-8E2F-FA57E875B4D8";
name = "Jul 6 20, 17:43";
paths = (
{
closed = 1;
nodes = (
"250 0 LINE",
"173 0 OFFCURVE",
"125 142 OFFCURVE",
"125 350 CURVE",
"15 350 LINE",
"15 174 OFFCURVE",
"92 -8 OFFCURVE",
"250 -8 CURVE"
);
},
{
closed = 1;
nodes = (
"309 -8 OFFCURVE",
"383 53 OFFCURVE",
"383 255 CURVE",
"375 255 LINE",
"375 57 OFFCURVE",
"305 0 OFFCURVE",
"250 0 CURVE",
"250 -8 LINE"
);
},
{
closed = 1;
nodes = (
"125 350 LINE",
"125 558 OFFCURVE",
"173 700 OFFCURVE",
"250 700 CURVE",
"250 708 LINE",
"92 708 OFFCURVE",
"15 526 OFFCURVE",
"15 350 CURVE"
);
},
{
closed = 1;
nodes = (
"250 700 LINE",
"336 700 OFFCURVE",
"351 609 OFFCURVE",
"342 510 CURVE SMOOTH",
"339 477 LINE",
"345 477 LINE",
"412 703 LINE",
"404 705 LINE",
"394 679 OFFCURVE",
"385 667 OFFCURVE",
"369 667 CURVE SMOOTH",
"346 667 OFFCURVE",
"307 708 OFFCURVE",
"250 708 CURVE"
);
},
{
closed = 1;
nodes = (
"353 43.5 OFFCURVE",
"369.5 43.5 CURVE SMOOTH",
"393 43.5 OFFCURVE",
"408.5 26.5 OFFCURVE",
"403 -2 CURVE",
"411 -2 LINE",
"415 15.5 OFFCURVE",
"417.5 43.5 OFFCURVE",
"417.5 68.5 CURVE SMOOTH",
"417.5 140.5 OFFCURVE",
"401.5 236 OFFCURVE",
"377 307 CURVE",
"369 305 LINE",
"372.5 290 OFFCURVE",
"375 270 OFFCURVE",
"375 255 CURVE",
"375 159 LINE",
"352.5 80.5 LINE",
"311.5 16 LINE",
"332 35 OFFCURVE"
);
}
);
width = 431;
},
{
anchors = (
{
name = bottom;
position = "{250, -10}";
},
{
name = top;
position = "{210, 700}";
}
);
associatedMasterId = "1CDF7AA2-9B9F-46E0-8866-C4919D639C4C";
guideLines = (
{
position = "{395, 307}";
},
{
position = "{23, 10}";
}
);
layerId = "D4AB29D8-A5E5-49D6-94F0-0FBE62604911";
name = "Jul 6 20, 17:55";
paths = (
{
closed = 1;
nodes = (
"250 0 LINE",
"173 0 OFFCURVE",
"125 142 OFFCURVE",
"125 350 CURVE",
"15 350 LINE",
"15 174 OFFCURVE",
"92 -8 OFFCURVE",
"250 -8 CURVE"
);
},
{
closed = 1;
nodes = (
"309 -8 OFFCURVE",
"383 53 OFFCURVE",
"383 255 CURVE",
"375 255 LINE",
"375 57 OFFCURVE",
"305 0 OFFCURVE",
"250 0 CURVE",
"250 -8 LINE"
);
},
{
closed = 1;
nodes = (
"125 350 LINE",
"125 558 OFFCURVE",
"173 700 OFFCURVE",
"250 700 CURVE",
"250 708 LINE",
"92 708 OFFCURVE",
"15 526 OFFCURVE",
"15 350 CURVE"
);
},
{
closed = 1;
nodes = (
"250 700 LINE",
"336 700 OFFCURVE",
"351 609 OFFCURVE",
"342 510 CURVE SMOOTH",
"339 477 LINE",
"345 477 LINE",
"412 703 LINE",
"404 705 LINE",
"394 679 OFFCURVE",
"385 667 OFFCURVE",
"369 667 CURVE SMOOTH",
"346 667 OFFCURVE",
"307 708 OFFCURVE",
"250 708 CURVE"
);
},
{
closed = 1;
nodes = (
"413 63 OFFCURVE",
"403 10 CURVE",
"411 10 LINE",
"415.5 30 OFFCURVE",
"418 53.5 OFFCURVE",
"418 80 CURVE SMOOTH",
"418 147 OFFCURVE",
"405.5 230 OFFCURVE",
"379.5 307 CURVE",
"371.5 305 LINE",
"373.5 296 OFFCURVE",
"375 276 OFFCURVE",
"375 255 CURVE",
"375 159 LINE",
"352.5 80.5 LINE",
"321 25 LINE",
"371.5 79 OFFCURVE"
);
}
);
width = 431;
},
{
anchors = (
{
name = bottom;
position = "{250, -10}";
},
{
name = top;
position = "{210, 700}";
}
);
associatedMasterId = "1CDF7AA2-9B9F-46E0-8866-C4919D639C4C";
guideLines = (
{
position = "{395, 307}";
}
);
layerId = "04D65AC2-7EE9-46A5-B430-9C9E502BFF9B";
name = "Jul 10 20, 16:29";
paths = (
{
closed = 1;
nodes = (
"250 0 LINE",
"173 0 OFFCURVE",
"125 142 OFFCURVE",
"125 350 CURVE",
"15 350 LINE",
"15 174 OFFCURVE",
"92 -8 OFFCURVE",
"250 -8 CURVE"
);
},
{
closed = 1;
nodes = (
"309 -8 OFFCURVE",
"383 53 OFFCURVE",
"383 255 CURVE",
"375 255 LINE",
"375 57 OFFCURVE",
"305 0 OFFCURVE",
"250 0 CURVE",
"250 -8 LINE"
);
},
{
closed = 1;
nodes = (
"125 350 LINE",
"125 558 OFFCURVE",
"173 700 OFFCURVE",
"250 700 CURVE",
"250 708 LINE",
"92 708 OFFCURVE",
"15 526 OFFCURVE",
"15 350 CURVE"
);
},
{
closed = 1;
nodes = (
"250 700 LINE",
"336 700 OFFCURVE",
"351 609 OFFCURVE",
"342 510 CURVE SMOOTH",
"339 477 LINE",
"345 477 LINE",
"412 703 LINE",
"404 705 LINE",
"394 679 OFFCURVE",
"385 667 OFFCURVE",
"369 667 CURVE SMOOTH",
"346 667 OFFCURVE",
"307 708 OFFCURVE",
"250 708 CURVE"
);
},
{
closed = 1;
nodes = (
"370.5 83.5 OFFCURVE",
"413 68 OFFCURVE",
"403 15 CURVE",
"411 15 LINE",
"415.5 35 OFFCURVE",
"418 53.5 OFFCURVE",
"418 80 CURVE SMOOTH",
"418 147 OFFCURVE",
"405.5 230 OFFCURVE",
"379.5 307 CURVE",
"371.5 305 LINE",
"373.5 296 OFFCURVE",
"375 276 OFFCURVE",
"375 255 CURVE",
"375 159 LINE",
"352.5 80.5 LINE",
"325 29.5 LINE"
);
}
);
width = 431;
},
{
anchors = (
{
name = bottom;
position = "{250, -10}";
},
{
name = top;
position = "{210, 700}";
}
);
associatedMasterId = "1CDF7AA2-9B9F-46E0-8866-C4919D639C4C";
guideLines = (
{
position = "{395, 307}";
},
{
position = "{411, 40}";
}
);
layerId = "2275B1CE-47E7-4311-8686-6F16A6EC46EE";
name = "Jul 10 20, 16:32";
paths = (
{
closed = 1;
nodes = (
"250 0 LINE",
"173 0 OFFCURVE",
"125 142 OFFCURVE",
"125 350 CURVE",
"15 350 LINE",
"15 174 OFFCURVE",
"92 -8 OFFCURVE",
"250 -8 CURVE"
);
},
{
closed = 1;
nodes = (
"309 -8 OFFCURVE",
"381 78 OFFCURVE",
"381 280 CURVE",
"373 280 LINE",
"373 82 OFFCURVE",
"305 0 OFFCURVE",
"250 0 CURVE",
"250 -8 LINE"
);
},
{
closed = 1;
nodes = (
"125 350 LINE",
"125 558 OFFCURVE",
"173 700 OFFCURVE",
"250 700 CURVE",
"250 708 LINE",
"92 708 OFFCURVE",
"15 526 OFFCURVE",
"15 350 CURVE"
);
},
{
closed = 1;
nodes = (
"250 700 LINE",
"336 700 OFFCURVE",
"351 609 OFFCURVE",
"342 510 CURVE SMOOTH",
"339 477 LINE",
"345 477 LINE",
"412 703 LINE",
"404 705 LINE",
"394 679 OFFCURVE",
"385 667 OFFCURVE",
"369 667 CURVE SMOOTH",
"346 667 OFFCURVE",
"307 708 OFFCURVE",
"250 708 CURVE"
);
},
{
closed = 1;
nodes = (
"367 108 OFFCURVE",
"401 93 OFFCURVE",
"391 40 CURVE",
"399 40 LINE",
"405.5 69 OFFCURVE",
"408.5 102 OFFCURVE",
"408.5 137 CURVE SMOOTH",
"408.5 201.5 OFFCURVE",
"398 271.5 OFFCURVE",
"377.5 332 CURVE",
"369.5 330 LINE",
"371.5 321 OFFCURVE",
"373 301 OFFCURVE",
"373 280 CURVE",
"373 184 LINE",
"350.5 105.5 LINE",
"334 54 LINE"
);
}
);
width = 422;
},
{
anchors = (
{
name = bottom;
position = "{250, -10}";
},
{
name = top;
position = "{210, 700}";
}
);
associatedMasterId = "1CDF7AA2-9B9F-46E0-8866-C4919D639C4C";
guideLines = (
{
position = "{395, 307}";
},
{
position = "{411, 40}";
}
);
layerId = "82D6148A-2D91-4EA2-BAD9-4A76C65EC8AF";
name = "Jul 10 20, 17:32";
paths = (
{
closed = 1;
nodes = (
"250 0 LINE",
"173 0 OFFCURVE",
"125 142 OFFCURVE",
"125 350 CURVE",
"15 350 LINE",
"15 174 OFFCURVE",
"92 -8 OFFCURVE",
"250 -8 CURVE"
);
},
{
closed = 1;
nodes = (
"309 -8 OFFCURVE",
"381 78 OFFCURVE",
"381 280 CURVE",
"373 280 LINE",
"373 82 OFFCURVE",
"305 0 OFFCURVE",
"250 0 CURVE",
"250 -8 LINE"
);
},
{
closed = 1;
nodes = (
"125 350 LINE",
"125 558 OFFCURVE",
"173 700 OFFCURVE",
"250 700 CURVE",
"250 708 LINE",
"92 708 OFFCURVE",
"15 526 OFFCURVE",
"15 350 CURVE"
);
},
{
closed = 1;
nodes = (
"250 700 LINE",
"336 700 OFFCURVE",
"351 609 OFFCURVE",
"342 510 CURVE SMOOTH",
"339 477 LINE",
"345 477 LINE",
"412 703 LINE",
"404 705 LINE",
"394 679 OFFCURVE",
"385 667 OFFCURVE",
"369 667 CURVE SMOOTH",
"346 667 OFFCURVE",
"307 708 OFFCURVE",
"250 708 CURVE"
);
},
{
closed = 1;
nodes = (
"367 108 OFFCURVE",
"411 93 OFFCURVE",
"401 40 CURVE",
"409 40 LINE",
"413.5 60 OFFCURVE",
"416 78.5 OFFCURVE",
"416 105 CURVE SMOOTH",
"416 172 OFFCURVE",
"403.5 255 OFFCURVE",
"377.5 332 CURVE",
"369.5 330 LINE",
"371.5 321 OFFCURVE",
"373 301 OFFCURVE",
"373 280 CURVE",
"373 184 LINE",
"350.5 105.5 LINE",
"334 54 LINE"
);
}
);
width = 431;
},
{
anchors = (
{
name = bottom;
position = "{250, -10}";
},
{
name = top;
position = "{210, 700}";
}
);
associatedMasterId = "1CDF7AA2-9B9F-46E0-8866-C4919D639C4C";
guideLines = (
{
position = "{395, 307}";
},
{
position = "{411, 40}";
}
);
layerId = "BE022A9C-2899-417D-B48F-FC98F8E267AE";
name = "Aug 27 20, 09:32";
paths = (
{
closed = 1;
nodes = (
"240 0 LINE",
"163 0 OFFCURVE",
"125 142 OFFCURVE",
"125 350 CURVE",
"15 350 LINE",
"15 174 OFFCURVE",
"82 -8 OFFCURVE",
"240 -8 CURVE"
);
},
{
closed = 1;
nodes = (
"298 -8 OFFCURVE",
"370 78 OFFCURVE",
"370 280 CURVE",
"362 280 LINE",
"362 82 OFFCURVE",
"294 0 OFFCURVE",
"240 0 CURVE",
"240 -8 LINE"
);
},
{
closed = 1;
nodes = (
"125 350 LINE",
"125 558 OFFCURVE",
"163 700 OFFCURVE",
"240 700 CURVE",
"240 708 LINE",
"82 708 OFFCURVE",
"15 526 OFFCURVE",
"15 350 CURVE"
);
},
{
closed = 1;
nodes = (
"240 700 LINE",
"325 700 OFFCURVE",
"340 609 OFFCURVE",
"331 510 CURVE SMOOTH",
"328 477 LINE",
"334 477 LINE",
"401 703 LINE",
"393 705 LINE",
"383 679 OFFCURVE",
"374 667 OFFCURVE",
"358 667 CURVE SMOOTH",
"335 667 OFFCURVE",
"296 708 OFFCURVE",
"240 708 CURVE"
);
},
{
closed = 1;
nodes = (
"344 83.5 OFFCURVE",
"364.5 100 OFFCURVE",
"377 100 CURVE SMOOTH",
"393.5 100 OFFCURVE",
"395.5 70.5 OFFCURVE",
"390 40 CURVE",
"398 40 LINE",
"402.5 60.5 OFFCURVE",
"405 85 OFFCURVE",
"405 112 CURVE SMOOTH",
"405 177.5 OFFCURVE",
"391.5 258 OFFCURVE",
"366.5 332 CURVE",
"358.5 330 LINE",
"360.5 321 OFFCURVE",
"362 301 OFFCURVE",
"362 280 CURVE",
"362 184 LINE",
"339.5 105.5 LINE",
"312.5 37.5 LINE"
);
}
);
width = 415;
},
{
anchors = (
{
name = bottom;
position = "{250, -10}";
},
{
name = top;
position = "{210, 700}";
}
);
associatedMasterId = "1CDF7AA2-9B9F-46E0-8866-C4919D639C4C";
guideLines = (
{
position = "{411, 40}";
}
);
layerId = "15C80841-8C29-4BE0-9D18-9809B0A6AA99";
name = "Aug 27 20, 10:09";
paths = (
{
closed = 1;
nodes = (
"240 0 LINE",
"163 0 OFFCURVE",
"125 142 OFFCURVE",
"125 350 CURVE",
"15 350 LINE",
"15 135 OFFCURVE",
"105 -8 OFFCURVE",
"240 -8 CURVE"
);
},
{
closed = 1;
nodes = (
"318 -8 OFFCURVE",
"370 107 OFFCURVE",
"370 280 CURVE",
"362 280 LINE",
"362 82 OFFCURVE",
"294 0 OFFCURVE",
"240 0 CURVE",
"240 -8 LINE"
);
},
{
closed = 1;
nodes = (
"125 350 LINE",
"125 558 OFFCURVE",
"163 700 OFFCURVE",
"240 700 CURVE",
"240 708 LINE",
"82 708 OFFCURVE",
"15 526 OFFCURVE",
"15 350 CURVE"
);
},
{
closed = 1;
nodes = (
"240 700 LINE",
"325 700 OFFCURVE",
"340 609 OFFCURVE",
"331 510 CURVE SMOOTH",
"328 477 LINE",
"334 477 LINE",
"401 703 LINE",
"393 705 LINE",
"383 679 OFFCURVE",
"374 667 OFFCURVE",
"358 667 CURVE SMOOTH",
"335 667 OFFCURVE",
"296 708 OFFCURVE",
"240 708 CURVE"
);
},
{
closed = 1;
nodes = (
"349 86.5 OFFCURVE",
"362.5 100 OFFCURVE",
"377 100 CURVE SMOOTH",
"391.5 100 OFFCURVE",
"396.5 76 OFFCURVE",
"390 40 CURVE",
"398 40 LINE",
"402 59 OFFCURVE",
"405 88 OFFCURVE",
"405 112 CURVE SMOOTH",
"405 177.5 OFFCURVE",
"391.5 258 OFFCURVE",
"366.5 332 CURVE",
"358.5 330 LINE",
"360.5 321 OFFCURVE",
"362 301 OFFCURVE",
"362 280 CURVE",
"362 184 LINE",
"339.5 105.5 LINE",
"320 44.5 LINE"
);
}
);
width = 415;
},
{
anchors = (
{
name = bottom;
position = "{260, -8}";
},
{
name = top;
position = "{260, 708}";
}
);
guideLines = (
{
position = "{385, 307}";
},
{
position = "{401, 40}";
}
);
layerId = "1CDF7AA2-9B9F-46E0-8866-C4919D639C4C";
paths = (
{
closed = 1;
nodes = (
"145 350 LINE",
"145 558 OFFCURVE",
"183 680 OFFCURVE",
"260 680 CURVE",
"260 708 LINE",
"102 708 OFFCURVE",
"35 526 OFFCURVE",
"35 350 CURVE"
);
},
{
closed = 1;
nodes = (
"260 20 LINE",
"183 20 OFFCURVE",
"145 142 OFFCURVE",
"145 350 CURVE",
"35 350 LINE",
"35 174 OFFCURVE",
"102 -8 OFFCURVE",
"260 -8 CURVE"
);
},
{
closed = 1;
nodes = (
"364 477 LINE",
"431 703 LINE",
"413 705 LINE",
"403 679 OFFCURVE",
"394 667 OFFCURVE",
"378 667 CURVE SMOOTH",
"355 667 OFFCURVE",
"316 708 OFFCURVE",
"260 708 CURVE",
"260 680 LINE",
"345 680 OFFCURVE",
"360 609 OFFCURVE",
"351 510 CURVE SMOOTH",
"348 477 LINE"
);
},
{
closed = 1;
nodes = (
"298.5 -8 OFFCURVE",
"334 16 OFFCURVE",
"360 59 CURVE SMOOTH",
"374 82 OFFCURVE",
"387 93 OFFCURVE",
"396.5 93 CURVE SMOOTH",
"409.5 93 OFFCURVE",
"416 73.5 OFFCURVE",
"410 40 CURVE",
"428 40 LINE",
"432.5 60.5 OFFCURVE",
"435 85 OFFCURVE",
"435 112 CURVE SMOOTH",
"435 177.5 OFFCURVE",
"421.5 258 OFFCURVE",
"396.5 332 CURVE",
"378.5 330 LINE",
"380.5 321 OFFCURVE",
"382 301 OFFCURVE",
"382 280 CURVE SMOOTH",
"382 82 OFFCURVE",
"314 20 OFFCURVE",
"260 20 CURVE",
"260 -8 LINE"
);
}
);
width = 460;
},
{
anchors = (
{
name = bottom;
position = "{262, -8}";
},
{
name = top;
position = "{262, 708}";
}
);
layerId = "BEE1AFF0-4415-4363-825D-BBA98FF62E65";
paths = (
{
closed = 1;
nodes = (
"147 350 LINE",
"147 558 OFFCURVE",
"185 678 OFFCURVE",
"262 678 CURVE",
"262 708 LINE",
"104 708 OFFCURVE",
"37 526 OFFCURVE",
"37 350 CURVE"
);
},
{
closed = 1;
nodes = (
"262 22 LINE",
"185 22 OFFCURVE",
"147 142 OFFCURVE",
"147 350 CURVE",
"37 350 LINE",
"37 174 OFFCURVE",
"104 -8 OFFCURVE",
"262 -8 CURVE"
);
},
{
closed = 1;
nodes = (
"367 477 LINE",
"434 703 LINE",
"415 705 LINE",
"405 679 OFFCURVE",
"396 667 OFFCURVE",
"380 667 CURVE SMOOTH",
"357 667 OFFCURVE",
"318 708 OFFCURVE",
"262 708 CURVE",
"262 678 LINE",
"347 678 OFFCURVE",
"362 609 OFFCURVE",
"353 510 CURVE SMOOTH",
"350 477 LINE"
);
},
{
closed = 1;
nodes = (
"301.5 -8 OFFCURVE",
"337.5 16.5 OFFCURVE",
"363.5 59 CURVE SMOOTH",
"377.5 82.5 OFFCURVE",
"390.5 93.5 OFFCURVE",
"399.5 93.5 CURVE SMOOTH",
"412 93.5 OFFCURVE",
"418 74 OFFCURVE",
"412 40 CURVE",
"431 40 LINE",
"435.5 60.5 OFFCURVE",
"438 85 OFFCURVE",
"438 112 CURVE SMOOTH",
"438 177.5 OFFCURVE",
"424.5 258 OFFCURVE",
"399.5 332 CURVE",
"380.5 330 LINE",
"382.5 321 OFFCURVE",
"384 301 OFFCURVE",
"384 280 CURVE SMOOTH",
"384 82 OFFCURVE",
"316 22 OFFCURVE",
"262 22 CURVE",
"262 -8 LINE"
);
}
);
width = 464.5;
},
{
anchors = (
{
name = bottom;
position = "{235, -8}";
},
{
name = top;
position = "{235, 708}";
}
);
layerId = "09961995-7511-4D97-AA69-D4CC820B8978";
paths = (
{
closed = 1;
nodes = (
"120 350 LINE",
"120 558 OFFCURVE",
"158 704 OFFCURVE",
"235 704 CURVE",
"235 708 LINE",
"77 708 OFFCURVE",
"10 526 OFFCURVE",
"10 350 CURVE"
);
},
{
closed = 1;
nodes = (
"235 -4 LINE",
"158 -4 OFFCURVE",
"120 142 OFFCURVE",
"120 350 CURVE",
"10 350 LINE",
"10 174 OFFCURVE",
"77 -8 OFFCURVE",
"235 -8 CURVE"
);
},
{
closed = 1;
nodes = (
"327 477 LINE",
"394 703 LINE",
"388 705 LINE",
"378 679 OFFCURVE",
"369 667 OFFCURVE",
"353 667 CURVE SMOOTH",
"330 667 OFFCURVE",
"291 708 OFFCURVE",
"235 708 CURVE",
"235 704 LINE",
"320 704 OFFCURVE",
"335 609 OFFCURVE",
"326 510 CURVE SMOOTH",
"323 477 LINE"
);
},
{
closed = 1;
nodes = (
"261.5 -8 OFFCURVE",
"292.5 11.5 OFFCURVE",
"317.5 57.5 CURVE SMOOTH",
"329.5 78.5 OFFCURVE",
"344.5 87.5 OFFCURVE",
"358 87.5 CURVE SMOOTH",
"377 87.5 OFFCURVE",
"391 69 OFFCURVE",
"385 40 CURVE",
"391 40 LINE",
"395.5 60.5 OFFCURVE",
"398 85 OFFCURVE",
"398 112 CURVE SMOOTH",
"398 177.5 OFFCURVE",
"384.5 258 OFFCURVE",
"359.5 332 CURVE",
"353.5 330 LINE",
"355.5 321 OFFCURVE",
"357 301 OFFCURVE",
"357 280 CURVE SMOOTH",
"357 82 OFFCURVE",
"289 -4 OFFCURVE",
"235 -4 CURVE",
"235 -8 LINE"
);
}
);
width = 405;
}
);
leftKerningGroup = O;
leftMetricsKey = O;
rightKerningGroup = C;
unicode = "0043,0063";
},
{
color = 4;
glyphname = D;
lastChange = "2020-11-09 14:37:24 +0000";
layers = (
{
anchors = (
{
name = bottom;
position = "{219, 0}";
},
{
name = center;
position = "{219, 350}";
},
{
name = top;
position = "{204, 700}";
}
);
components = (
{
name = _part.stem;
transform = "{1, 0, 0, 1, -20, 0}";
},
{
name = _part.shortserif;
transform = "{1, 0, 0, 1, -20, 0}";
},
{
name = _part.shortserif;
transform = "{1, 0, 0, 1, -20, -692}";
}
);
layerId = "C46E4D83-CAC2-4426-A09C-7F1020C0FA19";
paths = (
{
closed = 1;
nodes = (
"455 350 LINE",
"455 526 OFFCURVE",
"362 700 OFFCURVE",
"204 700 CURVE SMOOTH",
"153.5 700 LINE",
"153.5 692 LINE",
"204 692 LINE SMOOTH",
"288.5 692 OFFCURVE",
"345 555 OFFCURVE",
"345 350 CURVE"
);
},
{
closed = 1;
nodes = (
"204 0 LINE SMOOTH",
"362 0 OFFCURVE",
"455 184 OFFCURVE",
"455 350 CURVE",
"345 350 LINE",
"345 145 OFFCURVE",
"288.5 8 OFFCURVE",
"204 8 CURVE SMOOTH",
"153.5 8 LINE",
"153.5 0 LINE"
);
}
);
width = 470;
},
{
anchors = (
{
name = bottom;
position = "{229, 0}";
},
{
name = center;
position = "{229, 350}";
},
{
name = top;
position = "{229, 700}";
}
);
associatedMasterId = "C46E4D83-CAC2-4426-A09C-7F1020C0FA19";
layerId = "E4CE3FCE-FF3F-4047-A1B1-80ED9C04122F";
name = "Jun 14 20, 16:38";
paths = (
{
closed = 1;
nodes = (
"135 0 LINE",
"135 8 LINE",
"25 8 LINE",
"25 0 LINE"
);
},
{
closed = 1;
nodes = (
"185 0 LINE",
"185 700 LINE",
"85 700 LINE",
"85 0 LINE"
);
},
{
closed = 1;
nodes = (
"135 692 LINE",
"135 700 LINE",
"25 700 LINE",
"25 692 LINE"
);
},
{
closed = 1;
nodes = (
"249 692 OFFCURVE",
"328 602 OFFCURVE",
"328 375.5 CURVE SMOOTH",
"328 231 OFFCURVE",
"294 8 OFFCURVE",
"185 8 CURVE",
"185 0 LINE",
"305 0 OFFCURVE",
"433 65 OFFCURVE",
"433 375.5 CURVE SMOOTH",
"433 602 OFFCURVE",
"359 700 OFFCURVE",
"218 700 CURVE SMOOTH",
"185 700 LINE",
"185 692 LINE"
);
}
);
width = 448;
},
{
anchors = (
{
name = bottom;
position = "{229, 0}";
},
{
name = center;
position = "{229, 350}";
},
{
name = top;
position = "{214, 700}";
}
);
components = (
{
name = _part.stem;
transform = "{1, 0, 0, 1, -10, 0}";
},
{
name = _part.shortserif;
transform = "{1, 0, 0, 1, -10, 0}";
},
{
name = _part.shortserif;
transform = "{1, 0, 0, 1, -10, -672}";
}
);
layerId = "1CDF7AA2-9B9F-46E0-8866-C4919D639C4C";
paths = (
{
closed = 1;
nodes = (
"470 350 LINE",
"470 526 OFFCURVE",
"377 700 OFFCURVE",
"214 700 CURVE SMOOTH",
"163.5 700 LINE",
"163.5 672 LINE",
"214 672 LINE SMOOTH",
"303.5 672 OFFCURVE",
"360 555 OFFCURVE",
"360 350 CURVE"
);
},
{
closed = 1;
nodes = (
"214 0 LINE SMOOTH",
"377 0 OFFCURVE",
"470 184 OFFCURVE",
"470 350 CURVE",
"360 350 LINE",
"360 145 OFFCURVE",
"303.5 28 OFFCURVE",
"214 28 CURVE SMOOTH",
"163.5 28 LINE",
"163.5 0 LINE"
);
}
);
width = 505;
},
{
anchors = (
{
name = bottom;
position = "{229, 0}";
},
{
name = center;
position = "{229, 350}";
},
{
name = top;
position = "{229, 700}";
}
);
associatedMasterId = "1CDF7AA2-9B9F-46E0-8866-C4919D639C4C";
layerId = "9E1AF784-9EE6-4A6E-876D-2BF36EBC14DA";
name = "Jun 14 20, 16:38";
paths = (
{
closed = 1;
nodes = (
"135 0 LINE",
"135 8 LINE",
"25 8 LINE",
"25 0 LINE"
);
},
{
closed = 1;
nodes = (
"185 0 LINE",
"185 700 LINE",
"85 700 LINE",
"85 0 LINE"
);
},
{
closed = 1;
nodes = (
"135 692 LINE",
"135 700 LINE",
"25 700 LINE",
"25 692 LINE"
);
},
{
closed = 1;
nodes = (
"249 692 OFFCURVE",
"328 602 OFFCURVE",
"328 375.5 CURVE SMOOTH",
"328 231 OFFCURVE",
"294 8 OFFCURVE",
"185 8 CURVE",
"185 0 LINE",
"305 0 OFFCURVE",
"433 65 OFFCURVE",
"433 375.5 CURVE SMOOTH",
"433 602 OFFCURVE",
"359 700 OFFCURVE",
"218 700 CURVE SMOOTH",
"185 700 LINE",
"185 692 LINE"
);
}
);
width = 448;
},
{
anchors = (
{
name = bottom;
position = "{230, 0}";
},
{
name = center;
position = "{230, 350}";
},
{
name = top;
position = "{215, 700}";
}
);
components = (
{
name = _part.stem;
transform = "{1, 0, 0, 1, -9, 0}";
},
{
name = _part.shortserif;
transform = "{1, 0, 0, 1, -9, 0}";
},
{
name = _part.shortserif;
transform = "{1, 0, 0, 1, -9, -670}";
}
);
layerId = "BEE1AFF0-4415-4363-825D-BBA98FF62E65";
paths = (
{
closed = 1;
nodes = (
"471 350 LINE",
"471 526 OFFCURVE",
"378 700 OFFCURVE",
"215 700 CURVE SMOOTH",
"164.5 700 LINE",
"164.5 670 LINE",
"215 670 LINE SMOOTH",
"304.5 670 OFFCURVE",
"361 555 OFFCURVE",
"361 350 CURVE"
);
},
{
closed = 1;
nodes = (
"215 0 LINE SMOOTH",
"378 0 OFFCURVE",
"471 184 OFFCURVE",
"471 350 CURVE",
"361 350 LINE",
"361 145 OFFCURVE",
"304.5 30 OFFCURVE",
"215 30 CURVE SMOOTH",
"164.5 30 LINE",
"164.5 0 LINE"
);
}
);
width = 508;
},
{
anchors = (
{
name = bottom;
position = "{217, 0}";
},
{
name = center;
position = "{217, 350}";
},
{
name = top;
position = "{202, 700}";
}
);
components = (
{
name = _part.stem;
transform = "{1, 0, 0, 1, -22, 0}";
},
{
name = _part.shortserif;
transform = "{1, 0, 0, 1, -22, 0}";
},
{
name = _part.shortserif;
transform = "{1, 0, 0, 1, -22, -696}";
}
);
layerId = "09961995-7511-4D97-AA69-D4CC820B8978";
paths = (
{
closed = 1;
nodes = (
"453 350 LINE",
"453 526 OFFCURVE",
"360 700 OFFCURVE",
"202 700 CURVE SMOOTH",
"151.5 700 LINE",
"151.5 696 LINE",
"202 696 LINE SMOOTH",
"286.5 696 OFFCURVE",
"343 555 OFFCURVE",
"343 350 CURVE"
);
},
{
closed = 1;
nodes = (
"202 0 LINE SMOOTH",
"360 0 OFFCURVE",
"453 184 OFFCURVE",
"453 350 CURVE",
"343 350 LINE",
"343 145 OFFCURVE",
"286.5 4 OFFCURVE",
"202 4 CURVE SMOOTH",
"151.5 4 LINE",
"151.5 0 LINE"
);
}
);
width = 463;
}
);
leftKerningGroup = H;
leftMetricsKey = H;
rightKerningGroup = O;
rightMetricsKey = O;
unicode = "0044,0064";
},
{
color = 4;
glyphname = Eth;
lastChange = "2020-11-05 18:40:26 +0000";
layers = (
{
backgroundImage = {
crop = "{{0, 0}, {64.08, 95.76}}";
imagePath = "../../Documents/PERSONAL TYPEFACES/PERSONAL TYPEFACES/_PICAFLOR/_scans lettres 01 /DE.jpg";
locked = "1";
transform = "{9.7962, 0, 0, 9.7962, -33, -114.5}";
};
components = (
{
name = _part.stem;
transform = "{1, 0, 0, 1, -20, 0}";
},
{
name = _part.shortserif;
transform = "{1, 0, 0, 1, -20, 0}";
},
{
name = _part.shortserif;
transform = "{1, 0, 0, 1, -20, -692}";
},
{
name = "_part.wavestroke-horizontal";
transform = "{1, 0, 0, 1, 115, 0}";
}
);
layerId = "C46E4D83-CAC2-4426-A09C-7F1020C0FA19";
paths = (
{
closed = 1;
nodes = (
"540 350 LINE",
"540 526 OFFCURVE",
"423 700 OFFCURVE",
"210 700 CURVE",
"153.5 700 LINE",
"153.5 692 LINE",
"210 692 LINE",
"342 692 OFFCURVE",
"430 558 OFFCURVE",
"430 350 CURVE"
);
},
{
closed = 1;
nodes = (
"210 0 LINE",
"423 0 OFFCURVE",
"540 184 OFFCURVE",
"540 350 CURVE",
"430 350 LINE",
"430 152 OFFCURVE",
"342 8 OFFCURVE",
"210 8 CURVE",
"153.5 8 LINE",
"153.5 0 LINE"
);
}
);
width = 555;
},
{
backgroundImage = {
crop = "{{0, 0}, {64.08, 95.76}}";
imagePath = "../../Documents/PERSONAL TYPEFACES/PERSONAL TYPEFACES/_PICAFLOR/_scans lettres 01 /DE.jpg";
locked = "1";
transform = "{9.7962, 0, 0, 9.7962, -13, -114.5}";
};
components = (
{
name = _part.stem;
transform = "{1, 0, 0, 1, -10, 0}";
},
{
name = _part.shortserif;
transform = "{1, 0, 0, 1, -10, 0}";
},
{
name = _part.shortserif;
transform = "{1, 0, 0, 1, -10, -672}";
},
{
name = "_part.wavestroke-horizontal";
transform = "{1, 0, 0, 1, 125, 0}";
}
);
layerId = "1CDF7AA2-9B9F-46E0-8866-C4919D639C4C";
paths = (
{
closed = 1;
nodes = (
"560 350 LINE",
"560 526 OFFCURVE",
"443 700 OFFCURVE",
"230 700 CURVE",
"173.5 700 LINE",
"173.5 672 LINE",
"230 672 LINE",
"362 672 OFFCURVE",
"450 558 OFFCURVE",
"450 350 CURVE"
);
},
{
closed = 1;
nodes = (
"230 0 LINE",
"443 0 OFFCURVE",
"560 184 OFFCURVE",
"560 350 CURVE",
"450 350 LINE",
"450 152 OFFCURVE",
"362 28 OFFCURVE",
"230 28 CURVE",
"173.5 28 LINE",
"173.5 0 LINE"
);
}
);
width = 595;
},
{
components = (
{
alignment = -1;
name = _part.stem;
transform = "{1, 0, 0, 1, -9, 0}";
},
{
alignment = -1;
name = _part.shortserif;
transform = "{1, 0, 0, 1, -9, 0}";
},
{
alignment = -1;
name = _part.shortserif;
transform = "{1, 0, 0, 1, -9, -670}";
},
{
alignment = -1;
name = "_part.wavestroke-horizontal";
transform = "{1, 0, 0, 1, 126, 0}";
}
);
layerId = "BEE1AFF0-4415-4363-825D-BBA98FF62E65";
paths = (
{
closed = 1;
nodes = (
"562 350 LINE",
"562 526 OFFCURVE",
"445 700 OFFCURVE",
"232 700 CURVE",
"175.5 700 LINE",
"175.5 670 LINE",
"232 670 LINE",
"364 670 OFFCURVE",
"452 558 OFFCURVE",
"452 350 CURVE"
);
},
{
closed = 1;
nodes = (
"232 0 LINE",
"445 0 OFFCURVE",
"562 184 OFFCURVE",
"562 350 CURVE",
"452 350 LINE",
"452 152 OFFCURVE",
"364 30 OFFCURVE",
"232 30 CURVE",
"175.5 30 LINE",
"175.5 0 LINE"
);
}
);
width = 599;
},
{
components = (
{
alignment = -1;
name = _part.stem;
transform = "{1, 0, 0, 1, -22, 0}";
},
{
alignment = -1;
name = _part.shortserif;
transform = "{1, 0, 0, 1, -22, 0}";
},
{
alignment = -1;
name = _part.shortserif;
transform = "{1, 0, 0, 1, -22, -696}";
},
{
alignment = -1;
name = "_part.wavestroke-horizontal";
transform = "{1, 0, 0, 1, 113, 0}";
}
);
layerId = "09961995-7511-4D97-AA69-D4CC820B8978";
paths = (
{
closed = 1;
nodes = (
"536 350 LINE",
"536 526 OFFCURVE",
"419 700 OFFCURVE",
"206 700 CURVE",
"149.5 700 LINE",
"149.5 696 LINE",
"206 696 LINE",
"338 696 OFFCURVE",
"426 558 OFFCURVE",
"426 350 CURVE"
);
},
{
closed = 1;
nodes = (
"206 0 LINE",
"419 0 OFFCURVE",
"536 184 OFFCURVE",
"536 350 CURVE",
"426 350 LINE",
"426 152 OFFCURVE",
"338 4 OFFCURVE",
"206 4 CURVE",
"149.5 4 LINE",
"149.5 0 LINE"
);
}
);
width = 546;
}
);
leftKerningGroup = H;
leftMetricsKey = H;
rightKerningGroup = O;
rightMetricsKey = O;
unicode = "00D0,00F0";
},
{
color = 4;
glyphname = E;
lastChange = "2021-01-11 14:32:59 +0000";
layers = (
{
anchors = (
{
name = bottom;
position = "{199, 0}";
},
{
name = ogonek;
position = "{299, 0}";
},
{
name = top;
position = "{212.5, 700}";
},
{
name = topleft;
position = "{0, 700}";
}
);
components = (
{
name = "_part.stem-serifs";
transform = "{1, 0, 0, 1, -20, 0}";
}
);
layerId = "C46E4D83-CAC2-4426-A09C-7F1020C0FA19";
paths = (
{
closed = 1;
nodes = (
"358 0 LINE",
"413 168 LINE",
"404 168 LINE",
"317 0 LINE"
);
},
{
closed = 1;
nodes = (
"341 0 LINE",
"341 8 LINE",
"205 8 LINE",
"205 0 LINE"
);
},
{
closed = 1;
nodes = (
"275 309 LINE",
"275 427 LINE",
"247 427 LINE",
"265 309 LINE"
);
},
{
closed = 1;
nodes = (
"275 419 LINE",
"275 427 LINE",
"165 427 LINE",
"165 419 LINE"
);
},
{
closed = 1;
nodes = (
"275 419 LINE",
"275 537 LINE",
"265 537 LINE",
"247 419 LINE"
);
},
{
closed = 1;
nodes = (
"383 532 LINE",
"358 700 LINE",
"317 700 LINE",
"374 532 LINE"
);
},
{
closed = 1;
nodes = (
"351 692 LINE",
"351 700 LINE",
"225 700 LINE",
"225 692 LINE"
);
}
);
width = 423;
},
{
anchors = (
{
name = bottom;
position = "{219, 0}";
},
{
name = ogonek;
position = "{319, 0}";
},
{
name = top;
position = "{232.5, 700}";
},
{
name = topleft;
position = "{20, 700}";
}
);
components = (
{
name = "_part.stem-serifs";
transform = "{1, 0, 0, 1, -10, 0}";
}
);
layerId = "1CDF7AA2-9B9F-46E0-8866-C4919D639C4C";
paths = (
{
closed = 1;
nodes = (
"378 0 LINE",
"433 168 LINE",
"415 168 LINE",
"328 0 LINE"
);
},
{
closed = 1;
nodes = (
"361 0 LINE",
"361 28 LINE",
"225 28 LINE",
"225 0 LINE"
);
},
{
closed = 1;
nodes = (
"310 309 LINE",
"310 427 LINE",
"268 427 LINE",
"291 309 LINE"
);
},
{
closed = 1;
nodes = (
"310 409 LINE",
"310 437 LINE",
"185 437 LINE",
"185 409 LINE"
);
},
{
closed = 1;
nodes = (
"310 419 LINE",
"310 537 LINE",
"291 537 LINE",
"268 419 LINE"
);
},
{
closed = 1;
nodes = (
"403 532 LINE",
"378 700 LINE",
"328 700 LINE",
"385 532 LINE"
);
},
{
closed = 1;
nodes = (
"371 672 LINE",
"371 700 LINE",
"245 700 LINE",
"245 672 LINE"
);
}
);
width = 463;
},
{
anchors = (
{
name = bottom;
position = "{221, 0}";
},
{
name = ogonek;
position = "{321, 0}";
},
{
name = top;
position = "{235, 700}";
},
{
name = topleft;
position = "{22, 700}";
}
);
components = (
{
alignment = -1;
name = "_part.stem-serifs";
transform = "{1, 0, 0, 1, -9, 0}";
}
);
layerId = "BEE1AFF0-4415-4363-825D-BBA98FF62E65";
paths = (
{
closed = 1;
nodes = (
"380 0 LINE",
"435 168 LINE",
"416 168 LINE",
"329 0 LINE"
);
},
{
closed = 1;
nodes = (
"363 0 LINE",
"363 30 LINE",
"227 30 LINE",
"227 0 LINE"
);
},
{
closed = 1;
nodes = (
"313.5 309 LINE",
"313.5 427 LINE",
"270 427 LINE",
"293.5 309 LINE"
);
},
{
closed = 1;
nodes = (
"313.5 408 LINE",
"313.5 438 LINE",
"187 438 LINE",
"187 408 LINE"
);
},
{
closed = 1;
nodes = (
"313.5 419 LINE",
"313.5 537 LINE",
"293.5 537 LINE",
"270 419 LINE"
);
},
{
closed = 1;
nodes = (
"405 532 LINE",
"380 700 LINE",
"329 700 LINE",
"386 532 LINE"
);
},
{
closed = 1;
nodes = (
"373 670 LINE",
"373 700 LINE",
"247 700 LINE",
"247 670 LINE"
);
}
);
width = 467;
},
{
anchors = (
{
name = bottom;
position = "{195, 0}";
},
{
name = ogonek;
position = "{295, 0}";
},
{
name = top;
position = "{209, 700}";
},
{
name = topleft;
position = "{-4, 700}";
}
);
components = (
{
alignment = -1;
name = "_part.stem-serifs";
transform = "{1, 0, 0, 1, -22, 0}";
}
);
layerId = "09961995-7511-4D97-AA69-D4CC820B8978";
paths = (
{
closed = 1;
nodes = (
"354 0 LINE",
"409 168 LINE",
"402 168 LINE",
"315 0 LINE"
);
},
{
closed = 1;
nodes = (
"337 0 LINE",
"337 4 LINE",
"201 4 LINE",
"201 0 LINE"
);
},
{
closed = 1;
nodes = (
"268 309 LINE",
"268 425 LINE",
"243 425 LINE",
"260 309 LINE"
);
},
{
closed = 1;
nodes = (
"268 421 LINE",
"268 425 LINE",
"161 425 LINE",
"161 421 LINE"
);
},
{
closed = 1;
nodes = (
"268 421 LINE",
"268 537 LINE",
"260 537 LINE",
"243 421 LINE"
);
},
{
closed = 1;
nodes = (
"379 532 LINE",
"354 700 LINE",
"315 700 LINE",
"372 532 LINE"
);
},
{
closed = 1;
nodes = (
"347 696 LINE",
"347 700 LINE",
"221 700 LINE",
"221 696 LINE"
);
}
);
width = 415;
}
);
leftKerningGroup = H;
leftMetricsKey = H;
rightKerningGroup = E;
unicode = "0045,0065";
},
{
color = 4;
glyphname = F;
lastChange = "2021-01-11 14:31:47 +0000";
layers = (
{
anchors = (
{
name = bottom;
position = "{184, 0}";
},
{
name = top;
position = "{184, 700}";
}
);
components = (
{
name = "_part.stem-serifs";
transform = "{1, 0, 0, 1, -20, 0}";
},
{
name = _part.longserif;
transform = "{-1, 0, 0, -1, 280, 700}";
}
);
layerId = "C46E4D83-CAC2-4426-A09C-7F1020C0FA19";
paths = (
{
closed = 1;
nodes = (
"383 532 LINE",
"358 700 LINE",
"317 700 LINE",
"374 532 LINE"
);
},
{
closed = 1;
nodes = (
"275 259 LINE",
"275 377 LINE",
"247 377 LINE",
"265 259 LINE"
);
},
{
closed = 1;
nodes = (
"275 369 LINE",
"275 377 LINE",
"165 377 LINE",
"165 369 LINE"
);
},
{
closed = 1;
nodes = (
"275 369 LINE",
"275 487 LINE",
"265 487 LINE",
"247 369 LINE"
);
},
{
closed = 1;
nodes = (
"351 692 LINE",
"351 700 LINE",
"225 700 LINE",
"225 692 LINE"
);
}
);
width = 393;
},
{
associatedMasterId = "C46E4D83-CAC2-4426-A09C-7F1020C0FA19";
components = (
{
name = "_part.stem-serifs";
}
);
layerId = "A3185DED-71A5-4460-B905-9E6050CF73FF";
name = "Jun 10 20, 09:13";
paths = (
{
closed = 1;
nodes = (
"295 253 LINE",
"295 371 LINE",
"267 371 LINE",
"285 253 LINE"
);
},
{
closed = 1;
nodes = (
"295 363 LINE",
"295 371 LINE",
"185 371 LINE",
"185 363 LINE"
);
},
{
closed = 1;
nodes = (
"295 363 LINE",
"295 481 LINE",
"285 481 LINE",
"267 363 LINE"
);
},
{
closed = 1;
nodes = (
"371 692 LINE",
"371 700 LINE",
"245 700 LINE",
"245 692 LINE"
);
},
{
closed = 1;
nodes = (
"394 532 LINE",
"403 532 LINE",
"378 700 LINE",
"337 700 LINE"
);
},
{
closed = 1;
nodes = (
"95 0 LINE",
"315 0 LINE",
"315 8 LINE",
"95 8 LINE"
);
}
);
width = 408;
},
{
associatedMasterId = "C46E4D83-CAC2-4426-A09C-7F1020C0FA19";
components = (
{
name = "_part.stem-serifs";
}
);
layerId = "B720C6FF-877E-4AE2-B48A-85310DC2AA74";
name = "Jun 10 20, 09:15";
paths = (
{
closed = 1;
nodes = (
"295 253 LINE",
"295 371 LINE",
"267 371 LINE",
"285 253 LINE"
);
},
{
closed = 1;
nodes = (
"295 363 LINE",
"295 371 LINE",
"185 371 LINE",
"185 363 LINE"
);
},
{
closed = 1;
nodes = (
"295 363 LINE",
"295 481 LINE",
"285 481 LINE",
"267 363 LINE"
);
},
{
closed = 1;
nodes = (
"371 692 LINE",
"371 700 LINE",
"245 700 LINE",
"245 692 LINE"
);
},
{
closed = 1;
nodes = (
"328 692 OFFCURVE",
"333 689 OFFCURVE",
"338 675 CURVE SMOOTH",
"387 532 LINE",
"396 532 LINE",
"371 700 LINE",
"308 692 LINE",
"321 692 LINE SMOOTH"
);
},
{
closed = 1;
nodes = (
"95 0 LINE",
"315 0 LINE",
"315 8 LINE",
"95 8 LINE"
);
}
);
width = 408;
},
{
anchors = (
{
name = bottom;
position = "{204, 0}";
},
{
name = top;
position = "{204, 700}";
}
);
components = (
{
name = "_part.stem-serifs";
transform = "{1, 0, 0, 1, -10, 0}";
},
{
name = _part.longserif;
transform = "{-1, 0, 0, -1, 310, 700}";
}
);
layerId = "1CDF7AA2-9B9F-46E0-8866-C4919D639C4C";
paths = (
{
closed = 1;
nodes = (
"403 532 LINE",
"378 700 LINE",
"328 700 LINE",
"385 532 LINE"
);
},
{
closed = 1;
nodes = (
"309 259 LINE",
"309 377 LINE",
"267 377 LINE",
"290 259 LINE"
);
},
{
closed = 1;
nodes = (
"309 359 LINE",
"309 387 LINE",
"185 387 LINE",
"185 359 LINE"
);
},
{
closed = 1;
nodes = (
"309 369 LINE",
"309 487 LINE",
"290 487 LINE",
"267 369 LINE"
);
},
{
closed = 1;
nodes = (
"371 672 LINE",
"371 700 LINE",
"245 700 LINE",
"245 672 LINE"
);
}
);
width = 433;
},
{
associatedMasterId = "1CDF7AA2-9B9F-46E0-8866-C4919D639C4C";
components = (
{
name = "_part.stem-serifs";
}
);
layerId = "E5A29F8F-4930-4BCE-A0ED-BDC6BBFBC1C6";
name = "Jun 10 20, 09:13";
paths = (
{
closed = 1;
nodes = (
"295 253 LINE",
"295 371 LINE",
"267 371 LINE",
"285 253 LINE"
);
},
{
closed = 1;
nodes = (
"295 363 LINE",
"295 371 LINE",
"185 371 LINE",
"185 363 LINE"
);
},
{
closed = 1;
nodes = (
"295 363 LINE",
"295 481 LINE",
"285 481 LINE",
"267 363 LINE"
);
},
{
closed = 1;
nodes = (
"371 692 LINE",
"371 700 LINE",
"245 700 LINE",
"245 692 LINE"
);
},
{
closed = 1;
nodes = (
"394 532 LINE",
"403 532 LINE",
"378 700 LINE",
"337 700 LINE"
);
},
{
closed = 1;
nodes = (
"95 0 LINE",
"315 0 LINE",
"315 8 LINE",
"95 8 LINE"
);
}
);
width = 408;
},
{
associatedMasterId = "1CDF7AA2-9B9F-46E0-8866-C4919D639C4C";
components = (
{
name = "_part.stem-serifs";
}
);
layerId = "C43A8F55-3AFD-4C1C-9BD6-22F8427284D8";
name = "Jun 10 20, 09:15";
paths = (
{
closed = 1;
nodes = (
"295 253 LINE",
"295 371 LINE",
"267 371 LINE",
"285 253 LINE"
);
},
{
closed = 1;
nodes = (
"295 363 LINE",
"295 371 LINE",
"185 371 LINE",
"185 363 LINE"
);
},
{
closed = 1;
nodes = (
"295 363 LINE",
"295 481 LINE",
"285 481 LINE",
"267 363 LINE"
);
},
{
closed = 1;
nodes = (
"371 692 LINE",
"371 700 LINE",
"245 700 LINE",
"245 692 LINE"
);
},
{
closed = 1;
nodes = (
"328 692 OFFCURVE",
"333 689 OFFCURVE",
"338 675 CURVE SMOOTH",
"387 532 LINE",
"396 532 LINE",
"371 700 LINE",
"308 692 LINE",
"321 692 LINE SMOOTH"
);
},
{
closed = 1;
nodes = (
"95 0 LINE",
"315 0 LINE",
"315 8 LINE",
"95 8 LINE"
);
}
);
width = 408;
},
{
anchors = (
{
name = bottom;
position = "{206, 0}";
},
{
name = top;
position = "{206, 700}";
}
);
components = (
{
alignment = -1;
name = "_part.stem-serifs";
transform = "{1, 0, 0, 1, -9, 0}";
},
{
alignment = -1;
name = _part.longserif;
transform = "{-1, 0, 0, -1, 315, 700}";
}
);
layerId = "BEE1AFF0-4415-4363-825D-BBA98FF62E65";
paths = (
{
closed = 1;
nodes = (
"405 532 LINE",
"380 700 LINE",
"329 700 LINE",
"386 532 LINE"
);
},
{
closed = 1;
nodes = (
"312.5 259 LINE",
"312.5 377 LINE",
"269 377 LINE",
"292.5 259 LINE"
);
},
{
closed = 1;
nodes = (
"312.5 358 LINE",
"312.5 388 LINE",
"187 388 LINE",
"187 358 LINE"
);
},
{
closed = 1;
nodes = (
"312.5 369 LINE",
"312.5 487 LINE",
"292.5 487 LINE",
"269 369 LINE"
);
},
{
closed = 1;
nodes = (
"373 670 LINE",
"373 700 LINE",
"247 700 LINE",
"247 670 LINE"
);
}
);
width = 437;
},
{
anchors = (
{
name = bottom;
position = "{180, 0}";
},
{
name = top;
position = "{180, 700}";
}
);
components = (
{
alignment = -1;
name = "_part.stem-serifs";
transform = "{1, 0, 0, 1, -22, 0}";
},
{
alignment = -1;
name = _part.longserif;
transform = "{-1, 0, 0, -1, 270, 700}";
}
);
layerId = "09961995-7511-4D97-AA69-D4CC820B8978";
paths = (
{
closed = 1;
nodes = (
"379 532 LINE",
"354 700 LINE",
"315 700 LINE",
"372 532 LINE"
);
},
{
closed = 1;
nodes = (
"268 259 LINE",
"268 375 LINE",
"243 375 LINE",
"260 259 LINE"
);
},
{
closed = 1;
nodes = (
"268 371 LINE",
"268 375 LINE",
"161 375 LINE",
"161 371 LINE"
);
},
{
closed = 1;
nodes = (
"268 371 LINE",
"268 487 LINE",
"260 487 LINE",
"243 371 LINE"
);
},
{
closed = 1;
nodes = (
"347 696 LINE",
"347 700 LINE",
"221 700 LINE",
"221 696 LINE"
);
}
);
width = 385;
}
);
leftKerningGroup = H;
leftMetricsKey = H;
rightKerningGroup = F;
rightMetricsKey = E;
unicode = "0046,0066";
},
{
color = 4;
glyphname = G;
lastChange = "2020-11-05 18:40:28 +0000";
layers = (
{
anchors = (
{
name = bottom;
position = "{250, 0}";
},
{
name = top;
position = "{250, 708}";
}
);
components = (
{
name = _part.longserif;
transform = "{1, 0, 0, 1, 245, -273}";
},
{
name = _part.longserif;
transform = "{1, 0, 0, 1, 185, -273}";
}
);
guideLines = (
{
angle = 90;
position = "{220, 427}";
},
{
position = "{504, -15}";
},
{
angle = 90;
position = "{339, 477}";
}
);
layerId = "C46E4D83-CAC2-4426-A09C-7F1020C0FA19";
paths = (
{
closed = 1;
nodes = (
"259 0 LINE",
"182 0 OFFCURVE",
"125 142 OFFCURVE",
"125 350 CURVE",
"15 350 LINE",
"15 174 OFFCURVE",
"101 -8 OFFCURVE",
"259 -8 CURVE"
);
},
{
closed = 1;
nodes = (
"324 -8 OFFCURVE",
"342 30.5 OFFCURVE",
"390 30.5 CURVE SMOOTH",
"412.5 30.5 OFFCURVE",
"431 20.5 OFFCURVE",
"431 0 CURVE",
"439 0 LINE",
"439 427 LINE",
"339 427 LINE",
"339 61.5 LINE SMOOTH",
"339 31.5 OFFCURVE",
"333 21.5 OFFCURVE",
"309.5 10 CURVE SMOOTH",
"296.5 4 OFFCURVE",
"276 0 OFFCURVE",
"259 0 CURVE",
"259 -8 LINE"
);
},
{
closed = 1;
nodes = (
"125 350 LINE",
"125 558 OFFCURVE",
"173 700 OFFCURVE",
"250 700 CURVE",
"250 708 LINE",
"92 708 OFFCURVE",
"15 526 OFFCURVE",
"15 350 CURVE"
);
},
{
closed = 1;
nodes = (
"345 477 LINE",
"412 703 LINE",
"404 705 LINE",
"394 679 OFFCURVE",
"385 667 OFFCURVE",
"369 667 CURVE SMOOTH",
"346 667 OFFCURVE",
"307 708 OFFCURVE",
"250 708 CURVE",
"250 700 LINE",
"336 700 OFFCURVE",
"351 609 OFFCURVE",
"342 510 CURVE SMOOTH",
"339 477 LINE"
);
}
);
width = 500;
},
{
associatedMasterId = "C46E4D83-CAC2-4426-A09C-7F1020C0FA19";
backgroundImage = {
crop = "{{0, 0}, {66.24, 85.68}}";
imagePath = "../../Documents/PERSONAL TYPEFACES/PERSONAL TYPEFACES/_FLORIA/_scans lettres 01 /G2.jpg";
locked = "1";
transform = "{9.865, 0, 0, 9.865, -34, -48}";
};
components = (
{
name = _part.longserif;
transform = "{1, 0, 0, 1, 305, -279}";
}
);
layerId = "6D4DA197-8FC0-4048-901E-E950BF966534";
name = "Jun 10 20, 10:29";
paths = (
{
closed = 1;
nodes = (
"500 -50 LINE",
"500 421 LINE",
"400 421 LINE",
"400 75 LINE",
"406 89 OFFCURVE",
"415 96 OFFCURVE",
"423 96 CURVE SMOOTH",
"454 96 OFFCURVE",
"492 21 OFFCURVE",
"492 -50 CURVE"
);
},
{
closed = 1;
nodes = (
"280 0 LINE",
"203 0 OFFCURVE",
"155 142 OFFCURVE",
"155 350 CURVE",
"45 350 LINE",
"45 174 OFFCURVE",
"122 -8 OFFCURVE",
"280 -8 CURVE"
);
},
{
closed = 1;
nodes = (
"354 -8 OFFCURVE",
"433 53 OFFCURVE",
"433 255 CURVE",
"425 255 LINE",
"425 57 OFFCURVE",
"350 0 OFFCURVE",
"280 0 CURVE",
"280 -8 LINE"
);
},
{
closed = 1;
nodes = (
"155 350 LINE",
"155 558 OFFCURVE",
"203 700 OFFCURVE",
"280 700 CURVE",
"280 708 LINE",
"122 708 OFFCURVE",
"45 526 OFFCURVE",
"45 350 CURVE"
);
},
{
closed = 1;
nodes = (
"425 307 LINE",
"425 189 LINE",
"453 189 LINE",
"435 307 LINE"
);
},
{
closed = 1;
nodes = (
"280 700 LINE",
"366 700 OFFCURVE",
"381 609 OFFCURVE",
"372 510 CURVE SMOOTH",
"369 477 LINE",
"375 477 LINE",
"442 703 LINE",
"434 705 LINE",
"424 679 OFFCURVE",
"415 667 OFFCURVE",
"399 667 CURVE SMOOTH",
"376 667 OFFCURVE",
"337 708 OFFCURVE",
"280 708 CURVE"
);
},
{
closed = 1;
nodes = (
"223 413 LINE",
"433 413 LINE",
"433 421 LINE",
"223 421 LINE"
);
}
);
width = 560;
},
{
associatedMasterId = "C46E4D83-CAC2-4426-A09C-7F1020C0FA19";
backgroundImage = {
crop = "{{0, 0}, {66.24, 85.68}}";
imagePath = "../../Documents/PERSONAL TYPEFACES/PERSONAL TYPEFACES/_FLORIA/_scans lettres 01 /G2.jpg";
locked = "1";
transform = "{9.865, 0, 0, 9.865, -34, -48}";
};
components = (
{
name = _part.longserif;
transform = "{1, 0, 0, 1, 305, -279}";
}
);
layerId = "2797AB8C-BDBF-401F-85F2-A3A0F1867587";
name = "Jun 10 20, 10:31";
paths = (
{
closed = 1;
nodes = (
"500 -50 LINE",
"500 421 LINE",
"400 421 LINE",
"400 75 LINE",
"406 89 OFFCURVE",
"415 96 OFFCURVE",
"423 96 CURVE SMOOTH",
"454 96 OFFCURVE",
"492 21 OFFCURVE",
"492 -50 CURVE"
);
},
{
closed = 1;
nodes = (
"280 0 LINE",
"203 0 OFFCURVE",
"155 142 OFFCURVE",
"155 350 CURVE",
"45 350 LINE",
"45 174 OFFCURVE",
"122 -8 OFFCURVE",
"280 -8 CURVE"
);
},
{
closed = 1;
nodes = (
"155 350 LINE",
"155 558 OFFCURVE",
"203 700 OFFCURVE",
"280 700 CURVE",
"280 708 LINE",
"122 708 OFFCURVE",
"45 526 OFFCURVE",
"45 350 CURVE"
);
},
{
closed = 1;
nodes = (
"425 307 LINE",
"425 189 LINE",
"453 189 LINE",
"435 307 LINE"
);
},
{
closed = 1;
nodes = (
"280 700 LINE",
"366 700 OFFCURVE",
"381 609 OFFCURVE",
"372 510 CURVE SMOOTH",
"369 477 LINE",
"375 477 LINE",
"442 703 LINE",
"434 705 LINE",
"424 679 OFFCURVE",
"415 667 OFFCURVE",
"399 667 CURVE SMOOTH",
"376 667 OFFCURVE",
"337 708 OFFCURVE",
"280 708 CURVE"
);
},
{
closed = 1;
nodes = (
"223 413 LINE",
"433 413 LINE",
"433 421 LINE",
"223 421 LINE"
);
},
{
closed = 1;
nodes = (
"428 0 OFFCURVE",
"457 80 OFFCURVE",
"457 150 CURVE",
"465 150 LINE",
"465 76 OFFCURVE",
"432 -8 OFFCURVE",
"280 -8 CURVE",
"280 0 LINE"
);
}
);
width = 560;
},
{
anchors = (
{
name = bottom;
position = "{280, 0}";
},
{
name = top;
position = "{280, 700}";
}
);
associatedMasterId = "C46E4D83-CAC2-4426-A09C-7F1020C0FA19";
backgroundImage = {
crop = "{{0, 0}, {66.24, 85.68}}";
imagePath = "../../Documents/PERSONAL TYPEFACES/PERSONAL TYPEFACES/_FLORIA/_scans lettres 01 /G2.jpg";
locked = "1";
transform = "{9.865, 0, 0, 9.865, -34, -48}";
};
components = (
{
name = _part.longserif;
transform = "{1, 0, 0, 1, 305, -279}";
}
);
guideLines = (
{
angle = 90;
position = "{203, 700}";
}
);
layerId = "8049F8A7-BF50-4EED-A52E-7180A4FCEFE4";
name = "Jun 10 20, 12:06";
paths = (
{
closed = 1;
nodes = (
"500 -50 LINE",
"500 421 LINE",
"400 421 LINE",
"400 18 LINE",
"419 32 OFFCURVE",
"437 47 OFFCURVE",
"445 47 CURVE SMOOTH",
"476 47 OFFCURVE",
"492 21 OFFCURVE",
"492 -50 CURVE"
);
},
{
closed = 1;
nodes = (
"320 0 LINE",
"203 0 OFFCURVE",
"155 142 OFFCURVE",
"155 350 CURVE",
"45 350 LINE",
"45 174 OFFCURVE",
"102 -8 OFFCURVE",
"320 -8 CURVE"
);
},
{
closed = 1;
nodes = (
"155 350 LINE",
"155 558 OFFCURVE",
"203 700 OFFCURVE",
"280 700 CURVE",
"280 708 LINE",
"122 708 OFFCURVE",
"45 526 OFFCURVE",
"45 350 CURVE"
);
},
{
closed = 1;
nodes = (
"425 307 LINE",
"425 189 LINE",
"453 189 LINE",
"435 307 LINE"
);
},
{
closed = 1;
nodes = (
"280 700 LINE",
"366 700 OFFCURVE",
"381 609 OFFCURVE",
"372 510 CURVE SMOOTH",
"369 477 LINE",
"375 477 LINE",
"442 703 LINE",
"434 705 LINE",
"424 679 OFFCURVE",
"415 667 OFFCURVE",
"399 667 CURVE SMOOTH",
"376 667 OFFCURVE",
"337 708 OFFCURVE",
"280 708 CURVE"
);
},
{
closed = 1;
nodes = (
"223 413 LINE",
"433 413 LINE",
"433 421 LINE",
"223 421 LINE"
);
},
{
closed = 1;
nodes = (
"320 -8 LINE",
"401 -8 OFFCURVE",
"455 55 OFFCURVE",
"455 150 CURVE",
"447 150 LINE",
"447 60 OFFCURVE",
"396 0 OFFCURVE",
"320 0 CURVE"
);
}
);
width = 560;
},
{
anchors = (
{
name = bottom;
position = "{280, 0}";
},
{
name = top;
position = "{280, 700}";
}
);
associatedMasterId = "C46E4D83-CAC2-4426-A09C-7F1020C0FA19";
backgroundImage = {
crop = "{{0, 0}, {66.24, 85.68}}";
imagePath = "../../Documents/PERSONAL TYPEFACES/PERSONAL TYPEFACES/_FLORIA/_scans lettres 01 /G2.jpg";
locked = "1";
transform = "{9.865, 0, 0, 9.865, -34, -48}";
};
components = (
{
name = _part.longserif;
transform = "{1, 0, 0, 1, 305, -279}";
}
);
guideLines = (
{
angle = 90;
position = "{203, 700}";
},
{
position = "{534, -15}";
}
);
layerId = "20591E04-F20C-4241-A562-3E2CF06C5B80";
name = "Jun 10 20, 12:07";
paths = (
{
closed = 1;
nodes = (
"500 -15 LINE",
"500 421 LINE",
"400 421 LINE",
"400 18.5 LINE",
"420 33.5 OFFCURVE",
"436 47.5 OFFCURVE",
"451.5 47.5 CURVE SMOOTH",
"473.5 47.5 OFFCURVE",
"492 18.5 OFFCURVE",
"492 -15 CURVE"
);
},
{
closed = 1;
nodes = (
"320 0 LINE",
"203 0 OFFCURVE",
"155 142 OFFCURVE",
"155 350 CURVE",
"45 350 LINE",
"45 174 OFFCURVE",
"102 -8 OFFCURVE",
"320 -8 CURVE"
);
},
{
closed = 1;
nodes = (
"155 350 LINE",
"155 558 OFFCURVE",
"203 700 OFFCURVE",
"280 700 CURVE",
"280 708 LINE",
"122 708 OFFCURVE",
"45 526 OFFCURVE",
"45 350 CURVE"
);
},
{
closed = 1;
nodes = (
"425 307 LINE",
"425 189 LINE",
"453 189 LINE",
"435 307 LINE"
);
},
{
closed = 1;
nodes = (
"280 700 LINE",
"366 700 OFFCURVE",
"381 609 OFFCURVE",
"372 510 CURVE SMOOTH",
"369 477 LINE",
"375 477 LINE",
"442 703 LINE",
"434 705 LINE",
"424 679 OFFCURVE",
"415 667 OFFCURVE",
"399 667 CURVE SMOOTH",
"376 667 OFFCURVE",
"337 708 OFFCURVE",
"280 708 CURVE"
);
},
{
closed = 1;
nodes = (
"223 413 LINE",
"433 413 LINE",
"433 421 LINE",
"223 421 LINE"
);
},
{
closed = 1;
nodes = (
"320 -8 LINE",
"401 -8 OFFCURVE",
"455 55 OFFCURVE",
"455 150 CURVE",
"447 150 LINE",
"447 60 OFFCURVE",
"396 0 OFFCURVE",
"320 0 CURVE"
);
}
);
width = 560;
},
{
anchors = (
{
name = bottom;
position = "{250, 0}";
},
{
name = top;
position = "{250, 700}";
}
);
associatedMasterId = "C46E4D83-CAC2-4426-A09C-7F1020C0FA19";
backgroundImage = {
crop = "{{0, 0}, {115, 155.76}}";
imagePath = "../../Documents/PERSONAL TYPEFACES/PERSONAL TYPEFACES/_PICAFLOR/G-correction.jpg";
locked = "1";
transform = "{5.02977, 0, 0, 5.02977, -23, -47.5}";
};
components = (
{
name = _part.longserif;
transform = "{1, 0, 0, 1, 275, -279}";
}
);
guideLines = (
{
angle = 90;
position = "{173, 700}";
},
{
position = "{504, -15}";
}
);
layerId = "8083A2E4-995E-45AE-A09D-8BFB7A0CA385";
name = "Jun 11 20, 21:06";
paths = (
{
closed = 1;
nodes = (
"470 -10 LINE",
"470 421 LINE",
"370 421 LINE",
"370 23.5 LINE",
"390 38.5 OFFCURVE",
"406 52.5 OFFCURVE",
"421.5 52.5 CURVE SMOOTH",
"443.5 52.5 OFFCURVE",
"462 23.5 OFFCURVE",
"462 -10 CURVE"
);
},
{
closed = 1;
nodes = (
"290 0 LINE",
"173 0 OFFCURVE",
"125 142 OFFCURVE",
"125 350 CURVE",
"15 350 LINE",
"15 174 OFFCURVE",
"72 -8 OFFCURVE",
"290 -8 CURVE"
);
},
{
closed = 1;
nodes = (
"125 350 LINE",
"125 558 OFFCURVE",
"173 700 OFFCURVE",
"250 700 CURVE",
"250 708 LINE",
"92 708 OFFCURVE",
"15 526 OFFCURVE",
"15 350 CURVE"
);
},
{
closed = 1;
nodes = (
"395 307 LINE",
"395 189 LINE",
"423 189 LINE",
"405 307 LINE"
);
},
{
closed = 1;
nodes = (
"250 700 LINE",
"336 700 OFFCURVE",
"351 609 OFFCURVE",
"342 510 CURVE SMOOTH",
"339 477 LINE",
"345 477 LINE",
"412 703 LINE",
"404 705 LINE",
"394 679 OFFCURVE",
"385 667 OFFCURVE",
"369 667 CURVE SMOOTH",
"346 667 OFFCURVE",
"307 708 OFFCURVE",
"250 708 CURVE"
);
},
{
closed = 1;
nodes = (
"193 413 LINE",
"403 413 LINE",
"403 421 LINE",
"193 421 LINE"
);
},
{
closed = 1;
nodes = (
"290 -8 LINE",
"371 -8 OFFCURVE",
"425 70 OFFCURVE",
"425 165 CURVE",
"417 165 LINE",
"417 75 OFFCURVE",
"366 0 OFFCURVE",
"290 0 CURVE"
);
},
{
closed = 1;
nodes = (
"462 -15 LINE",
"470 -15 LINE",
"470 34 LINE",
"462 34 LINE"
);
}
);
width = 530;
},
{
anchors = (
{
name = bottom;
position = "{250, 0}";
},
{
name = top;
position = "{250, 700}";
}
);
associatedMasterId = "C46E4D83-CAC2-4426-A09C-7F1020C0FA19";
backgroundImage = {
crop = "{{0, 0}, {115, 155.76}}";
imagePath = "../../Documents/PERSONAL TYPEFACES/PERSONAL TYPEFACES/_PICAFLOR/G-correction.jpg";
locked = "1";
transform = "{4.99451, 0, 0, 4.99451, -17.5, -47}";
};
components = (
{
name = _part.longserif;
transform = "{1, 0, 0, 1, 275, -279}";
}
);
guideLines = (
{
angle = 90;
position = "{173, 700}";
},
{
position = "{504, -15}";
}
);
layerId = "82B833A7-7E97-4552-9567-60AFF5DBB7C9";
name = "Jun 11 20, 21:09";
paths = (
{
closed = 1;
nodes = (
"470 0 LINE",
"470 421 LINE",
"370 421 LINE",
"370 13.5 LINE",
"385 25 OFFCURVE",
"404 30.5 OFFCURVE",
"421 30.5 CURVE SMOOTH",
"443.5 30.5 OFFCURVE",
"462 20.5 OFFCURVE",
"462 0 CURVE"
);
},
{
closed = 1;
nodes = (
"290 0 LINE",
"173 0 OFFCURVE",
"125 142 OFFCURVE",
"125 350 CURVE",
"15 350 LINE",
"15 174 OFFCURVE",
"72 -8 OFFCURVE",
"290 -8 CURVE"
);
},
{
closed = 1;
nodes = (
"125 350 LINE",
"125 558 OFFCURVE",
"173 700 OFFCURVE",
"250 700 CURVE",
"250 708 LINE",
"92 708 OFFCURVE",
"15 526 OFFCURVE",
"15 350 CURVE"
);
},
{
closed = 1;
nodes = (
"395 307 LINE",
"395 189 LINE",
"423 189 LINE",
"405 307 LINE"
);
},
{
closed = 1;
nodes = (
"250 700 LINE",
"336 700 OFFCURVE",
"351 609 OFFCURVE",
"342 510 CURVE SMOOTH",
"339 477 LINE",
"345 477 LINE",
"412 703 LINE",
"404 705 LINE",
"394 679 OFFCURVE",
"385 667 OFFCURVE",
"369 667 CURVE SMOOTH",
"346 667 OFFCURVE",
"307 708 OFFCURVE",
"250 708 CURVE"
);
},
{
closed = 1;
nodes = (
"193 413 LINE",
"403 413 LINE",
"403 421 LINE",
"193 421 LINE"
);
},
{
closed = 1;
nodes = (
"368 30.5 OFFCURVE",
"360.5 24.5 OFFCURVE",
"348 16.5 CURVE SMOOTH",
"331 6 OFFCURVE",
"311.5 0 OFFCURVE",
"290 0 CURVE",
"290 -8 LINE",
"316.5 -8 OFFCURVE",
"349 -0.5 OFFCURVE",
"370 13.5 CURVE",
"389 44.5 LINE",
"370 48.5 LINE"
);
}
);
width = 530;
},
{
anchors = (
{
name = bottom;
position = "{250, 0}";
},
{
name = top;
position = "{250, 700}";
}
);
associatedMasterId = "C46E4D83-CAC2-4426-A09C-7F1020C0FA19";
backgroundImage = {
crop = "{{0, 0}, {115, 155.76}}";
imagePath = "../../Documents/PERSONAL TYPEFACES/PERSONAL TYPEFACES/_PICAFLOR/G-correction.jpg";
locked = "1";
transform = "{4.99451, 0, 0, 4.99451, -17.5, -47}";
};
components = (
{
name = _part.longserif;
transform = "{1, 0, 0, 1, 275, -279}";
}
);
guideLines = (
{
angle = 90;
position = "{173, 700}";
},
{
position = "{504, -15}";
}
);
layerId = "92A79637-E9D0-4DDB-93D1-0A2E8FFA8D64";
name = "Jun 12 20, 00:16";
paths = (
{
closed = 1;
nodes = (
"290 0 LINE",
"173 0 OFFCURVE",
"125 142 OFFCURVE",
"125 350 CURVE",
"15 350 LINE",
"15 174 OFFCURVE",
"72 -8 OFFCURVE",
"290 -8 CURVE"
);
},
{
closed = 1;
nodes = (
"125 350 LINE",
"125 558 OFFCURVE",
"173 700 OFFCURVE",
"250 700 CURVE",
"250 708 LINE",
"92 708 OFFCURVE",
"15 526 OFFCURVE",
"15 350 CURVE"
);
},
{
closed = 1;
nodes = (
"395 307 LINE",
"395 189 LINE",
"423 189 LINE",
"405 307 LINE"
);
},
{
closed = 1;
nodes = (
"250 700 LINE",
"336 700 OFFCURVE",
"351 609 OFFCURVE",
"342 510 CURVE SMOOTH",
"339 477 LINE",
"345 477 LINE",
"412 703 LINE",
"404 705 LINE",
"394 679 OFFCURVE",
"385 667 OFFCURVE",
"369 667 CURVE SMOOTH",
"346 667 OFFCURVE",
"307 708 OFFCURVE",
"250 708 CURVE"
);
},
{
closed = 1;
nodes = (
"193 413 LINE",
"403 413 LINE",
"403 421 LINE",
"193 421 LINE"
);
},
{
closed = 1;
nodes = (
"355 -8 OFFCURVE",
"373 30.5 OFFCURVE",
"421 30.5 CURVE SMOOTH",
"443.5 30.5 OFFCURVE",
"462 20.5 OFFCURVE",
"462 0 CURVE",
"470 0 LINE",
"470 421 LINE",
"370 421 LINE",
"370 61.5 LINE SMOOTH",
"370 33 OFFCURVE",
"364.5 20.5 OFFCURVE",
"340.5 10 CURVE SMOOTH",
"325.5 3.5 OFFCURVE",
"309 0 OFFCURVE",
"290 0 CURVE",
"290 -8 LINE"
);
}
);
width = 530;
},
{
anchors = (
{
name = bottom;
position = "{250, 0}";
},
{
name = top;
position = "{250, 700}";
}
);
associatedMasterId = "C46E4D83-CAC2-4426-A09C-7F1020C0FA19";
backgroundImage = {
crop = "{{0, 0}, {115, 155.76}}";
imagePath = "../../Documents/PERSONAL TYPEFACES/PERSONAL TYPEFACES/_PICAFLOR/G-correction.jpg";
locked = "1";
transform = "{4.99451, 0, 0, 4.99451, -17.5, -47}";
};
components = (
{
name = _part.longserif;
transform = "{1, 0, 0, 1, 220, -279}";
}
);
guideLines = (
{
angle = 90;
position = "{173, 700}";
},
{
position = "{504, -15}";
}
);
layerId = "7F455B65-ECF6-495E-91EB-0B844EEC0CF9";
name = "Jun 12 20, 00:19";
paths = (
{
closed = 1;
nodes = (
"125 350 LINE",
"125 558 OFFCURVE",
"173 700 OFFCURVE",
"250 700 CURVE",
"250 708 LINE",
"92 708 OFFCURVE",
"15 526 OFFCURVE",
"15 350 CURVE"
);
},
{
closed = 1;
nodes = (
"250 700 LINE",
"336 700 OFFCURVE",
"351 609 OFFCURVE",
"342 510 CURVE SMOOTH",
"339 477 LINE",
"345 477 LINE",
"412 703 LINE",
"404 705 LINE",
"394 679 OFFCURVE",
"385 667 OFFCURVE",
"369 667 CURVE SMOOTH",
"346 667 OFFCURVE",
"307 708 OFFCURVE",
"250 708 CURVE"
);
},
{
closed = 1;
nodes = (
"196 413 LINE",
"306 413 LINE",
"306 421 LINE",
"196 421 LINE"
);
},
{
closed = 1;
nodes = (
"300 -8 OFFCURVE",
"318 30.5 OFFCURVE",
"366 30.5 CURVE SMOOTH",
"388.5 30.5 OFFCURVE",
"407 20.5 OFFCURVE",
"407 0 CURVE",
"415 0 LINE",
"415 421 LINE",
"315 421 LINE",
"315 61.5 LINE SMOOTH",
"315 33 OFFCURVE",
"309.5 20.5 OFFCURVE",
"285.5 10 CURVE SMOOTH",
"270.5 3.5 OFFCURVE",
"254 0 OFFCURVE",
"235 0 CURVE",
"235 -8 LINE"
);
},
{
closed = 1;
nodes = (
"235 0 LINE",
"158 0 OFFCURVE",
"125 142 OFFCURVE",
"125 350 CURVE",
"15 350 LINE",
"15 174 OFFCURVE",
"77 -8 OFFCURVE",
"235 -8 CURVE"
);
}
);
width = 475;
},
{
anchors = (
{
name = bottom;
position = "{250, 0}";
},
{
name = top;
position = "{250, 708}";
}
);
associatedMasterId = "C46E4D83-CAC2-4426-A09C-7F1020C0FA19";
components = (
{
name = _part.longserif;
transform = "{1, 0, 0, 1, 245, -273}";
}
);
guideLines = (
{
angle = 90;
position = "{173, 700}";
},
{
position = "{504, -15}";
},
{
angle = 90;
position = "{339, 477}";
}
);
layerId = "53D4704F-2676-499A-BFC5-6315DE5BCFB7";
name = "Aug 31 20, 16:54";
paths = (
{
closed = 1;
nodes = (
"259 0 LINE",
"182 0 OFFCURVE",
"125 142 OFFCURVE",
"125 350 CURVE",
"15 350 LINE",
"15 174 OFFCURVE",
"101 -8 OFFCURVE",
"259 -8 CURVE"
);
},
{
closed = 1;
nodes = (
"324 -8 OFFCURVE",
"342 30.5 OFFCURVE",
"390 30.5 CURVE SMOOTH",
"412.5 30.5 OFFCURVE",
"431 20.5 OFFCURVE",
"431 0 CURVE",
"439 0 LINE",
"439 427 LINE",
"339 427 LINE",
"339 61.5 LINE SMOOTH",
"339 31.5 OFFCURVE",
"333 21.5 OFFCURVE",
"309.5 10 CURVE SMOOTH",
"296.5 4 OFFCURVE",
"276 0 OFFCURVE",
"259 0 CURVE",
"259 -8 LINE"
);
},
{
closed = 1;
nodes = (
"125 350 LINE",
"125 558 OFFCURVE",
"173 700 OFFCURVE",
"250 700 CURVE",
"250 708 LINE",
"92 708 OFFCURVE",
"15 526 OFFCURVE",
"15 350 CURVE"
);
},
{
closed = 1;
nodes = (
"330 419 LINE",
"330 427 LINE",
"220 427 LINE",
"220 419 LINE"
);
},
{
closed = 1;
nodes = (
"345 477 LINE",
"412 703 LINE",
"404 705 LINE",
"394 679 OFFCURVE",
"385 667 OFFCURVE",
"369 667 CURVE SMOOTH",
"346 667 OFFCURVE",
"307 708 OFFCURVE",
"250 708 CURVE",
"250 700 LINE",
"336 700 OFFCURVE",
"351 609 OFFCURVE",
"342 510 CURVE SMOOTH",
"339 477 LINE"
);
}
);
width = 500;
},
{
anchors = (
{
name = bottom;
position = "{270, 0}";
},
{
name = top;
position = "{270, 708}";
}
);
components = (
{
name = _part.longserif;
transform = "{1, 0, 0, 1, 255, -273}";
},
{
name = _part.longserif;
transform = "{1, 0, 0, 1, 195, -273}";
}
);
guideLines = (
{
angle = 90;
position = "{210, 427}";
},
{
position = "{494, -15}";
},
{
angle = 90;
position = "{329, 477}";
}
);
layerId = "1CDF7AA2-9B9F-46E0-8866-C4919D639C4C";
paths = (
{
closed = 1;
nodes = (
"279 20 LINE",
"202 20 OFFCURVE",
"145 142 OFFCURVE",
"145 350 CURVE",
"35 350 LINE",
"35 174 OFFCURVE",
"121 -8 OFFCURVE",
"279 -8 CURVE"
);
},
{
closed = 1;
nodes = (
"354 -8 OFFCURVE",
"357 30.5 OFFCURVE",
"405 30.5 CURVE SMOOTH",
"427.5 30.5 OFFCURVE",
"441 20.5 OFFCURVE",
"441 0 CURVE",
"459 0 LINE",
"459 427 LINE",
"359 427 LINE",
"359 81.5 LINE SMOOTH",
"359 62.5 OFFCURVE",
"350.5 47 OFFCURVE",
"336 36.5 CURVE SMOOTH",
"322.5 26 OFFCURVE",
"302.5 20 OFFCURVE",
"279 20 CURVE",
"279 -8 LINE"
);
},
{
closed = 1;
nodes = (
"145 350 LINE",
"145 558 OFFCURVE",
"193 680 OFFCURVE",
"270 680 CURVE",
"270 708 LINE",
"112 708 OFFCURVE",
"35 526 OFFCURVE",
"35 350 CURVE"
);
},
{
closed = 1;
nodes = (
"375 477 LINE",
"442 703 LINE",
"424 705 LINE",
"414 679 OFFCURVE",
"405 667 OFFCURVE",
"389 667 CURVE SMOOTH",
"366 667 OFFCURVE",
"327 708 OFFCURVE",
"270 708 CURVE",
"270 680 LINE",
"356 680 OFFCURVE",
"371 609 OFFCURVE",
"362 510 CURVE SMOOTH",
"359 477 LINE"
);
}
);
width = 540;
},
{
associatedMasterId = "1CDF7AA2-9B9F-46E0-8866-C4919D639C4C";
backgroundImage = {
crop = "{{0, 0}, {66.24, 85.68}}";
imagePath = "../../Documents/PERSONAL TYPEFACES/PERSONAL TYPEFACES/_FLORIA/_scans lettres 01 /G2.jpg";
locked = "1";
transform = "{9.865, 0, 0, 9.865, -34, -48}";
};
components = (
{
name = _part.longserif;
transform = "{1, 0, 0, 1, 305, -279}";
}
);
layerId = "7FDAE529-4DAF-4276-858D-56ED76D01145";
name = "Jun 10 20, 10:29";
paths = (
{
closed = 1;
nodes = (
"500 -50 LINE",
"500 421 LINE",
"400 421 LINE",
"400 75 LINE",
"406 89 OFFCURVE",
"415 96 OFFCURVE",
"423 96 CURVE SMOOTH",
"454 96 OFFCURVE",
"492 21 OFFCURVE",
"492 -50 CURVE"
);
},
{
closed = 1;
nodes = (
"280 0 LINE",
"203 0 OFFCURVE",
"155 142 OFFCURVE",
"155 350 CURVE",
"45 350 LINE",
"45 174 OFFCURVE",
"122 -8 OFFCURVE",
"280 -8 CURVE"
);
},
{
closed = 1;
nodes = (
"354 -8 OFFCURVE",
"433 53 OFFCURVE",
"433 255 CURVE",
"425 255 LINE",
"425 57 OFFCURVE",
"350 0 OFFCURVE",
"280 0 CURVE",
"280 -8 LINE"
);
},
{
closed = 1;
nodes = (
"155 350 LINE",
"155 558 OFFCURVE",
"203 700 OFFCURVE",
"280 700 CURVE",
"280 708 LINE",
"122 708 OFFCURVE",
"45 526 OFFCURVE",
"45 350 CURVE"
);
},
{
closed = 1;
nodes = (
"425 307 LINE",
"425 189 LINE",
"453 189 LINE",
"435 307 LINE"
);
},
{
closed = 1;
nodes = (
"280 700 LINE",
"366 700 OFFCURVE",
"381 609 OFFCURVE",
"372 510 CURVE SMOOTH",
"369 477 LINE",
"375 477 LINE",
"442 703 LINE",
"434 705 LINE",
"424 679 OFFCURVE",
"415 667 OFFCURVE",
"399 667 CURVE SMOOTH",
"376 667 OFFCURVE",
"337 708 OFFCURVE",
"280 708 CURVE"
);
},
{
closed = 1;
nodes = (
"223 413 LINE",
"433 413 LINE",
"433 421 LINE",
"223 421 LINE"
);
}
);
width = 560;
},
{
associatedMasterId = "1CDF7AA2-9B9F-46E0-8866-C4919D639C4C";
backgroundImage = {
crop = "{{0, 0}, {66.24, 85.68}}";
imagePath = "../../Documents/PERSONAL TYPEFACES/PERSONAL TYPEFACES/_FLORIA/_scans lettres 01 /G2.jpg";
locked = "1";
transform = "{9.865, 0, 0, 9.865, -34, -48}";
};
components = (
{
name = _part.longserif;
transform = "{1, 0, 0, 1, 305, -279}";
}
);
layerId = "DEA0BAC3-D5AB-465E-8A55-3E8E1B493C64";
name = "Jun 10 20, 10:31";
paths = (
{
closed = 1;
nodes = (
"500 -50 LINE",
"500 421 LINE",
"400 421 LINE",
"400 75 LINE",
"406 89 OFFCURVE",
"415 96 OFFCURVE",
"423 96 CURVE SMOOTH",
"454 96 OFFCURVE",
"492 21 OFFCURVE",
"492 -50 CURVE"
);
},
{
closed = 1;
nodes = (
"280 0 LINE",
"203 0 OFFCURVE",
"155 142 OFFCURVE",
"155 350 CURVE",
"45 350 LINE",
"45 174 OFFCURVE",
"122 -8 OFFCURVE",
"280 -8 CURVE"
);
},
{
closed = 1;
nodes = (
"155 350 LINE",
"155 558 OFFCURVE",
"203 700 OFFCURVE",
"280 700 CURVE",
"280 708 LINE",
"122 708 OFFCURVE",
"45 526 OFFCURVE",
"45 350 CURVE"
);
},
{
closed = 1;
nodes = (
"425 307 LINE",
"425 189 LINE",
"453 189 LINE",
"435 307 LINE"
);
},
{
closed = 1;
nodes = (
"280 700 LINE",
"366 700 OFFCURVE",
"381 609 OFFCURVE",
"372 510 CURVE SMOOTH",
"369 477 LINE",
"375 477 LINE",
"442 703 LINE",
"434 705 LINE",
"424 679 OFFCURVE",
"415 667 OFFCURVE",
"399 667 CURVE SMOOTH",
"376 667 OFFCURVE",
"337 708 OFFCURVE",
"280 708 CURVE"
);
},
{
closed = 1;
nodes = (
"223 413 LINE",
"433 413 LINE",
"433 421 LINE",
"223 421 LINE"
);
},
{
closed = 1;
nodes = (
"428 0 OFFCURVE",
"457 80 OFFCURVE",
"457 150 CURVE",
"465 150 LINE",
"465 76 OFFCURVE",
"432 -8 OFFCURVE",
"280 -8 CURVE",
"280 0 LINE"
);
}
);
width = 560;
},
{
anchors = (
{
name = bottom;
position = "{280, 0}";
},
{
name = top;
position = "{280, 700}";
}
);
associatedMasterId = "1CDF7AA2-9B9F-46E0-8866-C4919D639C4C";
backgroundImage = {
crop = "{{0, 0}, {66.24, 85.68}}";
imagePath = "../../Documents/PERSONAL TYPEFACES/PERSONAL TYPEFACES/_FLORIA/_scans lettres 01 /G2.jpg";
locked = "1";
transform = "{9.865, 0, 0, 9.865, -34, -48}";
};
components = (
{
name = _part.longserif;
transform = "{1, 0, 0, 1, 305, -279}";
}
);
guideLines = (
{
angle = 90;
position = "{203, 700}";
}
);
layerId = "D2F9207C-74FF-4787-BE94-F5051EA7E357";
name = "Jun 10 20, 12:06";
paths = (
{
closed = 1;
nodes = (
"500 -50 LINE",
"500 421 LINE",
"400 421 LINE",
"400 18 LINE",
"419 32 OFFCURVE",
"437 47 OFFCURVE",
"445 47 CURVE SMOOTH",
"476 47 OFFCURVE",
"492 21 OFFCURVE",
"492 -50 CURVE"
);
},
{
closed = 1;
nodes = (
"320 0 LINE",
"203 0 OFFCURVE",
"155 142 OFFCURVE",
"155 350 CURVE",
"45 350 LINE",
"45 174 OFFCURVE",
"102 -8 OFFCURVE",
"320 -8 CURVE"
);
},
{
closed = 1;
nodes = (
"155 350 LINE",
"155 558 OFFCURVE",
"203 700 OFFCURVE",
"280 700 CURVE",
"280 708 LINE",
"122 708 OFFCURVE",
"45 526 OFFCURVE",
"45 350 CURVE"
);
},
{
closed = 1;
nodes = (
"425 307 LINE",
"425 189 LINE",
"453 189 LINE",
"435 307 LINE"
);
},
{
closed = 1;
nodes = (
"280 700 LINE",
"366 700 OFFCURVE",
"381 609 OFFCURVE",
"372 510 CURVE SMOOTH",
"369 477 LINE",
"375 477 LINE",
"442 703 LINE",
"434 705 LINE",
"424 679 OFFCURVE",
"415 667 OFFCURVE",
"399 667 CURVE SMOOTH",
"376 667 OFFCURVE",
"337 708 OFFCURVE",
"280 708 CURVE"
);
},
{
closed = 1;
nodes = (
"223 413 LINE",
"433 413 LINE",
"433 421 LINE",
"223 421 LINE"
);
},
{
closed = 1;
nodes = (
"320 -8 LINE",
"401 -8 OFFCURVE",
"455 55 OFFCURVE",
"455 150 CURVE",
"447 150 LINE",
"447 60 OFFCURVE",
"396 0 OFFCURVE",
"320 0 CURVE"
);
}
);
width = 560;
},
{
anchors = (
{
name = bottom;
position = "{280, 0}";
},
{
name = top;
position = "{280, 700}";
}
);
associatedMasterId = "1CDF7AA2-9B9F-46E0-8866-C4919D639C4C";
backgroundImage = {
crop = "{{0, 0}, {66.24, 85.68}}";
imagePath = "../../Documents/PERSONAL TYPEFACES/PERSONAL TYPEFACES/_FLORIA/_scans lettres 01 /G2.jpg";
locked = "1";
transform = "{9.865, 0, 0, 9.865, -34, -48}";
};
components = (
{
name = _part.longserif;
transform = "{1, 0, 0, 1, 305, -279}";
}
);
guideLines = (
{
angle = 90;
position = "{203, 700}";
},
{
position = "{534, -15}";
}
);
layerId = "ED572AA7-E050-4EA0-9C84-1B71437BA532";
name = "Jun 10 20, 12:07";
paths = (
{
closed = 1;
nodes = (
"500 -15 LINE",
"500 421 LINE",
"400 421 LINE",
"400 18.5 LINE",
"420 33.5 OFFCURVE",
"436 47.5 OFFCURVE",
"451.5 47.5 CURVE SMOOTH",
"473.5 47.5 OFFCURVE",
"492 18.5 OFFCURVE",
"492 -15 CURVE"
);
},
{
closed = 1;
nodes = (
"320 0 LINE",
"203 0 OFFCURVE",
"155 142 OFFCURVE",
"155 350 CURVE",
"45 350 LINE",
"45 174 OFFCURVE",
"102 -8 OFFCURVE",
"320 -8 CURVE"
);
},
{
closed = 1;
nodes = (
"155 350 LINE",
"155 558 OFFCURVE",
"203 700 OFFCURVE",
"280 700 CURVE",
"280 708 LINE",
"122 708 OFFCURVE",
"45 526 OFFCURVE",
"45 350 CURVE"
);
},
{
closed = 1;
nodes = (
"425 307 LINE",
"425 189 LINE",
"453 189 LINE",
"435 307 LINE"
);
},
{
closed = 1;
nodes = (
"280 700 LINE",
"366 700 OFFCURVE",
"381 609 OFFCURVE",
"372 510 CURVE SMOOTH",
"369 477 LINE",
"375 477 LINE",
"442 703 LINE",
"434 705 LINE",
"424 679 OFFCURVE",
"415 667 OFFCURVE",
"399 667 CURVE SMOOTH",
"376 667 OFFCURVE",
"337 708 OFFCURVE",
"280 708 CURVE"
);
},
{
closed = 1;
nodes = (
"223 413 LINE",
"433 413 LINE",
"433 421 LINE",
"223 421 LINE"
);
},
{
closed = 1;
nodes = (
"320 -8 LINE",
"401 -8 OFFCURVE",
"455 55 OFFCURVE",
"455 150 CURVE",
"447 150 LINE",
"447 60 OFFCURVE",
"396 0 OFFCURVE",
"320 0 CURVE"
);
}
);
width = 560;
},
{
anchors = (
{
name = bottom;
position = "{250, 0}";
},
{
name = top;
position = "{250, 700}";
}
);
associatedMasterId = "1CDF7AA2-9B9F-46E0-8866-C4919D639C4C";
backgroundImage = {
crop = "{{0, 0}, {115, 155.76}}";
imagePath = "../../Documents/PERSONAL TYPEFACES/PERSONAL TYPEFACES/_PICAFLOR/G-correction.jpg";
locked = "1";
transform = "{5.02977, 0, 0, 5.02977, -23, -47.5}";
};
components = (
{
name = _part.longserif;
transform = "{1, 0, 0, 1, 275, -279}";
}
);
guideLines = (
{
angle = 90;
position = "{173, 700}";
},
{
position = "{504, -15}";
}
);
layerId = "177AF3B7-BD00-4EC1-9F28-864B76DA68C9";
name = "Jun 11 20, 21:06";
paths = (
{
closed = 1;
nodes = (
"470 -10 LINE",
"470 421 LINE",
"370 421 LINE",
"370 23.5 LINE",
"390 38.5 OFFCURVE",
"406 52.5 OFFCURVE",
"421.5 52.5 CURVE SMOOTH",
"443.5 52.5 OFFCURVE",
"462 23.5 OFFCURVE",
"462 -10 CURVE"
);
},
{
closed = 1;
nodes = (
"290 0 LINE",
"173 0 OFFCURVE",
"125 142 OFFCURVE",
"125 350 CURVE",
"15 350 LINE",
"15 174 OFFCURVE",
"72 -8 OFFCURVE",
"290 -8 CURVE"
);
},
{
closed = 1;
nodes = (
"125 350 LINE",
"125 558 OFFCURVE",
"173 700 OFFCURVE",
"250 700 CURVE",
"250 708 LINE",
"92 708 OFFCURVE",
"15 526 OFFCURVE",
"15 350 CURVE"
);
},
{
closed = 1;
nodes = (
"395 307 LINE",
"395 189 LINE",
"423 189 LINE",
"405 307 LINE"
);
},
{
closed = 1;
nodes = (
"250 700 LINE",
"336 700 OFFCURVE",
"351 609 OFFCURVE",
"342 510 CURVE SMOOTH",
"339 477 LINE",
"345 477 LINE",
"412 703 LINE",
"404 705 LINE",
"394 679 OFFCURVE",
"385 667 OFFCURVE",
"369 667 CURVE SMOOTH",
"346 667 OFFCURVE",
"307 708 OFFCURVE",
"250 708 CURVE"
);
},
{
closed = 1;
nodes = (
"193 413 LINE",
"403 413 LINE",
"403 421 LINE",
"193 421 LINE"
);
},
{
closed = 1;
nodes = (
"290 -8 LINE",
"371 -8 OFFCURVE",
"425 70 OFFCURVE",
"425 165 CURVE",
"417 165 LINE",
"417 75 OFFCURVE",
"366 0 OFFCURVE",
"290 0 CURVE"
);
},
{
closed = 1;
nodes = (
"462 -15 LINE",
"470 -15 LINE",
"470 34 LINE",
"462 34 LINE"
);
}
);
width = 530;
},
{
anchors = (
{
name = bottom;
position = "{250, 0}";
},
{
name = top;
position = "{250, 700}";
}
);
associatedMasterId = "1CDF7AA2-9B9F-46E0-8866-C4919D639C4C";
backgroundImage = {
crop = "{{0, 0}, {115, 155.76}}";
imagePath = "../../Documents/PERSONAL TYPEFACES/PERSONAL TYPEFACES/_PICAFLOR/G-correction.jpg";
locked = "1";
transform = "{4.99451, 0, 0, 4.99451, -17.5, -47}";
};
components = (
{
name = _part.longserif;
transform = "{1, 0, 0, 1, 275, -279}";
}
);
guideLines = (
{
angle = 90;
position = "{173, 700}";
},
{
position = "{504, -15}";
}
);
layerId = "07FE2A91-0A39-4761-AF4A-C1D2F889727E";
name = "Jun 11 20, 21:09";
paths = (
{
closed = 1;
nodes = (
"470 0 LINE",
"470 421 LINE",
"370 421 LINE",
"370 13.5 LINE",
"385 25 OFFCURVE",
"404 30.5 OFFCURVE",
"421 30.5 CURVE SMOOTH",
"443.5 30.5 OFFCURVE",
"462 20.5 OFFCURVE",
"462 0 CURVE"
);
},
{
closed = 1;
nodes = (
"290 0 LINE",
"173 0 OFFCURVE",
"125 142 OFFCURVE",
"125 350 CURVE",
"15 350 LINE",
"15 174 OFFCURVE",
"72 -8 OFFCURVE",
"290 -8 CURVE"
);
},
{
closed = 1;
nodes = (
"125 350 LINE",
"125 558 OFFCURVE",
"173 700 OFFCURVE",
"250 700 CURVE",
"250 708 LINE",
"92 708 OFFCURVE",
"15 526 OFFCURVE",
"15 350 CURVE"
);
},
{
closed = 1;
nodes = (
"395 307 LINE",
"395 189 LINE",
"423 189 LINE",
"405 307 LINE"
);
},
{
closed = 1;
nodes = (
"250 700 LINE",
"336 700 OFFCURVE",
"351 609 OFFCURVE",
"342 510 CURVE SMOOTH",
"339 477 LINE",
"345 477 LINE",
"412 703 LINE",
"404 705 LINE",
"394 679 OFFCURVE",
"385 667 OFFCURVE",
"369 667 CURVE SMOOTH",
"346 667 OFFCURVE",
"307 708 OFFCURVE",
"250 708 CURVE"
);
},
{
closed = 1;
nodes = (
"193 413 LINE",
"403 413 LINE",
"403 421 LINE",
"193 421 LINE"
);
},
{
closed = 1;
nodes = (
"368 30.5 OFFCURVE",
"360.5 24.5 OFFCURVE",
"348 16.5 CURVE SMOOTH",
"331 6 OFFCURVE",
"311.5 0 OFFCURVE",
"290 0 CURVE",
"290 -8 LINE",
"316.5 -8 OFFCURVE",
"349 -0.5 OFFCURVE",
"370 13.5 CURVE",
"389 44.5 LINE",
"370 48.5 LINE"
);
}
);
width = 530;
},
{
anchors = (
{
name = bottom;
position = "{250, 0}";
},
{
name = top;
position = "{250, 700}";
}
);
associatedMasterId = "1CDF7AA2-9B9F-46E0-8866-C4919D639C4C";
backgroundImage = {
crop = "{{0, 0}, {115, 155.76}}";
imagePath = "../../Documents/PERSONAL TYPEFACES/PERSONAL TYPEFACES/_PICAFLOR/G-correction.jpg";
locked = "1";
transform = "{4.99451, 0, 0, 4.99451, -17.5, -47}";
};
components = (
{
name = _part.longserif;
transform = "{1, 0, 0, 1, 275, -279}";
}
);
guideLines = (
{
angle = 90;
position = "{173, 700}";
},
{
position = "{504, -15}";
}
);
layerId = "D6E6F274-0DA6-4091-8C84-860D248A7285";
name = "Jun 12 20, 00:16";
paths = (
{
closed = 1;
nodes = (
"290 0 LINE",
"173 0 OFFCURVE",
"125 142 OFFCURVE",
"125 350 CURVE",
"15 350 LINE",
"15 174 OFFCURVE",
"72 -8 OFFCURVE",
"290 -8 CURVE"
);
},
{
closed = 1;
nodes = (
"125 350 LINE",
"125 558 OFFCURVE",
"173 700 OFFCURVE",
"250 700 CURVE",
"250 708 LINE",
"92 708 OFFCURVE",
"15 526 OFFCURVE",
"15 350 CURVE"
);
},
{
closed = 1;
nodes = (
"395 307 LINE",
"395 189 LINE",
"423 189 LINE",
"405 307 LINE"
);
},
{
closed = 1;
nodes = (
"250 700 LINE",
"336 700 OFFCURVE",
"351 609 OFFCURVE",
"342 510 CURVE SMOOTH",
"339 477 LINE",
"345 477 LINE",
"412 703 LINE",
"404 705 LINE",
"394 679 OFFCURVE",
"385 667 OFFCURVE",
"369 667 CURVE SMOOTH",
"346 667 OFFCURVE",
"307 708 OFFCURVE",
"250 708 CURVE"
);
},
{
closed = 1;
nodes = (
"193 413 LINE",
"403 413 LINE",
"403 421 LINE",
"193 421 LINE"
);
},
{
closed = 1;
nodes = (
"355 -8 OFFCURVE",
"373 30.5 OFFCURVE",
"421 30.5 CURVE SMOOTH",
"443.5 30.5 OFFCURVE",
"462 20.5 OFFCURVE",
"462 0 CURVE",
"470 0 LINE",
"470 421 LINE",
"370 421 LINE",
"370 61.5 LINE SMOOTH",
"370 33 OFFCURVE",
"364.5 20.5 OFFCURVE",
"340.5 10 CURVE SMOOTH",
"325.5 3.5 OFFCURVE",
"309 0 OFFCURVE",
"290 0 CURVE",
"290 -8 LINE"
);
}
);
width = 530;
},
{
anchors = (
{
name = bottom;
position = "{250, 0}";
},
{
name = top;
position = "{250, 700}";
}
);
associatedMasterId = "1CDF7AA2-9B9F-46E0-8866-C4919D639C4C";
backgroundImage = {
crop = "{{0, 0}, {115, 155.76}}";
imagePath = "../../Documents/PERSONAL TYPEFACES/PERSONAL TYPEFACES/_PICAFLOR/G-correction.jpg";
locked = "1";
transform = "{4.99451, 0, 0, 4.99451, -17.5, -47}";
};
components = (
{
name = _part.longserif;
transform = "{1, 0, 0, 1, 220, -279}";
}
);
guideLines = (
{
angle = 90;
position = "{173, 700}";
},
{
position = "{504, -15}";
}
);
layerId = "E063D47F-DE8A-4BE2-9268-6282B7F825B5";
name = "Jun 12 20, 00:19";
paths = (
{
closed = 1;
nodes = (
"125 350 LINE",
"125 558 OFFCURVE",
"173 700 OFFCURVE",
"250 700 CURVE",
"250 708 LINE",
"92 708 OFFCURVE",
"15 526 OFFCURVE",
"15 350 CURVE"
);
},
{
closed = 1;
nodes = (
"250 700 LINE",
"336 700 OFFCURVE",
"351 609 OFFCURVE",
"342 510 CURVE SMOOTH",
"339 477 LINE",
"345 477 LINE",
"412 703 LINE",
"404 705 LINE",
"394 679 OFFCURVE",
"385 667 OFFCURVE",
"369 667 CURVE SMOOTH",
"346 667 OFFCURVE",
"307 708 OFFCURVE",
"250 708 CURVE"
);
},
{
closed = 1;
nodes = (
"196 413 LINE",
"306 413 LINE",
"306 421 LINE",
"196 421 LINE"
);
},
{
closed = 1;
nodes = (
"300 -8 OFFCURVE",
"318 30.5 OFFCURVE",
"366 30.5 CURVE SMOOTH",
"388.5 30.5 OFFCURVE",
"407 20.5 OFFCURVE",
"407 0 CURVE",
"415 0 LINE",
"415 421 LINE",
"315 421 LINE",
"315 61.5 LINE SMOOTH",
"315 33 OFFCURVE",
"309.5 20.5 OFFCURVE",
"285.5 10 CURVE SMOOTH",
"270.5 3.5 OFFCURVE",
"254 0 OFFCURVE",
"235 0 CURVE",
"235 -8 LINE"
);
},
{
closed = 1;
nodes = (
"235 0 LINE",
"158 0 OFFCURVE",
"125 142 OFFCURVE",
"125 350 CURVE",
"15 350 LINE",
"15 174 OFFCURVE",
"77 -8 OFFCURVE",
"235 -8 CURVE"
);
}
);
width = 475;
},
{
anchors = (
{
name = bottom;
position = "{250, 0}";
},
{
name = top;
position = "{250, 708}";
}
);
associatedMasterId = "1CDF7AA2-9B9F-46E0-8866-C4919D639C4C";
components = (
{
name = _part.longserif;
transform = "{1, 0, 0, 1, 245, -273}";
}
);
guideLines = (
{
angle = 90;
position = "{173, 700}";
},
{
position = "{504, -15}";
},
{
angle = 90;
position = "{339, 477}";
}
);
layerId = "4034999C-3ABD-4D86-9A36-8A6089ED5A8D";
name = "Aug 31 20, 16:54";
paths = (
{
closed = 1;
nodes = (
"259 0 LINE",
"182 0 OFFCURVE",
"125 142 OFFCURVE",
"125 350 CURVE",
"15 350 LINE",
"15 174 OFFCURVE",
"101 -8 OFFCURVE",
"259 -8 CURVE"
);
},
{
closed = 1;
nodes = (
"324 -8 OFFCURVE",
"342 30.5 OFFCURVE",
"390 30.5 CURVE SMOOTH",
"412.5 30.5 OFFCURVE",
"431 20.5 OFFCURVE",
"431 0 CURVE",
"439 0 LINE",
"439 427 LINE",
"339 427 LINE",
"339 61.5 LINE SMOOTH",
"339 31.5 OFFCURVE",
"333 21.5 OFFCURVE",
"309.5 10 CURVE SMOOTH",
"296.5 4 OFFCURVE",
"276 0 OFFCURVE",
"259 0 CURVE",
"259 -8 LINE"
);
},
{
closed = 1;
nodes = (
"125 350 LINE",
"125 558 OFFCURVE",
"173 700 OFFCURVE",
"250 700 CURVE",
"250 708 LINE",
"92 708 OFFCURVE",
"15 526 OFFCURVE",
"15 350 CURVE"
);
},
{
closed = 1;
nodes = (
"330 419 LINE",
"330 427 LINE",
"220 427 LINE",
"220 419 LINE"
);
},
{
closed = 1;
nodes = (
"345 477 LINE",
"412 703 LINE",
"404 705 LINE",
"394 679 OFFCURVE",
"385 667 OFFCURVE",
"369 667 CURVE SMOOTH",
"346 667 OFFCURVE",
"307 708 OFFCURVE",
"250 708 CURVE",
"250 700 LINE",
"336 700 OFFCURVE",
"351 609 OFFCURVE",
"342 510 CURVE SMOOTH",
"339 477 LINE"
);
}
);
width = 500;
},
{
anchors = (
{
name = bottom;
position = "{272, 0}";
},
{
name = top;
position = "{272, 708}";
}
);
components = (
{
alignment = -1;
name = _part.longserif;
transform = "{1, 0, 0, 1, 256, -273}";
},
{
alignment = -1;
name = _part.longserif;
transform = "{1, 0, 0, 1, 196, -273}";
}
);
layerId = "BEE1AFF0-4415-4363-825D-BBA98FF62E65";
paths = (
{
closed = 1;
nodes = (
"281 22 LINE",
"204 22 OFFCURVE",
"147 142 OFFCURVE",
"147 350 CURVE",
"37 350 LINE",
"37 174 OFFCURVE",
"123 -8 OFFCURVE",
"281 -8 CURVE"
);
},
{
closed = 1;
nodes = (
"357 -8 OFFCURVE",
"358.5 30.5 OFFCURVE",
"406.5 30.5 CURVE SMOOTH",
"429 30.5 OFFCURVE",
"442 20.5 OFFCURVE",
"442 0 CURVE",
"461 0 LINE",
"461 427 LINE",
"361 427 LINE",
"361 83.5 LINE SMOOTH",
"361 65.5 OFFCURVE",
"352.5 49.5 OFFCURVE",
"338.5 39 CURVE SMOOTH",
"325 28 OFFCURVE",
"305 22 OFFCURVE",
"281 22 CURVE",
"281 -8 LINE"
);
},
{
closed = 1;
nodes = (
"147 350 LINE",
"147 558 OFFCURVE",
"195 678 OFFCURVE",
"272 678 CURVE",
"272 708 LINE",
"114 708 OFFCURVE",
"37 526 OFFCURVE",
"37 350 CURVE"
);
},
{
closed = 1;
nodes = (
"378 477 LINE",
"445 703 LINE",
"426 705 LINE",
"416 679 OFFCURVE",
"407 667 OFFCURVE",
"391 667 CURVE SMOOTH",
"368 667 OFFCURVE",
"329 708 OFFCURVE",
"272 708 CURVE",
"272 678 LINE",
"358 678 OFFCURVE",
"373 609 OFFCURVE",
"364 510 CURVE SMOOTH",
"361 477 LINE"
);
}
);
width = 544;
},
{
anchors = (
{
name = bottom;
position = "{245, 0}";
},
{
name = top;
position = "{245, 708}";
}
);
components = (
{
alignment = -1;
name = _part.longserif;
transform = "{1, 0, 0, 1, 242, -273}";
},
{
alignment = -1;
name = _part.longserif;
transform = "{1, 0, 0, 1, 182, -273}";
}
);
layerId = "09961995-7511-4D97-AA69-D4CC820B8978";
paths = (
{
closed = 1;
nodes = (
"254 -4 LINE",
"177 -4 OFFCURVE",
"120 142 OFFCURVE",
"120 350 CURVE",
"10 350 LINE",
"10 174 OFFCURVE",
"96 -8 OFFCURVE",
"254 -8 CURVE"
);
},
{
closed = 1;
nodes = (
"317 -8 OFFCURVE",
"338 30.5 OFFCURVE",
"386 30.5 CURVE SMOOTH",
"408.5 30.5 OFFCURVE",
"428 20.5 OFFCURVE",
"428 0 CURVE",
"434 0 LINE",
"434 427 LINE",
"334 427 LINE",
"334 57.5 LINE SMOOTH",
"334 25.5 OFFCURVE",
"328.5 16.5 OFFCURVE",
"303.5 5 CURVE SMOOTH",
"290.5 -0.5 OFFCURVE",
"270 -4 OFFCURVE",
"254 -4 CURVE",
"254 -8 LINE"
);
},
{
closed = 1;
nodes = (
"120 350 LINE",
"120 558 OFFCURVE",
"168 704 OFFCURVE",
"245 704 CURVE",
"245 708 LINE",
"87 708 OFFCURVE",
"10 526 OFFCURVE",
"10 350 CURVE"
);
},
{
closed = 1;
nodes = (
"338 477 LINE",
"405 703 LINE",
"399 705 LINE",
"389 679 OFFCURVE",
"380 667 OFFCURVE",
"364 667 CURVE SMOOTH",
"341 667 OFFCURVE",
"302 708 OFFCURVE",
"245 708 CURVE",
"245 704 LINE",
"331 704 OFFCURVE",
"346 609 OFFCURVE",
"337 510 CURVE SMOOTH",
"334 477 LINE"
);
}
);
width = 491;
}
);
leftKerningGroup = O;
leftMetricsKey = O;
rightKerningGroup = G;
unicode = "0047,0067";
},
{
color = 4;
glyphname = H;
lastChange = "2020-10-30 17:53:49 +0000";
layers = (
{
anchors = (
{
name = bottom;
position = "{270, 0}";
},
{
name = center;
position = "{270, 350}";
},
{
name = top;
position = "{270, 700}";
},
{
name = topleft;
position = "{0, 700}";
}
);
components = (
{
name = "_part.stem-serifs";
transform = "{1, 0, 0, 1, 270, 0}";
},
{
name = "_part.stem-serifs";
transform = "{1, 0, 0, 1, -20, 0}";
}
);
layerId = "C46E4D83-CAC2-4426-A09C-7F1020C0FA19";
paths = (
{
closed = 1;
nodes = (
"375 419 LINE",
"375 427 LINE",
"165 427 LINE",
"165 419 LINE"
);
}
);
width = 540;
},
{
anchors = (
{
name = bottom;
position = "{290, 0}";
},
{
name = center;
position = "{290, 350}";
},
{
name = top;
position = "{290, 700}";
},
{
name = topleft;
position = "{20, 700}";
}
);
components = (
{
name = "_part.stem-serifs";
transform = "{1, 0, 0, 1, 280, 0}";
},
{
name = "_part.stem-serifs";
transform = "{1, 0, 0, 1, -10, 0}";
}
);
layerId = "1CDF7AA2-9B9F-46E0-8866-C4919D639C4C";
paths = (
{
closed = 1;
nodes = (
"395 409 LINE",
"395 437 LINE",
"185 437 LINE",
"185 409 LINE"
);
}
);
width = 580;
},
{
anchors = (
{
name = bottom;
position = "{292, 0}";
},
{
name = center;
position = "{292, 350}";
},
{
name = top;
position = "{292, 700}";
},
{
name = topleft;
position = "{22, 700}";
}
);
components = (
{
alignment = -1;
name = "_part.stem-serifs";
transform = "{1, 0, 0, 1, 281, 0}";
},
{
alignment = -1;
name = "_part.stem-serifs";
transform = "{1, 0, 0, 1, -9, 0}";
}
);
layerId = "BEE1AFF0-4415-4363-825D-BBA98FF62E65";
paths = (
{
closed = 1;
nodes = (
"397 408 LINE",
"397 438 LINE",
"187 438 LINE",
"187 408 LINE"
);
}
);
width = 584;
},
{
anchors = (
{
name = bottom;
position = "{266, 0}";
},
{
name = center;
position = "{266, 350}";
},
{
name = top;
position = "{266, 700}";
},
{
name = topleft;
position = "{-4, 700}";
}
);
components = (
{
alignment = -1;
name = "_part.stem-serifs";
transform = "{1, 0, 0, 1, 268, 0}";
},
{
alignment = -1;
name = "_part.stem-serifs";
transform = "{1, 0, 0, 1, -22, 0}";
}
);
layerId = "09961995-7511-4D97-AA69-D4CC820B8978";
paths = (
{
closed = 1;
nodes = (
"371 421 LINE",
"371 425 LINE",
"161 425 LINE",
"161 421 LINE"
);
}
);
width = 532;
}
);
leftKerningGroup = H;
rightKerningGroup = H;
unicode = "0048,0068";
},
{
color = 4;
glyphname = Hbar;
lastChange = "2020-11-09 15:48:38 +0000";
layers = (
{
components = (
{
name = H;
}
);
layerId = "09961995-7511-4D97-AA69-D4CC820B8978";
paths = (
{
closed = 1;
nodes = (
"503 564 LINE",
"503 568 LINE",
"23 568 LINE",
"23 564 LINE"
);
}
);
width = 532;
},
{
components = (
{
name = H;
}
);
layerId = "C46E4D83-CAC2-4426-A09C-7F1020C0FA19";
paths = (
{
closed = 1;
nodes = (
"503 557 LINE",
"503 565 LINE",
"23 565 LINE",
"23 557 LINE"
);
}
);
width = 540;
},
{
components = (
{
name = H;
}
);
layerId = "1CDF7AA2-9B9F-46E0-8866-C4919D639C4C";
paths = (
{
closed = 1;
nodes = (
"530 542 LINE",
"530 570 LINE",
"50 570 LINE",
"50 542 LINE"
);
}
);
width = 580;
},
{
components = (
{
name = H;
}
);
layerId = "BEE1AFF0-4415-4363-825D-BBA98FF62E65";
paths = (
{
closed = 1;
nodes = (
"530 545 LINE",
"530 575 LINE",
"50 575 LINE",
"50 545 LINE"
);
}
);
width = 584;
}
);
leftKerningGroup = H;
rightKerningGroup = H;
unicode = "0126,0127";
},
{
color = 4;
glyphname = IJ;
lastChange = "2021-01-11 14:35:35 +0000";
layers = (
{
components = (
{
name = I;
transform = "{1, 0, 0, 1, 1, 0}";
},
{
name = J;
transform = "{1, 0, 0, 1, 236, 0}";
}
);
layerId = "C46E4D83-CAC2-4426-A09C-7F1020C0FA19";
paths = (
{
closed = 1;
nodes = (
"270 500 LINE",
"5 315 LINE",
"19.5 315 LINE",
"274.5 493 LINE",
"274.5 500 LINE"
);
}
);
width = 629;
},
{
components = (
{
name = I;
transform = "{1, 0, 0, 1, 1, 0}";
},
{
name = J;
transform = "{1, 0, 0, 1, 236, 0}";
}
);
layerId = "1CDF7AA2-9B9F-46E0-8866-C4919D639C4C";
paths = (
{
closed = 1;
nodes = (
"270 500 LINE",
"5 315 LINE",
"53.5 315 LINE",
"284.5 476 LINE",
"284.5 500 LINE"
);
}
);
width = 649;
},
{
components = (
{
alignment = -1;
name = I;
transform = "{1, 0, 0, 1, 1, 0}";
},
{
alignment = -1;
name = J;
transform = "{1, 0, 0, 1, 236, 0}";
}
);
layerId = "BEE1AFF0-4415-4363-825D-BBA98FF62E65";
paths = (
{
closed = 1;
nodes = (
"270 500 LINE",
"5 315 LINE",
"57 315 LINE",
"285.5 474.5 LINE",
"285.5 500 LINE"
);
}
);
width = 651;
},
{
components = (
{
alignment = -1;
name = I;
transform = "{1, 0, 0, 1, 1, 0}";
},
{
alignment = -1;
name = J;
transform = "{1, 0, 0, 1, 236, 0}";
}
);
layerId = "09961995-7511-4D97-AA69-D4CC820B8978";
paths = (
{
closed = 1;
nodes = (
"269 500 LINE",
"4 315 LINE",
"11.5 315 LINE",
"271.5 496.5 LINE",
"271.5 500 LINE"
);
}
);
width = 625;
}
);
leftKerningGroup = H;
rightKerningGroup = U;
unicode = "0132,0133";
},
{
color = 4;
glyphname = J;
lastChange = "2020-10-30 17:53:49 +0000";
layers = (
{
anchors = (
{
name = bottom;
position = "{209, 0}";
},
{
name = top;
position = "{209, 700}";
}
);
guideLines = (
{
angle = 90;
position = "{34, 390}";
}
);
layerId = "C46E4D83-CAC2-4426-A09C-7F1020C0FA19";
paths = (
{
closed = 1;
nodes = (
"271 -8 OFFCURVE",
"323 45 OFFCURVE",
"323 140 CURVE",
"223 152 LINE",
"223 77 OFFCURVE",
"187 34 OFFCURVE",
"132 34 CURVE SMOOTH",
"57 34 OFFCURVE",
"42 130 OFFCURVE",
"42 257 CURVE",
"34 237 LINE",
"34 80 OFFCURVE",
"72 -8 OFFCURVE",
"183 -8 CURVE SMOOTH"
);
},
{
closed = 1;
nodes = (
"42 237 LINE",
"42 500 LINE",
"34 500 LINE",
"34 237 LINE"
);
},
{
closed = 1;
nodes = (
"34 532 LINE",
"91 700 LINE",
"50 700 LINE",
"25 532 LINE"
);
},
{
closed = 1;
nodes = (
"323 700 LINE",
"223 700 LINE",
"223 152 LINE",
"323 140 LINE"
);
},
{
closed = 1;
nodes = (
"383 692 LINE",
"383 700 LINE",
"74 700 LINE",
"74 692 LINE"
);
}
);
width = 393;
},
{
associatedMasterId = "C46E4D83-CAC2-4426-A09C-7F1020C0FA19";
guideLines = (
{
angle = 90;
position = "{35, 390}";
}
);
layerId = "28ED23EE-5E0E-47DB-BF68-C11782AB7B3D";
name = "Jun 5 20, 21:27";
paths = (
{
closed = 1;
nodes = (
"43 500 LINE",
"35 500 LINE",
"35 172 LINE",
"43 172 LINE"
);
},
{
closed = 1;
nodes = (
"384 700 LINE",
"75 700 LINE",
"75 692 LINE",
"384 692 LINE"
);
},
{
closed = 1;
nodes = (
"51 700 LINE",
"26 532 LINE",
"35 532 LINE",
"92 700 LINE"
);
},
{
closed = 1;
nodes = (
"224 700 LINE",
"224 130 LINE",
"324 130 LINE",
"324 700 LINE"
);
},
{
closed = 1;
nodes = (
"224 130 LINE",
"224 71 OFFCURVE",
"189 24 OFFCURVE",
"133 24 CURVE SMOOTH",
"68 24 OFFCURVE",
"43 65 OFFCURVE",
"43 172 CURVE",
"35 172 LINE",
"35 41 OFFCURVE",
"60 -8 OFFCURVE",
"153 -8 CURVE SMOOTH",
"233 -8 OFFCURVE",
"324 16 OFFCURVE",
"324 130 CURVE"
);
}
);
width = 419;
},
{
anchors = (
{
name = bottom;
position = "{225, 0}";
},
{
name = top;
position = "{225, 700}";
}
);
guideLines = (
{
angle = 90;
position = "{-65.5, 379.5}";
}
);
layerId = "1CDF7AA2-9B9F-46E0-8866-C4919D639C4C";
paths = (
{
closed = 1;
nodes = (
"287 -8 OFFCURVE",
"339 45 OFFCURVE",
"339 140 CURVE",
"239 152 LINE",
"239 77 OFFCURVE",
"203 34 OFFCURVE",
"148 34 CURVE SMOOTH",
"73 34 OFFCURVE",
"68 130 OFFCURVE",
"68 257 CURVE",
"40 237 LINE",
"40 51 OFFCURVE",
"72 -8 OFFCURVE",
"199 -8 CURVE SMOOTH"
);
},
{
closed = 1;
nodes = (
"68 237 LINE",
"68 500 LINE",
"40 500 LINE",
"40 237 LINE"
);
},
{
closed = 1;
nodes = (
"60 532 LINE",
"117 700 LINE",
"66 700 LINE",
"41 532 LINE"
);
},
{
closed = 1;
nodes = (
"339 700 LINE",
"239 700 LINE",
"239 152 LINE",
"339 140 LINE"
);
},
{
closed = 1;
nodes = (
"399 672 LINE",
"399 700 LINE",
"90 700 LINE",
"90 672 LINE"
);
}
);
width = 424;
},
{
associatedMasterId = "1CDF7AA2-9B9F-46E0-8866-C4919D639C4C";
guideLines = (
{
angle = 90;
position = "{35, 390}";
}
);
layerId = "004E00E4-A2F7-4ABA-961F-791BA07455F9";
name = "Jun 5 20, 21:27";
paths = (
{
closed = 1;
nodes = (
"43 500 LINE",
"35 500 LINE",
"35 172 LINE",
"43 172 LINE"
);
},
{
closed = 1;
nodes = (
"384 700 LINE",
"75 700 LINE",
"75 692 LINE",
"384 692 LINE"
);
},
{
closed = 1;
nodes = (
"51 700 LINE",
"26 532 LINE",
"35 532 LINE",
"92 700 LINE"
);
},
{
closed = 1;
nodes = (
"224 700 LINE",
"224 130 LINE",
"324 130 LINE",
"324 700 LINE"
);
},
{
closed = 1;
nodes = (
"224 130 LINE",
"224 71 OFFCURVE",
"189 24 OFFCURVE",
"133 24 CURVE SMOOTH",
"68 24 OFFCURVE",
"43 65 OFFCURVE",
"43 172 CURVE",
"35 172 LINE",
"35 41 OFFCURVE",
"60 -8 OFFCURVE",
"153 -8 CURVE SMOOTH",
"233 -8 OFFCURVE",
"324 16 OFFCURVE",
"324 130 CURVE"
);
}
);
width = 419;
},
{
anchors = (
{
name = bottom;
position = "{227, 0}";
},
{
name = top;
position = "{227, 700}";
}
);
layerId = "BEE1AFF0-4415-4363-825D-BBA98FF62E65";
paths = (
{
closed = 1;
nodes = (
"288.5 -8 OFFCURVE",
"340.5 45 OFFCURVE",
"340.5 140 CURVE",
"240.5 152 LINE",
"240.5 77 OFFCURVE",
"204.5 34 OFFCURVE",
"149.5 34 CURVE SMOOTH",
"74.5 34 OFFCURVE",
"70.5 130 OFFCURVE",
"70.5 257 CURVE",
"40.5 237 LINE",
"40.5 48 OFFCURVE",
"72 -8 OFFCURVE",
"200.5 -8 CURVE SMOOTH"
);
},
{
closed = 1;
nodes = (
"70.5 237 LINE",
"70.5 500 LINE",
"40.5 500 LINE",
"40.5 237 LINE"
);
},
{
closed = 1;
nodes = (
"62.5 532 LINE",
"119.5 700 LINE",
"67.5 700 LINE",
"42.5 532 LINE"
);
},
{
closed = 1;
nodes = (
"340.5 700 LINE",
"240.5 700 LINE",
"240.5 152 LINE",
"340.5 140 LINE"
);
},
{
closed = 1;
nodes = (
"400.5 670 LINE",
"400.5 700 LINE",
"91.5 700 LINE",
"91.5 670 LINE"
);
}
);
width = 427;
},
{
anchors = (
{
name = bottom;
position = "{206, 0}";
},
{
name = top;
position = "{206, 700}";
}
);
layerId = "09961995-7511-4D97-AA69-D4CC820B8978";
paths = (
{
closed = 1;
nodes = (
"268 -8 OFFCURVE",
"320 45 OFFCURVE",
"320 140 CURVE",
"220 152 LINE",
"220 77 OFFCURVE",
"184 34 OFFCURVE",
"129 34 CURVE SMOOTH",
"54 34 OFFCURVE",
"37 130 OFFCURVE",
"37 257 CURVE",
"33 237 LINE",
"33 86 OFFCURVE",
"72 -8 OFFCURVE",
"180 -8 CURVE SMOOTH"
);
},
{
closed = 1;
nodes = (
"37 237 LINE",
"37 500 LINE",
"33 500 LINE",
"33 237 LINE"
);
},
{
closed = 1;
nodes = (
"29 532 LINE",
"86 700 LINE",
"47 700 LINE",
"22 532 LINE"
);
},
{
closed = 1;
nodes = (
"320 700 LINE",
"220 700 LINE",
"220 152 LINE",
"320 140 LINE"
);
},
{
closed = 1;
nodes = (
"380 696 LINE",
"380 700 LINE",
"71 700 LINE",
"71 696 LINE"
);
}
);
width = 387;
}
);
leftKerningGroup = J;
rightKerningGroup = U;
unicode = "004A,006A";
},
{
color = 4;
glyphname = K;
lastChange = "2020-10-30 17:53:49 +0000";
layers = (
{
anchors = (
{
name = bottom;
position = "{238, 0}";
},
{
name = top;
position = "{238, 700}";
}
);
components = (
{
name = "_part.stem-serifs";
transform = "{1, 0, 0, 1, -20, 0}";
},
{
name = _part.longserif;
transform = "{1, 0, 0, 1, 236, -692}";
}
);
layerId = "C46E4D83-CAC2-4426-A09C-7F1020C0FA19";
paths = (
{
closed = 1;
nodes = (
"441 0 LINE",
"253 516 LINE",
"191 410 LINE",
"340 0 LINE"
);
},
{
closed = 1;
nodes = (
"152 333 LINE",
"362 697 LINE",
"352 697 LINE",
"142 333 LINE"
);
},
{
closed = 1;
nodes = (
"431 692 LINE",
"431 700 LINE",
"271 700 LINE",
"271 692 LINE"
);
}
);
width = 496;
},
{
anchors = (
{
name = bottom;
position = "{258, 0}";
},
{
name = top;
position = "{258, 700}";
}
);
components = (
{
name = "_part.stem-serifs";
transform = "{1, 0, 0, 1, -10, 0}";
},
{
name = _part.longserif;
transform = "{1, 0, 0, 1, 246, -672}";
}
);
layerId = "1CDF7AA2-9B9F-46E0-8866-C4919D639C4C";
paths = (
{
closed = 1;
nodes = (
"461 0 LINE",
"273 516 LINE",
"211 410 LINE",
"360 0 LINE"
);
},
{
closed = 1;
nodes = (
"172 333 LINE",
"382 697 LINE",
"349.5 697 LINE",
"139.5 333 LINE"
);
},
{
closed = 1;
nodes = (
"424 672 LINE",
"424 700 LINE",
"296 700 LINE",
"296 672 LINE"
);
}
);
width = 536;
},
{
anchors = (
{
name = bottom;
position = "{260, 0}";
},
{
name = top;
position = "{260, 700}";
}
);
components = (
{
alignment = -1;
name = "_part.stem-serifs";
transform = "{1, 0, 0, 1, -9, 0}";
},
{
alignment = -1;
name = _part.longserif;
transform = "{1, 0, 0, 1, 247, -670}";
}
);
layerId = "BEE1AFF0-4415-4363-825D-BBA98FF62E65";
paths = (
{
closed = 1;
nodes = (
"463 0 LINE",
"275 516 LINE",
"213 410 LINE",
"362 0 LINE"
);
},
{
closed = 1;
nodes = (
"174 333 LINE",
"384 697 LINE",
"349.5 697 LINE",
"139.5 333 LINE"
);
},
{
closed = 1;
nodes = (
"423.5 670 LINE",
"423.5 700 LINE",
"298.5 700 LINE",
"298.5 670 LINE"
);
}
);
width = 540;
},
{
anchors = (
{
name = bottom;
position = "{234, 0}";
},
{
name = top;
position = "{234, 700}";
}
);
components = (
{
alignment = -1;
name = "_part.stem-serifs";
transform = "{1, 0, 0, 1, -22, 0}";
},
{
alignment = -1;
name = _part.longserif;
transform = "{1, 0, 0, 1, 234, -696}";
}
);
layerId = "09961995-7511-4D97-AA69-D4CC820B8978";
paths = (
{
closed = 1;
nodes = (
"437 0 LINE",
"249 516 LINE",
"187 410 LINE",
"336 0 LINE"
);
},
{
closed = 1;
nodes = (
"148 333 LINE",
"358 697 LINE",
"352.5 697 LINE",
"142.5 333 LINE"
);
},
{
closed = 1;
nodes = (
"432.5 696 LINE",
"432.5 700 LINE",
"266 700 LINE",
"266 696 LINE"
);
}
);
width = 488;
}
);
leftKerningGroup = H;
leftMetricsKey = H;
rightKerningGroup = K;
unicode = "004B,006B";
},
{
color = 4;
glyphname = L;
lastChange = "2021-01-11 15:07:23 +0000";
layers = (
{
anchors = (
{
name = bottom;
position = "{225, 0}";
},
{
name = center;
position = "{125, 350}";
},
{
name = top;
position = "{125, 700}";
},
{
name = topright;
position = "{373, 700}";
}
);
components = (
{
name = "_part.stem-serifs";
transform = "{1, 0, 0, 1, -20, 0}";
},
{
name = _part.longserif;
transform = "{-1, 0, 0, 1, 280, 0}";
}
);
layerId = "C46E4D83-CAC2-4426-A09C-7F1020C0FA19";
paths = (
{
closed = 1;
nodes = (
"346 0 LINE",
"368 233 LINE",
"358 233 LINE",
"294 0 LINE"
);
},
{
closed = 1;
nodes = (
"311 0 LINE",
"311 8 LINE",
"225 8 LINE",
"225 0 LINE"
);
}
);
width = 383;
},
{
associatedMasterId = "C46E4D83-CAC2-4426-A09C-7F1020C0FA19";
backgroundImage = {
crop = "{{0, 0}, {46.08, 83.52}}";
imagePath = "../../Documents/PERSONAL TYPEFACES/PERSONAL TYPEFACES/_FLORIA/_scans lettres 01 /LT-good.jpg";
locked = "1";
transform = "{9.71265, 0, 0, 9.71265, 0, -63}";
};
components = (
{
name = "_part.stem-serifs";
}
);
layerId = "A7FA65EF-24F0-437B-A477-543FC053C43F";
name = "Jun 10 20, 09:27";
paths = (
{
closed = 1;
nodes = (
"225 0 LINE",
"311 0 LINE",
"311 8 LINE",
"225 8 LINE"
);
},
{
closed = 1;
nodes = (
"326 1 LINE",
"388 263 LINE",
"378 263 LINE",
"254 0 LINE"
);
}
);
width = 393;
},
{
anchors = (
{
name = bottom;
position = "{245, 0}";
},
{
name = center;
position = "{145, 350}";
},
{
name = top;
position = "{145, 700}";
},
{
name = topright;
position = "{393, 700}";
}
);
components = (
{
name = "_part.stem-serifs";
transform = "{1, 0, 0, 1, -10, 0}";
},
{
name = _part.longserif;
transform = "{-1, 0, 0, 1, 310, 0}";
}
);
layerId = "1CDF7AA2-9B9F-46E0-8866-C4919D639C4C";
paths = (
{
closed = 1;
nodes = (
"366 0 LINE",
"388 233 LINE",
"370 233 LINE",
"306 0 LINE"
);
},
{
closed = 1;
nodes = (
"331 0 LINE",
"331 28 LINE",
"245 28 LINE",
"245 0 LINE"
);
}
);
width = 413;
},
{
associatedMasterId = "1CDF7AA2-9B9F-46E0-8866-C4919D639C4C";
backgroundImage = {
crop = "{{0, 0}, {46.08, 83.52}}";
imagePath = "../../Documents/PERSONAL TYPEFACES/PERSONAL TYPEFACES/_FLORIA/_scans lettres 01 /LT-good.jpg";
locked = "1";
transform = "{9.71265, 0, 0, 9.71265, 0, -63}";
};
components = (
{
name = "_part.stem-serifs";
}
);
layerId = "2454FA06-53B3-4653-A0AD-225E001A0F20";
name = "Jun 10 20, 09:27";
paths = (
{
closed = 1;
nodes = (
"225 0 LINE",
"311 0 LINE",
"311 8 LINE",
"225 8 LINE"
);
},
{
closed = 1;
nodes = (
"326 1 LINE",
"388 263 LINE",
"378 263 LINE",
"254 0 LINE"
);
}
);
width = 393;
},
{
anchors = (
{
name = bottom;
position = "{247, 0}";
},
{
name = center;
position = "{147, 350}";
},
{
name = top;
position = "{147, 700}";
},
{
name = topright;
position = "{395, 700}";
}
);
components = (
{
alignment = -1;
name = "_part.stem-serifs";
transform = "{1, 0, 0, 1, -9, 0}";
},
{
name = _part.longserif;
transform = "{-1, 0, 0, 1, 315, 0}";
}
);
layerId = "BEE1AFF0-4415-4363-825D-BBA98FF62E65";
paths = (
{
closed = 1;
nodes = (
"368 0 LINE",
"390 233 LINE",
"371 233 LINE",
"307 0 LINE"
);
},
{
closed = 1;
nodes = (
"333 0 LINE",
"333 30 LINE",
"247 30 LINE",
"247 0 LINE"
);
}
);
width = 416;
},
{
anchors = (
{
name = bottom;
position = "{221, 0}";
},
{
name = center;
position = "{121, 350}";
},
{
name = top;
position = "{121, 700}";
},
{
name = topright;
position = "{369, 700}";
}
);
components = (
{
alignment = -1;
name = "_part.stem-serifs";
transform = "{1, 0, 0, 1, -22, 0}";
},
{
name = _part.longserif;
transform = "{-1, 0, 0, 1, 270, 0}";
}
);
layerId = "09961995-7511-4D97-AA69-D4CC820B8978";
paths = (
{
closed = 1;
nodes = (
"342 0 LINE",
"364 233 LINE",
"355.5 233 LINE",
"291.5 0 LINE"
);
},
{
closed = 1;
nodes = (
"307 0 LINE",
"307 4 LINE",
"221 4 LINE",
"221 0 LINE"
);
}
);
width = 377;
}
);
leftKerningGroup = H;
leftMetricsKey = H;
rightKerningGroup = L;
unicode = "004C,006C";
},
{
color = 4;
glyphname = Lbroken;
lastChange = "2020-10-30 17:53:49 +0000";
layers = (
{
anchors = (
{
name = bottom;
position = "{337, 0}";
},
{
name = center;
position = "{337, 350}";
},
{
name = top;
position = "{337, 700}";
},
{
name = topright;
position = "{523, 700}";
}
);
layerId = "C46E4D83-CAC2-4426-A09C-7F1020C0FA19";
paths = (
{
closed = 1;
nodes = (
"325 0 LINE",
"325 450 LINE",
"175 450 LINE",
"175 700 LINE",
"75 700 LINE",
"75 442 LINE",
"225 442 LINE",
"225 0 LINE"
);
},
{
closed = 1;
nodes = (
"385 0 LINE",
"385 8 LINE",
"165 8 LINE",
"165 0 LINE"
);
},
{
closed = 1;
nodes = (
"461 0 LINE",
"461 8 LINE",
"375 8 LINE",
"375 0 LINE"
);
},
{
closed = 1;
nodes = (
"496 0 LINE",
"518 233 LINE",
"508 233 LINE",
"444 0 LINE"
);
},
{
closed = 1;
nodes = (
"235 692 LINE",
"235 700 LINE",
"15 700 LINE",
"15 692 LINE"
);
}
);
width = 533;
},
{
anchors = (
{
name = bottom;
position = "{357, 0}";
},
{
name = center;
position = "{357, 350}";
},
{
name = top;
position = "{357, 700}";
},
{
name = topright;
position = "{543, 700}";
}
);
layerId = "1CDF7AA2-9B9F-46E0-8866-C4919D639C4C";
paths = (
{
closed = 1;
nodes = (
"345 0 LINE",
"345 460 LINE",
"195 460 LINE",
"195 700 LINE",
"95 700 LINE",
"95 432 LINE",
"245 432 LINE",
"245 0 LINE"
);
},
{
closed = 1;
nodes = (
"405 0 LINE",
"405 28 LINE",
"185 28 LINE",
"185 0 LINE"
);
},
{
closed = 1;
nodes = (
"481 0 LINE",
"481 28 LINE",
"395 28 LINE",
"395 0 LINE"
);
},
{
closed = 1;
nodes = (
"516 0 LINE",
"538 233 LINE",
"520 233 LINE",
"456 0 LINE"
);
},
{
closed = 1;
nodes = (
"255 672 LINE",
"255 700 LINE",
"35 700 LINE",
"35 672 LINE"
);
}
);
width = 563;
},
{
anchors = (
{
name = bottom;
position = "{359, 0}";
},
{
name = center;
position = "{359, 350}";
},
{
name = top;
position = "{359, 700}";
},
{
name = topright;
position = "{545, 700}";
}
);
layerId = "BEE1AFF0-4415-4363-825D-BBA98FF62E65";
paths = (
{
closed = 1;
nodes = (
"347 0 LINE",
"347 461 LINE",
"197 461 LINE",
"197 700 LINE",
"97 700 LINE",
"97 431 LINE",
"247 431 LINE",
"247 0 LINE"
);
},
{
closed = 1;
nodes = (
"407 0 LINE",
"407 30 LINE",
"187 30 LINE",
"187 0 LINE"
);
},
{
closed = 1;
nodes = (
"483 0 LINE",
"483 30 LINE",
"397 30 LINE",
"397 0 LINE"
);
},
{
closed = 1;
nodes = (
"518 0 LINE",
"540 233 LINE",
"521 233 LINE",
"457 0 LINE"
);
},
{
closed = 1;
nodes = (
"257 670 LINE",
"257 700 LINE",
"37 700 LINE",
"37 670 LINE"
);
}
);
width = 566;
},
{
anchors = (
{
name = bottom;
position = "{333, 0}";
},
{
name = center;
position = "{333, 350}";
},
{
name = top;
position = "{333, 700}";
},
{
name = topright;
position = "{519, 700}";
}
);
layerId = "09961995-7511-4D97-AA69-D4CC820B8978";
paths = (
{
closed = 1;
nodes = (
"321 0 LINE",
"321 448 LINE",
"171 448 LINE",
"171 700 LINE",
"71 700 LINE",
"71 444 LINE",
"221 444 LINE",
"221 0 LINE"
);
},
{
closed = 1;
nodes = (
"381 0 LINE",
"381 4 LINE",
"161 4 LINE",
"161 0 LINE"
);
},
{
closed = 1;
nodes = (
"457 0 LINE",
"457 4 LINE",
"371 4 LINE",
"371 0 LINE"
);
},
{
closed = 1;
nodes = (
"492 0 LINE",
"514 233 LINE",
"505.5 233 LINE",
"441.5 0 LINE"
);
},
{
closed = 1;
nodes = (
"231 696 LINE",
"231 700 LINE",
"11 700 LINE",
"11 696 LINE"
);
}
);
width = 527;
}
);
leftKerningGroup = Lbroken;
leftMetricsKey = H;
rightKerningGroup = L;
unicode = "A746,A747";
},
{
color = 4;
glyphname = Lslash;
lastChange = "2020-11-09 15:48:38 +0000";
layers = (
{
components = (
{
name = L;
}
);
layerId = "09961995-7511-4D97-AA69-D4CC820B8978";
paths = (
{
closed = 1;
nodes = (
"272.5 467.5 LINE",
"270.5 471 LINE",
"28 331 LINE",
"30 327.5 LINE"
);
}
);
width = 377;
},
{
components = (
{
name = L;
}
);
layerId = "C46E4D83-CAC2-4426-A09C-7F1020C0FA19";
paths = (
{
closed = 1;
nodes = (
"271.5 469.5 LINE",
"267.5 476.5 LINE",
"25 336.5 LINE",
"29 329.5 LINE"
);
}
);
width = 383;
},
{
components = (
{
name = L;
}
);
layerId = "1CDF7AA2-9B9F-46E0-8866-C4919D639C4C";
paths = (
{
closed = 1;
nodes = (
"281.5 461 LINE",
"267.5 485 LINE",
"25 345 LINE",
"39 321 LINE"
);
}
);
width = 413;
},
{
components = (
{
name = L;
transform = "{1, 0, 0, 1, -4, 0}";
}
);
layerId = "BEE1AFF0-4415-4363-825D-BBA98FF62E65";
paths = (
{
closed = 1;
nodes = (
"283.5 459 LINE",
"268.5 485 LINE",
"26 345 LINE",
"41 319 LINE"
);
}
);
width = 412;
}
);
leftKerningGroup = H;
rightKerningGroup = L;
unicode = "0141,0142";
},
{
color = 4;
glyphname = M;
lastChange = "2020-10-30 17:53:49 +0000";
layers = (
{
anchors = (
{
name = bottom;
position = "{276, 0}";
},
{
name = top;
position = "{276, 700}";
}
);
components = (
{
name = _part.shortserif;
transform = "{1, 0, 0, 1, 337, 0}";
},
{
name = "_part.stem-thin";
},
{
name = "_part.halfstem-right";
transform = "{1, 0, 0, 1, 282, 0}";
}
);
layerId = "C46E4D83-CAC2-4426-A09C-7F1020C0FA19";
paths = (
{
closed = 1;
nodes = (
"276 178.5 LINE",
"174 700 LINE",
"82 700 LINE",
"230 -58 LINE"
);
},
{
closed = 1;
nodes = (
"242 3 LINE",
"378 700 LINE",
"370 700 LINE",
"235 3 LINE"
);
}
);
width = 552;
},
{
associatedMasterId = "C46E4D83-CAC2-4426-A09C-7F1020C0FA19";
backgroundImage = {
crop = "{{0, 0}, {63.36, 91.44}}";
imagePath = "../../Documents/PERSONAL TYPEFACES/PERSONAL TYPEFACES/_FLORIA/_scans lettres 01 /M2.jpg";
locked = "1";
transform = "{9.89657, 0, 0, 9.89657, 0, -155}";
};
layerId = "87931F26-C030-4466-AE55-AEECD0F0AEDF";
name = "Jun 2 20, 19:13";
paths = (
{
closed = 1;
nodes = (
"217 700 LINE",
"113 700 LINE",
"284 -78 LINE",
"388 -78 LINE"
);
},
{
closed = 1;
nodes = (
"389 -78 LINE",
"560 700 LINE",
"456 700 LINE",
"285 -78 LINE"
);
}
);
width = 600;
},
{
associatedMasterId = "C46E4D83-CAC2-4426-A09C-7F1020C0FA19";
backgroundImage = {
crop = "{{0, 0}, {63.36, 91.44}}";
imagePath = "../../Documents/PERSONAL TYPEFACES/PERSONAL TYPEFACES/_FLORIA/_scans lettres 01 /M2.jpg";
locked = "1";
transform = "{9.89657, 0, 0, 9.89657, -11, -155}";
};
components = (
{
name = _part.stem;
transform = "{1, 0, 0, 1, 302, 0}";
}
);
layerId = "B4EEB76A-9217-49F1-8FBE-5DA0961D48A2";
name = "Jun 2 20, 23:05";
paths = (
{
closed = 1;
nodes = (
"296 179 LINE",
"194 700 LINE",
"102 700 LINE",
"250 -58 LINE"
);
},
{
closed = 1;
nodes = (
"163 0 LINE",
"163 8 LINE",
"35 8 LINE",
"35 0 LINE"
);
},
{
closed = 1;
nodes = (
"103 0 LINE",
"103 700 LINE",
"95 700 LINE",
"95 0 LINE"
);
},
{
closed = 1;
nodes = (
"246 -78 LINE",
"398 700 LINE",
"390 700 LINE",
"239 -78 LINE"
);
},
{
closed = 1;
nodes = (
"163 692 LINE",
"163 700 LINE",
"35 700 LINE",
"35 692 LINE"
);
},
{
closed = 1;
nodes = (
"337 692 LINE",
"557 692 LINE",
"557 700 LINE",
"337 700 LINE"
);
},
{
closed = 1;
nodes = (
"337 0 LINE",
"557 0 LINE",
"557 8 LINE",
"337 8 LINE"
);
}
);
width = 592;
},
{
anchors = (
{
name = bottom;
position = "{296, 0}";
},
{
name = top;
position = "{296, 700}";
}
);
components = (
{
name = _part.shortserif;
transform = "{1, 0, 0, 1, 347, 0}";
},
{
name = "_part.stem-thin";
transform = "{1, 0, 0, 1, 10, 0}";
},
{
name = "_part.halfstem-right";
transform = "{1, 0, 0, 1, 292, 0}";
}
);
layerId = "1CDF7AA2-9B9F-46E0-8866-C4919D639C4C";
paths = (
{
closed = 1;
nodes = (
"296 178.5 LINE",
"194 700 LINE",
"102 700 LINE",
"250 -58 LINE"
);
},
{
closed = 1;
nodes = (
"262 3 LINE",
"398 700 LINE",
"369 700 LINE",
"237.5 21 LINE"
);
}
);
width = 592;
},
{
associatedMasterId = "1CDF7AA2-9B9F-46E0-8866-C4919D639C4C";
backgroundImage = {
crop = "{{0, 0}, {63.36, 91.44}}";
imagePath = "../../Documents/PERSONAL TYPEFACES/PERSONAL TYPEFACES/_FLORIA/_scans lettres 01 /M2.jpg";
locked = "1";
transform = "{9.89657, 0, 0, 9.89657, 0, -155}";
};
layerId = "AB09ACAC-6A37-444F-9CD1-D56D615CECF5";
name = "Jun 2 20, 19:13";
paths = (
{
closed = 1;
nodes = (
"217 700 LINE",
"113 700 LINE",
"284 -78 LINE",
"388 -78 LINE"
);
},
{
closed = 1;
nodes = (
"389 -78 LINE",
"560 700 LINE",
"456 700 LINE",
"285 -78 LINE"
);
}
);
width = 600;
},
{
associatedMasterId = "1CDF7AA2-9B9F-46E0-8866-C4919D639C4C";
backgroundImage = {
crop = "{{0, 0}, {63.36, 91.44}}";
imagePath = "../../Documents/PERSONAL TYPEFACES/PERSONAL TYPEFACES/_FLORIA/_scans lettres 01 /M2.jpg";
locked = "1";
transform = "{9.89657, 0, 0, 9.89657, -11, -155}";
};
components = (
{
name = _part.stem;
transform = "{1, 0, 0, 1, 302, 0}";
}
);
layerId = "0091C0CD-9619-41AC-8D8C-B72FC0AB0C51";
name = "Jun 2 20, 23:05";
paths = (
{
closed = 1;
nodes = (
"296 179 LINE",
"194 700 LINE",
"102 700 LINE",
"250 -58 LINE"
);
},
{
closed = 1;
nodes = (
"163 0 LINE",
"163 8 LINE",
"35 8 LINE",
"35 0 LINE"
);
},
{
closed = 1;
nodes = (
"103 0 LINE",
"103 700 LINE",
"95 700 LINE",
"95 0 LINE"
);
},
{
closed = 1;
nodes = (
"246 -78 LINE",
"398 700 LINE",
"390 700 LINE",
"239 -78 LINE"
);
},
{
closed = 1;
nodes = (
"163 692 LINE",
"163 700 LINE",
"35 700 LINE",
"35 692 LINE"
);
},
{
closed = 1;
nodes = (
"337 692 LINE",
"557 692 LINE",
"557 700 LINE",
"337 700 LINE"
);
},
{
closed = 1;
nodes = (
"337 0 LINE",
"557 0 LINE",
"557 8 LINE",
"337 8 LINE"
);
}
);
width = 592;
},
{
anchors = (
{
name = bottom;
position = "{298, 0}";
},
{
name = top;
position = "{298, 700}";
}
);
components = (
{
alignment = -1;
name = _part.shortserif;
transform = "{1, 0, 0, 1, 348, 0}";
},
{
alignment = -1;
name = "_part.stem-thin";
transform = "{1, 0, 0, 1, 11, 0}";
},
{
alignment = -1;
name = "_part.halfstem-right";
transform = "{1, 0, 0, 1, 293, 0}";
}
);
layerId = "BEE1AFF0-4415-4363-825D-BBA98FF62E65";
paths = (
{
closed = 1;
nodes = (
"298 178.5 LINE",
"196 700 LINE",
"104 700 LINE",
"252 -58 LINE"
);
},
{
closed = 1;
nodes = (
"264 3 LINE",
"400 700 LINE",
"369 700 LINE",
"238 23 LINE"
);
}
);
width = 596;
},
{
anchors = (
{
name = bottom;
position = "{272, 0}";
},
{
name = top;
position = "{272, 700}";
}
);
components = (
{
alignment = -1;
name = _part.shortserif;
transform = "{1, 0, 0, 1, 338.5, 0}";
},
{
alignment = -1;
name = "_part.stem-thin";
transform = "{1, 0, 0, 1, -2, 0}";
},
{
alignment = -1;
name = "_part.halfstem-right";
transform = "{1, 0, 0, 1, 280, 0}";
}
);
layerId = "09961995-7511-4D97-AA69-D4CC820B8978";
paths = (
{
closed = 1;
nodes = (
"272 178.5 LINE",
"170 700 LINE",
"78 700 LINE",
"226 -58 LINE"
);
},
{
closed = 1;
nodes = (
"238 3 LINE",
"374 700 LINE",
"370 700 LINE",
"234.5 -0.5 LINE"
);
}
);
width = 544;
}
);
leftKerningGroup = N;
leftMetricsKey = H;
rightKerningGroup = H;
rightMetricsKey = H;
unicode = "004D,006D";
},
{
color = 4;
glyphname = N;
lastChange = "2021-01-11 14:40:13 +0000";
layers = (
{
anchors = (
{
name = bottom;
position = "{240, 0}";
},
{
name = top;
position = "{255, 700}";
}
);
components = (
{
name = _part.shortserif;
transform = "{1, 0, 0, 1, 302, 0}";
},
{
name = "_part.stem-thin";
},
{
name = "_part.verticalstroke-thin";
transform = "{1, 0, 0, 1, 322, 0}";
}
);
guideLines = (
{
angle = 90;
position = "{405, 201}";
},
{
angle = 90;
position = "{75, 500}";
}
);
layerId = "C46E4D83-CAC2-4426-A09C-7F1020C0FA19";
paths = (
{
closed = 1;
nodes = (
"405 201 LINE",
"162 700 LINE",
"75 700 LINE",
"75 628 LINE",
"405 -50 LINE"
);
}
);
width = 480;
},
{
associatedMasterId = "C46E4D83-CAC2-4426-A09C-7F1020C0FA19";
backgroundImage = {
crop = "{{0, 0}, {52.56, 89.28}}";
imagePath = "../../Documents/PERSONAL TYPEFACES/PERSONAL TYPEFACES/_FLORIA/_scans lettres 01 /N.jpg";
locked = "1";
transform = "{9.73675, 0, 0, 9.73675, 2, -90}";
};
layerId = "6CA57E17-B4BD-4144-9591-A1A0A2C4CCE3";
name = "Jun 2 20, 18:40";
paths = (
{
closed = 1;
nodes = (
"197 700 LINE",
"95 700 LINE",
"95 660 LINE",
"384 -75 LINE",
"384 229 LINE"
);
},
{
closed = 1;
nodes = (
"35 0 LINE",
"163 0 LINE",
"163 8 LINE",
"35 8 LINE"
);
},
{
closed = 1;
nodes = (
"103 0 LINE",
"103 700 LINE",
"95 700 LINE",
"95 0 LINE"
);
},
{
closed = 1;
nodes = (
"384 0 LINE",
"384 700 LINE",
"376 700 LINE",
"376 0 LINE"
);
},
{
closed = 1;
nodes = (
"35 692 LINE",
"163 692 LINE",
"163 700 LINE",
"35 700 LINE"
);
},
{
closed = 1;
nodes = (
"316 692 LINE",
"444 692 LINE",
"444 700 LINE",
"316 700 LINE"
);
}
);
width = 479;
},
{
associatedMasterId = "C46E4D83-CAC2-4426-A09C-7F1020C0FA19";
backgroundImage = {
crop = "{{0, 0}, {52.56, 89.28}}";
imagePath = "../../Documents/PERSONAL TYPEFACES/PERSONAL TYPEFACES/_FLORIA/_scans lettres 01 /N.jpg";
locked = "1";
transform = "{9.73675, 0, 0, 9.73675, 2, -90}";
};
components = (
{
name = _part.shortserif;
transform = "{1, 0, 0, 1, 281, 0}";
}
);
layerId = "46DBCC39-8495-4E81-808E-18DC84BDF10B";
name = "Jun 7 20, 12:59";
paths = (
{
closed = 1;
nodes = (
"384 201 LINE",
"182 700 LINE",
"95 700 LINE",
"95 635 LINE",
"384 -78 LINE"
);
},
{
closed = 1;
nodes = (
"163 0 LINE",
"163 8 LINE",
"35 8 LINE",
"35 0 LINE"
);
},
{
closed = 1;
nodes = (
"103 0 LINE",
"103 700 LINE",
"95 700 LINE",
"95 0 LINE"
);
},
{
closed = 1;
nodes = (
"384 0 LINE",
"384 700 LINE",
"376 700 LINE",
"376 0 LINE"
);
},
{
closed = 1;
nodes = (
"163 692 LINE",
"163 700 LINE",
"35 700 LINE",
"35 692 LINE"
);
}
);
width = 479;
},
{
anchors = (
{
name = bottom;
position = "{260, 0}";
},
{
name = top;
position = "{280, 700}";
}
);
components = (
{
name = _part.shortserif;
transform = "{1, 0, 0, 1, 312, 0}";
},
{
name = "_part.stem-thin";
transform = "{1, 0, 0, 1, 10, 0}";
},
{
name = "_part.verticalstroke-thin";
transform = "{1, 0, 0, 1, 332, 0}";
}
);
guideLines = (
{
angle = 90;
position = "{415, 201}";
},
{
angle = 90;
position = "{65, 500}";
}
);
layerId = "1CDF7AA2-9B9F-46E0-8866-C4919D639C4C";
paths = (
{
closed = 1;
nodes = (
"435 191 LINE",
"182 700 LINE",
"95 700 LINE",
"95 628 LINE",
"435 -56.5 LINE"
);
}
);
width = 520;
},
{
associatedMasterId = "1CDF7AA2-9B9F-46E0-8866-C4919D639C4C";
backgroundImage = {
crop = "{{0, 0}, {52.56, 89.28}}";
imagePath = "../../Documents/PERSONAL TYPEFACES/PERSONAL TYPEFACES/_FLORIA/_scans lettres 01 /N.jpg";
locked = "1";
transform = "{9.73675, 0, 0, 9.73675, 2, -90}";
};
layerId = "34FCEABB-387D-4878-91B5-64AC0CBB2887";
name = "Jun 2 20, 18:40";
paths = (
{
closed = 1;
nodes = (
"197 700 LINE",
"95 700 LINE",
"95 660 LINE",
"384 -75 LINE",
"384 229 LINE"
);
},
{
closed = 1;
nodes = (
"35 0 LINE",
"163 0 LINE",
"163 8 LINE",
"35 8 LINE"
);
},
{
closed = 1;
nodes = (
"103 0 LINE",
"103 700 LINE",
"95 700 LINE",
"95 0 LINE"
);
},
{
closed = 1;
nodes = (
"384 0 LINE",
"384 700 LINE",
"376 700 LINE",
"376 0 LINE"
);
},
{
closed = 1;
nodes = (
"35 692 LINE",
"163 692 LINE",
"163 700 LINE",
"35 700 LINE"
);
},
{
closed = 1;
nodes = (
"316 692 LINE",
"444 692 LINE",
"444 700 LINE",
"316 700 LINE"
);
}
);
width = 479;
},
{
associatedMasterId = "1CDF7AA2-9B9F-46E0-8866-C4919D639C4C";
backgroundImage = {
crop = "{{0, 0}, {52.56, 89.28}}";
imagePath = "../../Documents/PERSONAL TYPEFACES/PERSONAL TYPEFACES/_FLORIA/_scans lettres 01 /N.jpg";
locked = "1";
transform = "{9.73675, 0, 0, 9.73675, 2, -90}";
};
components = (
{
name = _part.shortserif;
transform = "{1, 0, 0, 1, 281, 0}";
}
);
layerId = "E4BF0079-5829-422C-B0E6-448271816BF0";
name = "Jun 7 20, 12:59";
paths = (
{
closed = 1;
nodes = (
"384 201 LINE",
"182 700 LINE",
"95 700 LINE",
"95 635 LINE",
"384 -78 LINE"
);
},
{
closed = 1;
nodes = (
"163 0 LINE",
"163 8 LINE",
"35 8 LINE",
"35 0 LINE"
);
},
{
closed = 1;
nodes = (
"103 0 LINE",
"103 700 LINE",
"95 700 LINE",
"95 0 LINE"
);
},
{
closed = 1;
nodes = (
"384 0 LINE",
"384 700 LINE",
"376 700 LINE",
"376 0 LINE"
);
},
{
closed = 1;
nodes = (
"163 692 LINE",
"163 700 LINE",
"35 700 LINE",
"35 692 LINE"
);
}
);
width = 479;
},
{
anchors = (
{
name = bottom;
position = "{262, 0}";
},
{
name = top;
position = "{283, 700}";
}
);
components = (
{
alignment = -1;
name = _part.shortserif;
transform = "{1, 0, 0, 1, 313, 0}";
},
{
alignment = -1;
name = "_part.stem-thin";
transform = "{1, 0, 0, 1, 11, 0}";
},
{
alignment = -1;
name = "_part.verticalstroke-thin";
transform = "{1, 0, 0, 1, 333, 0}";
}
);
layerId = "BEE1AFF0-4415-4363-825D-BBA98FF62E65";
paths = (
{
closed = 1;
nodes = (
"438 190 LINE",
"184 700 LINE",
"97 700 LINE",
"97 628 LINE",
"438 -57 LINE"
);
}
);
width = 524;
},
{
anchors = (
{
name = bottom;
position = "{236, 0}";
},
{
name = top;
position = "{250, 700}";
}
);
components = (
{
alignment = -1;
name = _part.shortserif;
transform = "{1, 0, 0, 1, 300, 0}";
},
{
alignment = -1;
name = "_part.stem-thin";
transform = "{1, 0, 0, 1, -2, 0}";
},
{
alignment = -1;
name = "_part.verticalstroke-thin";
transform = "{1, 0, 0, 1, 320, 0}";
}
);
layerId = "09961995-7511-4D97-AA69-D4CC820B8978";
paths = (
{
closed = 1;
nodes = (
"399 203 LINE",
"158 700 LINE",
"73 700 LINE",
"73 628 LINE",
"399 -45 LINE"
);
}
);
width = 472;
}
);
leftKerningGroup = N;
leftMetricsKey = H;
rightKerningGroup = N;
rightMetricsKey = H;
unicode = "004E,006E";
},
{
color = 4;
glyphname = Eng;
lastChange = "2020-10-30 17:53:49 +0000";
layers = (
{
anchors = (
{
name = bottom;
position = "{240, 0}";
},
{
name = top;
position = "{260, 700}";
}
);
components = (
{
name = _part.shortserif;
transform = "{1, 0, 0, 1, 302, 0}";
},
{
name = "_part.stem-thin";
},
{
name = "_part.verticalstroke-thin";
transform = "{1, 0, 0, 1, 322, 0}";
}
);
guideLines = (
{
position = "{62.5, -177.5}";
}
);
layerId = "C46E4D83-CAC2-4426-A09C-7F1020C0FA19";
paths = (
{
closed = 1;
nodes = (
"405 201 LINE",
"162 700 LINE",
"75 700 LINE",
"75 628 LINE",
"405 -50 LINE"
);
},
{
closed = 1;
nodes = (
"386.5 -177.5 OFFCURVE",
"405 -133.5 OFFCURVE",
"405 -67 CURVE SMOOTH",
"405 0 LINE",
"397 0 LINE",
"397 -67 LINE SMOOTH",
"397 -103.5 OFFCURVE",
"384.5 -127.5 OFFCURVE",
"365.5 -127.5 CURVE SMOOTH",
"344.5 -127.5 OFFCURVE",
"322.5 -101.5 OFFCURVE",
"310.5 -63 CURVE",
"304.5 -67.5 LINE",
"308 -133.5 OFFCURVE",
"329.5 -177.5 OFFCURVE",
"358.5 -177.5 CURVE SMOOTH"
);
}
);
width = 480;
},
{
anchors = (
{
name = bottom;
position = "{250, 0}";
},
{
name = top;
position = "{270, 700}";
}
);
components = (
{
name = _part.shortserif;
transform = "{1, 0, 0, 1, 302, 0}";
},
{
name = "_part.stem-thin";
},
{
name = "_part.verticalstroke-thin";
transform = "{1, 0, 0, 1, 322, 0}";
}
);
guideLines = (
{
position = "{42.5, -177.5}";
}
);
layerId = "1CDF7AA2-9B9F-46E0-8866-C4919D639C4C";
paths = (
{
closed = 1;
nodes = (
"425 191 LINE",
"172 700 LINE",
"85 700 LINE",
"85 628 LINE",
"425 -56.5 LINE"
);
},
{
closed = 1;
nodes = (
"402.5 -177.5 OFFCURVE",
"425 -142 OFFCURVE",
"425 -67 CURVE SMOOTH",
"425 0 LINE",
"397 0 LINE",
"397 -67 LINE SMOOTH",
"397 -103.5 OFFCURVE",
"392 -127.5 OFFCURVE",
"371.5 -127.5 CURVE SMOOTH",
"350.5 -127.5 OFFCURVE",
"332.5 -101.5 OFFCURVE",
"320.5 -63 CURVE",
"302.5 -67.5 LINE",
"306 -133.5 OFFCURVE",
"339.5 -177.5 OFFCURVE",
"368.5 -177.5 CURVE SMOOTH"
);
}
);
width = 500;
},
{
anchors = (
{
name = bottom;
position = "{251, 0}";
},
{
name = top;
position = "{271, 700}";
}
);
components = (
{
alignment = -1;
name = _part.shortserif;
transform = "{1, 0, 0, 1, 302, 0}";
},
{
alignment = -1;
name = "_part.stem-thin";
},
{
alignment = -1;
name = "_part.verticalstroke-thin";
transform = "{1, 0, 0, 1, 322, 0}";
}
);
layerId = "BEE1AFF0-4415-4363-825D-BBA98FF62E65";
paths = (
{
closed = 1;
nodes = (
"427 190 LINE",
"173 700 LINE",
"86 700 LINE",
"86 628 LINE",
"427 -57 LINE"
);
},
{
closed = 1;
nodes = (
"404 -177.5 OFFCURVE",
"427 -143 OFFCURVE",
"427 -67 CURVE SMOOTH",
"427 0 LINE",
"397 0 LINE",
"397 -67 LINE SMOOTH",
"397 -103.5 OFFCURVE",
"393 -127.5 OFFCURVE",
"372 -127.5 CURVE SMOOTH",
"351 -127.5 OFFCURVE",
"333.5 -101.5 OFFCURVE",
"321.5 -63 CURVE",
"302.5 -67.5 LINE",
"306 -133.5 OFFCURVE",
"340.5 -177.5 OFFCURVE",
"369.5 -177.5 CURVE SMOOTH"
);
}
);
width = 502;
},
{
anchors = (
{
name = bottom;
position = "{238, 0}";
},
{
name = top;
position = "{258, 700}";
}
);
components = (
{
alignment = -1;
name = _part.shortserif;
transform = "{1, 0, 0, 1, 302, 0}";
},
{
alignment = -1;
name = "_part.stem-thin";
},
{
alignment = -1;
name = "_part.verticalstroke-thin";
transform = "{1, 0, 0, 1, 322, 0}";
}
);
layerId = "09961995-7511-4D97-AA69-D4CC820B8978";
paths = (
{
closed = 1;
nodes = (
"401 203 LINE",
"160 700 LINE",
"73 700 LINE",
"73 628 LINE",
"401 -49 LINE"
);
},
{
closed = 1;
nodes = (
"383.5 -177.5 OFFCURVE",
"401 -131.5 OFFCURVE",
"401 -67 CURVE SMOOTH",
"401 0 LINE",
"397 0 LINE",
"397 -67 LINE SMOOTH",
"397 -103.5 OFFCURVE",
"383 -127.5 OFFCURVE",
"364.5 -127.5 CURVE SMOOTH",
"343.5 -127.5 OFFCURVE",
"320.5 -101.5 OFFCURVE",
"308.5 -63 CURVE",
"305 -67.5 LINE",
"308.5 -133.5 OFFCURVE",
"327.5 -177.5 OFFCURVE",
"356.5 -177.5 CURVE SMOOTH"
);
}
);
width = 476;
}
);
leftKerningGroup = N;
rightKerningGroup = N;
unicode = "014A,014B";
},
{
color = 4;
glyphname = O;
lastChange = "2020-11-05 18:34:19 +0000";
layers = (
{
anchors = (
{
name = bottom;
position = "{240, 0}";
},
{
name = center;
position = "{240, 350}";
},
{
name = ogonek;
position = "{456, 10}";
},
{
name = top;
position = "{240, 700}";
},
{
name = topleft;
position = "{-10, 700}";
},
{
name = topright;
position = "{490, 700}";
}
);
guideLines = (
{
position = "{-69, -8}";
}
);
layerId = "C46E4D83-CAC2-4426-A09C-7F1020C0FA19";
paths = (
{
closed = 1;
nodes = (
"465 350 LINE",
"465 526 OFFCURVE",
"398 708 OFFCURVE",
"240 708 CURVE",
"240 700 LINE",
"317 700 OFFCURVE",
"355 558 OFFCURVE",
"355 350 CURVE"
);
},
{
closed = 1;
nodes = (
"240 0 LINE",
"163 0 OFFCURVE",
"125 142 OFFCURVE",
"125 350 CURVE",
"15 350 LINE",
"15 174 OFFCURVE",
"82 -8 OFFCURVE",
"240 -8 CURVE"
);
},
{
closed = 1;
nodes = (
"398 -8 OFFCURVE",
"465 174 OFFCURVE",
"465 350 CURVE",
"355 350 LINE",
"355 142 OFFCURVE",
"317 0 OFFCURVE",
"240 0 CURVE",
"240 -8 LINE"
);
},
{
closed = 1;
nodes = (
"125 350 LINE",
"125 558 OFFCURVE",
"163 700 OFFCURVE",
"240 700 CURVE",
"240 708 LINE",
"82 708 OFFCURVE",
"15 526 OFFCURVE",
"15 350 CURVE"
);
}
);
width = 480;
},
{
associatedMasterId = "C46E4D83-CAC2-4426-A09C-7F1020C0FA19";
backgroundImage = {
crop = "{{0, 0}, {62.64, 81.36}}";
imagePath = "../../Documents/PERSONAL TYPEFACES/PERSONAL TYPEFACES/_FLORIA/_scans lettres 01 /02.jpg";
locked = "1";
transform = "{9.80303, 0, 0, 9.80303, -69, -40}";
};
layerId = "91B5F3FD-A780-48FA-9CE8-8797E90E6D24";
name = "Jun 5 20, 21:42";
paths = (
{
closed = 1;
nodes = (
"238 705 LINE",
"326 705 OFFCURVE",
"350 631 OFFCURVE",
"350 350 CURVE",
"460 350 LINE",
"460 611 OFFCURVE",
"393 713 OFFCURVE",
"255 713 CURVE"
);
},
{
closed = 1;
nodes = (
"117 713 OFFCURVE",
"50 611 OFFCURVE",
"50 350 CURVE",
"160 350 LINE",
"160 631 OFFCURVE",
"184 705 OFFCURVE",
"272 705 CURVE",
"255 713 LINE"
);
},
{
closed = 1;
nodes = (
"393 -13 OFFCURVE",
"460 89 OFFCURVE",
"460 350 CURVE",
"350 350 LINE",
"350 69 OFFCURVE",
"326 -5 OFFCURVE",
"238 -5 CURVE",
"255 -13 LINE"
);
},
{
closed = 1;
nodes = (
"272 -5 LINE",
"184 -5 OFFCURVE",
"160 69 OFFCURVE",
"160 350 CURVE",
"50 350 LINE",
"50 89 OFFCURVE",
"117 -13 OFFCURVE",
"255 -13 CURVE"
);
}
);
width = 510;
},
{
anchors = (
{
name = bottom;
position = "{260, 0}";
},
{
name = center;
position = "{260, 350}";
},
{
name = ogonek;
position = "{476, 10}";
},
{
name = top;
position = "{260, 700}";
},
{
name = topleft;
position = "{10, 700}";
},
{
name = topright;
position = "{510, 700}";
}
);
guideLines = (
{
position = "{-79, -8}";
}
);
layerId = "1CDF7AA2-9B9F-46E0-8866-C4919D639C4C";
paths = (
{
closed = 1;
nodes = (
"485 350 LINE",
"485 526 OFFCURVE",
"418 708 OFFCURVE",
"260 708 CURVE",
"260 680 LINE",
"337 680 OFFCURVE",
"375 558 OFFCURVE",
"375 350 CURVE"
);
},
{
closed = 1;
nodes = (
"260 20 LINE",
"183 20 OFFCURVE",
"145 142 OFFCURVE",
"145 350 CURVE",
"35 350 LINE",
"35 174 OFFCURVE",
"102 -8 OFFCURVE",
"260 -8 CURVE"
);
},
{
closed = 1;
nodes = (
"418 -8 OFFCURVE",
"485 174 OFFCURVE",
"485 350 CURVE",
"375 350 LINE",
"375 142 OFFCURVE",
"337 20 OFFCURVE",
"260 20 CURVE",
"260 -8 LINE"
);
},
{
closed = 1;
nodes = (
"145 350 LINE",
"145 558 OFFCURVE",
"183 680 OFFCURVE",
"260 680 CURVE",
"260 708 LINE",
"102 708 OFFCURVE",
"35 526 OFFCURVE",
"35 350 CURVE"
);
}
);
width = 520;
},
{
associatedMasterId = "1CDF7AA2-9B9F-46E0-8866-C4919D639C4C";
backgroundImage = {
crop = "{{0, 0}, {62.64, 81.36}}";
imagePath = "../../Documents/PERSONAL TYPEFACES/PERSONAL TYPEFACES/_FLORIA/_scans lettres 01 /02.jpg";
locked = "1";
transform = "{9.80303, 0, 0, 9.80303, -69, -40}";
};
layerId = "8CB95B7E-AFFB-46E6-BDCE-92805924EF19";
name = "Jun 5 20, 21:42";
paths = (
{
closed = 1;
nodes = (
"238 705 LINE",
"326 705 OFFCURVE",
"350 631 OFFCURVE",
"350 350 CURVE",
"460 350 LINE",
"460 611 OFFCURVE",
"393 713 OFFCURVE",
"255 713 CURVE"
);
},
{
closed = 1;
nodes = (
"117 713 OFFCURVE",
"50 611 OFFCURVE",
"50 350 CURVE",
"160 350 LINE",
"160 631 OFFCURVE",
"184 705 OFFCURVE",
"272 705 CURVE",
"255 713 LINE"
);
},
{
closed = 1;
nodes = (
"393 -13 OFFCURVE",
"460 89 OFFCURVE",
"460 350 CURVE",
"350 350 LINE",
"350 69 OFFCURVE",
"326 -5 OFFCURVE",
"238 -5 CURVE",
"255 -13 LINE"
);
},
{
closed = 1;
nodes = (
"272 -5 LINE",
"184 -5 OFFCURVE",
"160 69 OFFCURVE",
"160 350 CURVE",
"50 350 LINE",
"50 89 OFFCURVE",
"117 -13 OFFCURVE",
"255 -13 CURVE"
);
}
);
width = 510;
},
{
anchors = (
{
name = bottom;
position = "{262, 0}";
},
{
name = center;
position = "{262, 350}";
},
{
name = ogonek;
position = "{478, 10}";
},
{
name = top;
position = "{262, 700}";
},
{
name = topleft;
position = "{12, 700}";
},
{
name = topright;
position = "{512, 700}";
}
);
layerId = "BEE1AFF0-4415-4363-825D-BBA98FF62E65";
paths = (
{
closed = 1;
nodes = (
"487 350 LINE",
"487 526 OFFCURVE",
"420 708 OFFCURVE",
"262 708 CURVE",
"262 678 LINE",
"339 678 OFFCURVE",
"377 558 OFFCURVE",
"377 350 CURVE"
);
},
{
closed = 1;
nodes = (
"262 22 LINE",
"185 22 OFFCURVE",
"147 142 OFFCURVE",
"147 350 CURVE",
"37 350 LINE",
"37 174 OFFCURVE",
"104 -8 OFFCURVE",
"262 -8 CURVE"
);
},
{
closed = 1;
nodes = (
"420 -8 OFFCURVE",
"487 174 OFFCURVE",
"487 350 CURVE",
"377 350 LINE",
"377 142 OFFCURVE",
"339 22 OFFCURVE",
"262 22 CURVE",
"262 -8 LINE"
);
},
{
closed = 1;
nodes = (
"147 350 LINE",
"147 558 OFFCURVE",
"185 678 OFFCURVE",
"262 678 CURVE",
"262 708 LINE",
"104 708 OFFCURVE",
"37 526 OFFCURVE",
"37 350 CURVE"
);
}
);
width = 524;
},
{
anchors = (
{
name = bottom;
position = "{235, 0}";
},
{
name = center;
position = "{235, 350}";
},
{
name = ogonek;
position = "{451, 10}";
},
{
name = top;
position = "{235, 700}";
},
{
name = topleft;
position = "{-15, 700}";
},
{
name = topright;
position = "{485, 700}";
}
);
layerId = "09961995-7511-4D97-AA69-D4CC820B8978";
paths = (
{
closed = 1;
nodes = (
"460 350 LINE",
"460 526 OFFCURVE",
"393 708 OFFCURVE",
"235 708 CURVE",
"235 704 LINE",
"312 704 OFFCURVE",
"350 558 OFFCURVE",
"350 350 CURVE"
);
},
{
closed = 1;
nodes = (
"235 -4 LINE",
"158 -4 OFFCURVE",
"120 142 OFFCURVE",
"120 350 CURVE",
"10 350 LINE",
"10 174 OFFCURVE",
"77 -8 OFFCURVE",
"235 -8 CURVE"
);
},
{
closed = 1;
nodes = (
"393 -8 OFFCURVE",
"460 174 OFFCURVE",
"460 350 CURVE",
"350 350 LINE",
"350 142 OFFCURVE",
"312 -4 OFFCURVE",
"235 -4 CURVE",
"235 -8 LINE"
);
},
{
closed = 1;
nodes = (
"120 350 LINE",
"120 558 OFFCURVE",
"158 704 OFFCURVE",
"235 704 CURVE",
"235 708 LINE",
"77 708 OFFCURVE",
"10 526 OFFCURVE",
"10 350 CURVE"
);
}
);
width = 470;
}
);
leftKerningGroup = O;
rightKerningGroup = O;
unicode = "004F,006F";
},
{
color = 4;
glyphname = Oslash;
lastChange = "2020-11-05 21:58:30 +0000";
layers = (
{
components = (
{
name = O;
}
);
layerId = "C46E4D83-CAC2-4426-A09C-7F1020C0FA19";
paths = (
{
closed = 1;
nodes = (
"69.5 -50 LINE",
"419.5 750 LINE",
"410.5 750 LINE",
"60.5 -50 LINE"
);
}
);
width = 480;
},
{
components = (
{
name = O;
}
);
layerId = "1CDF7AA2-9B9F-46E0-8866-C4919D639C4C";
paths = (
{
closed = 1;
nodes = (
"90.5 -50 LINE",
"440.5 750 LINE",
"409.5 750 LINE",
"59.5 -50 LINE"
);
}
);
width = 520;
},
{
components = (
{
alignment = -1;
name = O;
}
);
layerId = "BEE1AFF0-4415-4363-825D-BBA98FF62E65";
paths = (
{
closed = 1;
nodes = (
"92.5 -50 LINE",
"442.5 750 LINE",
"409.5 750 LINE",
"59.5 -50 LINE"
);
}
);
width = 524;
},
{
components = (
{
alignment = -1;
name = O;
}
);
layerId = "09961995-7511-4D97-AA69-D4CC820B8978";
paths = (
{
closed = 1;
nodes = (
"65.5 -50 LINE",
"415.5 750 LINE",
"410.5 750 LINE",
"60.5 -50 LINE"
);
}
);
width = 470;
}
);
leftKerningGroup = O;
leftMetricsKey = O;
rightKerningGroup = O;
rightMetricsKey = O;
unicode = "00D8,00F8";
},
{
color = 4;
glyphname = OE;
lastChange = "2021-01-11 14:53:56 +0000";
layers = (
{
backgroundImage = {
crop = "{{0, 0}, {68.4, 81.36}}";
imagePath = "../../Documents/PERSONAL TYPEFACES/PERSONAL TYPEFACES/_FLORIA/_scans lettres 01 /OE.jpg";
locked = "1";
transform = "{9.81589, 0, 0, 9.81589, -25, -61}";
};
layerId = "C46E4D83-CAC2-4426-A09C-7F1020C0FA19";
paths = (
{
closed = 1;
nodes = (
"125 350 LINE",
"125 558 OFFCURVE",
"163 692 OFFCURVE",
"290 692 CURVE",
"290 700 LINE",
"82 700 OFFCURVE",
"15 526 OFFCURVE",
"15 350 CURVE"
);
},
{
closed = 1;
nodes = (
"290 8 LINE",
"163 8 OFFCURVE",
"125 142 OFFCURVE",
"125 350 CURVE",
"15 350 LINE",
"15 174 OFFCURVE",
"82 0 OFFCURVE",
"290 0 CURVE"
);
},
{
closed = 1;
nodes = (
"496 0 LINE",
"496 8 LINE",
"360 8 LINE",
"360 0 LINE"
);
},
{
closed = 1;
nodes = (
"513 0 LINE",
"568 168 LINE",
"559 168 LINE",
"472 0 LINE"
);
},
{
closed = 1;
nodes = (
"380 0 LINE",
"380 700 LINE",
"280 700 LINE",
"280 0 LINE"
);
},
{
closed = 1;
nodes = (
"480 303 LINE",
"480 421 LINE",
"452 421 LINE",
"470 303 LINE"
);
},
{
closed = 1;
nodes = (
"480 413 LINE",
"480 421 LINE",
"370 421 LINE",
"370 413 LINE"
);
},
{
closed = 1;
nodes = (
"480 413 LINE",
"480 531 LINE",
"470 531 LINE",
"452 413 LINE"
);
},
{
closed = 1;
nodes = (
"538 532 LINE",
"513 700 LINE",
"472 700 LINE",
"529 532 LINE"
);
},
{
closed = 1;
nodes = (
"506 692 LINE",
"506 700 LINE",
"380 700 LINE",
"380 692 LINE"
);
}
);
width = 578;
},
{
backgroundImage = {
crop = "{{0, 0}, {68.4, 81.36}}";
imagePath = "../../Documents/PERSONAL TYPEFACES/PERSONAL TYPEFACES/_FLORIA/_scans lettres 01 /OE.jpg";
locked = "1";
transform = "{9.81589, 0, 0, 9.81589, -15, -61}";
};
layerId = "1CDF7AA2-9B9F-46E0-8866-C4919D639C4C";
paths = (
{
closed = 1;
nodes = (
"145 350 LINE",
"145 558 OFFCURVE",
"183 672 OFFCURVE",
"310 672 CURVE",
"310 700 LINE",
"102 700 OFFCURVE",
"35 526 OFFCURVE",
"35 350 CURVE"
);
},
{
closed = 1;
nodes = (
"310 28 LINE",
"183 28 OFFCURVE",
"145 142 OFFCURVE",
"145 350 CURVE",
"35 350 LINE",
"35 174 OFFCURVE",
"102 0 OFFCURVE",
"310 0 CURVE"
);
},
{
closed = 1;
nodes = (
"516 0 LINE",
"516 28 LINE",
"380 28 LINE",
"380 0 LINE"
);
},
{
closed = 1;
nodes = (
"533 0 LINE",
"588 168 LINE",
"570 168 LINE",
"483 0 LINE"
);
},
{
closed = 1;
nodes = (
"400 0 LINE",
"400 700 LINE",
"300 700 LINE",
"300 0 LINE"
);
},
{
closed = 1;
nodes = (
"508 303 LINE",
"508 421 LINE",
"467 421 LINE",
"490 303 LINE"
);
},
{
closed = 1;
nodes = (
"508 403 LINE",
"508 431 LINE",
"390 431 LINE",
"390 403 LINE"
);
},
{
closed = 1;
nodes = (
"508 413 LINE",
"508 531 LINE",
"490 531 LINE",
"467 413 LINE"
);
},
{
closed = 1;
nodes = (
"563 532 LINE",
"538 700 LINE",
"488 700 LINE",
"545 532 LINE"
);
},
{
closed = 1;
nodes = (
"526 672 LINE",
"526 700 LINE",
"400 700 LINE",
"400 672 LINE"
);
}
);
width = 618;
},
{
layerId = "BEE1AFF0-4415-4363-825D-BBA98FF62E65";
paths = (
{
closed = 1;
nodes = (
"147 350 LINE",
"147 558 OFFCURVE",
"185 670 OFFCURVE",
"312 670 CURVE",
"312 700 LINE",
"104 700 OFFCURVE",
"37 526 OFFCURVE",
"37 350 CURVE"
);
},
{
closed = 1;
nodes = (
"312 30 LINE",
"185 30 OFFCURVE",
"147 142 OFFCURVE",
"147 350 CURVE",
"37 350 LINE",
"37 174 OFFCURVE",
"104 0 OFFCURVE",
"312 0 CURVE"
);
},
{
closed = 1;
nodes = (
"518 0 LINE",
"518 30 LINE",
"382 30 LINE",
"382 0 LINE"
);
},
{
closed = 1;
nodes = (
"535 0 LINE",
"590 168 LINE",
"571 168 LINE",
"484 0 LINE"
);
},
{
closed = 1;
nodes = (
"402 0 LINE",
"402 700 LINE",
"302 700 LINE",
"302 0 LINE"
);
},
{
closed = 1;
nodes = (
"511 303 LINE",
"511 421 LINE",
"468.5 421 LINE",
"492 303 LINE"
);
},
{
closed = 1;
nodes = (
"511 402 LINE",
"511 432 LINE",
"392 432 LINE",
"392 402 LINE"
);
},
{
closed = 1;
nodes = (
"511 413 LINE",
"511 531 LINE",
"492 531 LINE",
"468.5 413 LINE"
);
},
{
closed = 1;
nodes = (
"565.5 532 LINE",
"540.5 700 LINE",
"489.5 700 LINE",
"546.5 532 LINE"
);
},
{
closed = 1;
nodes = (
"528 670 LINE",
"528 700 LINE",
"402 700 LINE",
"402 670 LINE"
);
}
);
width = 622;
},
{
layerId = "09961995-7511-4D97-AA69-D4CC820B8978";
paths = (
{
closed = 1;
nodes = (
"120 350 LINE",
"120 558 OFFCURVE",
"158 696 OFFCURVE",
"285 696 CURVE",
"285 700 LINE",
"77 700 OFFCURVE",
"10 526 OFFCURVE",
"10 350 CURVE"
);
},
{
closed = 1;
nodes = (
"285 4 LINE",
"158 4 OFFCURVE",
"120 142 OFFCURVE",
"120 350 CURVE",
"10 350 LINE",
"10 174 OFFCURVE",
"77 0 OFFCURVE",
"285 0 CURVE"
);
},
{
closed = 1;
nodes = (
"491 0 LINE",
"491 4 LINE",
"355 4 LINE",
"355 0 LINE"
);
},
{
closed = 1;
nodes = (
"508 0 LINE",
"563 168 LINE",
"556 168 LINE",
"469 0 LINE"
);
},
{
closed = 1;
nodes = (
"375 0 LINE",
"375 700 LINE",
"275 700 LINE",
"275 0 LINE"
);
},
{
closed = 1;
nodes = (
"473.5 303 LINE",
"473.5 419 LINE",
"448 419 LINE",
"465 303 LINE"
);
},
{
closed = 1;
nodes = (
"473.5 415 LINE",
"473.5 419 LINE",
"365 419 LINE",
"365 415 LINE"
);
},
{
closed = 1;
nodes = (
"473.5 415 LINE",
"473.5 531 LINE",
"465 531 LINE",
"448 415 LINE"
);
},
{
closed = 1;
nodes = (
"532 532 LINE",
"507 700 LINE",
"468 700 LINE",
"525 532 LINE"
);
},
{
closed = 1;
nodes = (
"501 696 LINE",
"501 700 LINE",
"375 700 LINE",
"375 696 LINE"
);
}
);
width = 569;
}
);
leftKerningGroup = O;
leftMetricsKey = O;
rightKerningGroup = E;
rightMetricsKey = E;
unicode = "0152,0153";
},
{
color = 4;
glyphname = P;
lastChange = "2021-01-11 15:07:12 +0000";
layers = (
{
anchors = (
{
name = bottom;
position = "{247, 0}";
},
{
name = top;
position = "{247, 700}";
}
);
associatedMasterId = "C46E4D83-CAC2-4426-A09C-7F1020C0FA19";
components = (
{
name = "_part.stem-serifs";
}
);
layerId = "8087B171-6BA4-4DDB-8DA1-60EB0334CDB1";
name = "Jun 11 20, 14:37";
paths = (
{
closed = 1;
nodes = (
"192 313 LINE",
"192 305 LINE",
"251 305 LINE SMOOTH",
"379 305 OFFCURVE",
"468 377 OFFCURVE",
"468 500 CURVE",
"373 500 LINE",
"373 382 OFFCURVE",
"309 313 OFFCURVE",
"214 313 CURVE SMOOTH"
);
},
{
closed = 1;
nodes = (
"301 692 OFFCURVE",
"373 638 OFFCURVE",
"373 500 CURVE",
"468 500 LINE",
"468 630 OFFCURVE",
"379 700 OFFCURVE",
"251 700 CURVE SMOOTH",
"192 700 LINE",
"192 692 LINE",
"214 692 LINE SMOOTH"
);
}
);
width = 493;
},
{
anchors = (
{
name = bottom;
position = "{627, 0}";
},
{
name = top;
position = "{627, 700}";
}
);
associatedMasterId = "C46E4D83-CAC2-4426-A09C-7F1020C0FA19";
components = (
{
name = _part.longserif;
transform = "{-1, 0, 0, -1, 270, 700}";
},
{
name = "_part.stem-serifs";
transform = "{1, 0, 0, 1, 380, 0}";
}
);
layerId = "C1EF3242-4FD1-4732-9A16-07E7A11EDD42";
name = "Jul 10 20, 17:30";
paths = (
{
closed = 1;
nodes = (
"164 233 LINE",
"164 225 LINE",
"226 225 LINE SMOOTH",
"354.5 225 OFFCURVE",
"420 319 OFFCURVE",
"420 460 CURVE",
"325 460 LINE",
"325 324 OFFCURVE",
"282.5 233 OFFCURVE",
"189 233 CURVE SMOOTH"
);
},
{
closed = 1;
nodes = (
"282.5 692 OFFCURVE",
"325 599 OFFCURVE",
"325 460 CURVE",
"420 460 LINE",
"420 604 OFFCURVE",
"354.5 700 OFFCURVE",
"226 700 CURVE SMOOTH",
"164 700 LINE",
"164 692 LINE",
"189 692 LINE SMOOTH"
);
},
{
closed = 1;
nodes = (
"175 0 LINE",
"175 700 LINE",
"75 700 LINE",
"75 0 LINE"
);
},
{
closed = 1;
nodes = (
"125 692 LINE",
"125 700 LINE",
"15 700 LINE",
"15 692 LINE"
);
},
{
closed = 1;
nodes = (
"572 183 LINE",
"572 175 LINE",
"631 175 LINE SMOOTH",
"756 175 OFFCURVE",
"845 297 OFFCURVE",
"845 435 CURVE",
"750 435 LINE",
"750 302 OFFCURVE",
"686 183 OFFCURVE",
"594 183 CURVE SMOOTH"
);
},
{
closed = 1;
nodes = (
"678 692 OFFCURVE",
"750 573 OFFCURVE",
"750 435 CURVE",
"845 435 LINE",
"845 565 OFFCURVE",
"756 700 OFFCURVE",
"631 700 CURVE SMOOTH",
"572 700 LINE",
"572 692 LINE",
"594 692 LINE SMOOTH"
);
}
);
width = 860;
},
{
components = (
{
name = "_part.halfstem-left";
},
{
name = _part.longserif;
transform = "{-1, 0, 0, -1, 280, 700}";
}
);
layerId = "C46E4D83-CAC2-4426-A09C-7F1020C0FA19";
paths = (
{
closed = 1;
nodes = (
"231 155 LINE SMOOTH",
"361 155 OFFCURVE",
"438 273 OFFCURVE",
"438 450 CURVE",
"343 450 LINE",
"343 278 OFFCURVE",
"289.5 163 OFFCURVE",
"194 163 CURVE SMOOTH",
"172 163 LINE",
"172 155 LINE"
);
},
{
closed = 1;
nodes = (
"438 450 LINE",
"438 600 OFFCURVE",
"361 700 OFFCURVE",
"231 700 CURVE SMOOTH",
"172 700 LINE",
"172 692 LINE",
"194 692 LINE SMOOTH",
"289.5 692 OFFCURVE",
"343 595 OFFCURVE",
"343 450 CURVE"
);
}
);
width = 463;
},
{
anchors = (
{
name = bottom;
position = "{247, 0}";
},
{
name = top;
position = "{247, 700}";
}
);
associatedMasterId = "1CDF7AA2-9B9F-46E0-8866-C4919D639C4C";
components = (
{
name = "_part.stem-serifs";
}
);
layerId = "0F3B9658-1A50-43E0-9AFF-A9BA02D041D3";
name = "Jun 11 20, 14:37";
paths = (
{
closed = 1;
nodes = (
"192 313 LINE",
"192 305 LINE",
"251 305 LINE SMOOTH",
"379 305 OFFCURVE",
"468 377 OFFCURVE",
"468 500 CURVE",
"373 500 LINE",
"373 382 OFFCURVE",
"309 313 OFFCURVE",
"214 313 CURVE SMOOTH"
);
},
{
closed = 1;
nodes = (
"301 692 OFFCURVE",
"373 638 OFFCURVE",
"373 500 CURVE",
"468 500 LINE",
"468 630 OFFCURVE",
"379 700 OFFCURVE",
"251 700 CURVE SMOOTH",
"192 700 LINE",
"192 692 LINE",
"214 692 LINE SMOOTH"
);
}
);
width = 493;
},
{
anchors = (
{
name = bottom;
position = "{627, 0}";
},
{
name = top;
position = "{627, 700}";
}
);
associatedMasterId = "1CDF7AA2-9B9F-46E0-8866-C4919D639C4C";
components = (
{
name = _part.longserif;
transform = "{-1, 0, 0, -1, 270, 700}";
},
{
name = "_part.stem-serifs";
transform = "{1, 0, 0, 1, 380, 0}";
}
);
layerId = "28F26A47-AEB6-4151-9A5A-F6B780C62890";
name = "Jul 10 20, 17:30";
paths = (
{
closed = 1;
nodes = (
"164 233 LINE",
"164 225 LINE",
"226 225 LINE SMOOTH",
"354.5 225 OFFCURVE",
"420 319 OFFCURVE",
"420 460 CURVE",
"325 460 LINE",
"325 324 OFFCURVE",
"282.5 233 OFFCURVE",
"189 233 CURVE SMOOTH"
);
},
{
closed = 1;
nodes = (
"282.5 692 OFFCURVE",
"325 599 OFFCURVE",
"325 460 CURVE",
"420 460 LINE",
"420 604 OFFCURVE",
"354.5 700 OFFCURVE",
"226 700 CURVE SMOOTH",
"164 700 LINE",
"164 692 LINE",
"189 692 LINE SMOOTH"
);
},
{
closed = 1;
nodes = (
"175 0 LINE",
"175 700 LINE",
"75 700 LINE",
"75 0 LINE"
);
},
{
closed = 1;
nodes = (
"125 692 LINE",
"125 700 LINE",
"15 700 LINE",
"15 692 LINE"
);
},
{
closed = 1;
nodes = (
"572 183 LINE",
"572 175 LINE",
"631 175 LINE SMOOTH",
"756 175 OFFCURVE",
"845 297 OFFCURVE",
"845 435 CURVE",
"750 435 LINE",
"750 302 OFFCURVE",
"686 183 OFFCURVE",
"594 183 CURVE SMOOTH"
);
},
{
closed = 1;
nodes = (
"678 692 OFFCURVE",
"750 573 OFFCURVE",
"750 435 CURVE",
"845 435 LINE",
"845 565 OFFCURVE",
"756 700 OFFCURVE",
"631 700 CURVE SMOOTH",
"572 700 LINE",
"572 692 LINE",
"594 692 LINE SMOOTH"
);
}
);
width = 860;
},
{
components = (
{
name = "_part.halfstem-left";
transform = "{1, 0, 0, 1, 10, 0}";
},
{
name = _part.longserif;
transform = "{-1, 0, 0, -1, 310, 700}";
}
);
layerId = "1CDF7AA2-9B9F-46E0-8866-C4919D639C4C";
paths = (
{
closed = 1;
nodes = (
"251 155 LINE SMOOTH",
"381 155 OFFCURVE",
"458 273 OFFCURVE",
"458 450 CURVE",
"363 450 LINE",
"363 278 OFFCURVE",
"309.5 183 OFFCURVE",
"214 183 CURVE SMOOTH",
"192 183 LINE",
"192 155 LINE"
);
},
{
closed = 1;
nodes = (
"458 450 LINE",
"458 600 OFFCURVE",
"381 700 OFFCURVE",
"251 700 CURVE SMOOTH",
"192 700 LINE",
"192 672 LINE",
"214 672 LINE SMOOTH",
"309.5 672 OFFCURVE",
"363 595 OFFCURVE",
"363 450 CURVE"
);
}
);
width = 493;
},
{
components = (
{
alignment = -1;
name = "_part.halfstem-left";
transform = "{1, 0, 0, 1, 11, 0}";
},
{
name = _part.longserif;
transform = "{-1, 0, 0, -1, 315, 700}";
}
);
layerId = "BEE1AFF0-4415-4363-825D-BBA98FF62E65";
paths = (
{
closed = 1;
nodes = (
"253 155 LINE SMOOTH",
"383 155 OFFCURVE",
"460 273 OFFCURVE",
"460 450 CURVE",
"365 450 LINE",
"365 278 OFFCURVE",
"311.5 185 OFFCURVE",
"216 185 CURVE SMOOTH",
"194 185 LINE",
"194 155 LINE"
);
},
{
closed = 1;
nodes = (
"460 450 LINE",
"460 600 OFFCURVE",
"383 700 OFFCURVE",
"253 700 CURVE SMOOTH",
"194 700 LINE",
"194 670 LINE",
"216 670 LINE SMOOTH",
"311.5 670 OFFCURVE",
"365 595 OFFCURVE",
"365 450 CURVE"
);
}
);
width = 496;
},
{
components = (
{
alignment = -1;
name = "_part.halfstem-left";
transform = "{1, 0, 0, 1, -2, 0}";
},
{
name = _part.longserif;
transform = "{-1, 0, 0, -1, 270, 700}";
}
);
layerId = "09961995-7511-4D97-AA69-D4CC820B8978";
paths = (
{
closed = 1;
nodes = (
"227 155 LINE SMOOTH",
"357 155 OFFCURVE",
"434 273 OFFCURVE",
"434 450 CURVE",
"339 450 LINE",
"339 278 OFFCURVE",
"285.5 159 OFFCURVE",
"190 159 CURVE SMOOTH",
"168 159 LINE",
"168 155 LINE"
);
},
{
closed = 1;
nodes = (
"434 450 LINE",
"434 600 OFFCURVE",
"357 700 OFFCURVE",
"227 700 CURVE SMOOTH",
"168 700 LINE",
"168 696 LINE",
"190 696 LINE SMOOTH",
"285.5 696 OFFCURVE",
"339 595 OFFCURVE",
"339 450 CURVE"
);
}
);
width = 457;
}
);
leftKerningGroup = H;
leftMetricsKey = H;
rightKerningGroup = P;
unicode = "0050,0070";
},
{
color = 4;
glyphname = Thorn;
lastChange = "2020-10-30 17:53:49 +0000";
layers = (
{
anchors = (
{
name = bottom;
position = "{227, 0}";
},
{
name = top;
position = "{227, 700}";
}
);
components = (
{
name = "_part.stem-serifs";
transform = "{1, 0, 0, 1, -20, 0}";
}
);
layerId = "C46E4D83-CAC2-4426-A09C-7F1020C0FA19";
paths = (
{
closed = 1;
nodes = (
"448 350 LINE",
"448 480 OFFCURVE",
"359 550 OFFCURVE",
"231 550 CURVE SMOOTH",
"172 550 LINE",
"172 542 LINE",
"194 542 LINE SMOOTH",
"281 542 OFFCURVE",
"353 488 OFFCURVE",
"353 350 CURVE"
);
},
{
closed = 1;
nodes = (
"231 155 LINE SMOOTH",
"359 155 OFFCURVE",
"448 227 OFFCURVE",
"448 350 CURVE",
"353 350 LINE",
"353 232 OFFCURVE",
"289 163 OFFCURVE",
"194 163 CURVE SMOOTH",
"172 163 LINE",
"172 155 LINE"
);
}
);
width = 463;
},
{
anchors = (
{
name = bottom;
position = "{237, 0}";
},
{
name = top;
position = "{237, 700}";
}
);
components = (
{
name = "_part.stem-serifs";
transform = "{1, 0, 0, 1, -20, 0}";
}
);
layerId = "1CDF7AA2-9B9F-46E0-8866-C4919D639C4C";
paths = (
{
closed = 1;
nodes = (
"458 350 LINE",
"458 480 OFFCURVE",
"369 550 OFFCURVE",
"241 550 CURVE SMOOTH",
"182 550 LINE",
"182 522 LINE",
"204 522 LINE SMOOTH",
"291 522 OFFCURVE",
"363 488 OFFCURVE",
"363 350 CURVE"
);
},
{
closed = 1;
nodes = (
"241 155 LINE SMOOTH",
"369 155 OFFCURVE",
"458 227 OFFCURVE",
"458 350 CURVE",
"363 350 LINE",
"363 232 OFFCURVE",
"299 183 OFFCURVE",
"204 183 CURVE SMOOTH",
"182 183 LINE",
"182 155 LINE"
);
}
);
width = 483;
},
{
anchors = (
{
name = bottom;
position = "{238, 0}";
},
{
name = top;
position = "{238, 700}";
}
);
components = (
{
alignment = -1;
name = "_part.stem-serifs";
transform = "{1, 0, 0, 1, -20, 0}";
}
);
layerId = "BEE1AFF0-4415-4363-825D-BBA98FF62E65";
paths = (
{
closed = 1;
nodes = (
"459 350 LINE",
"459 480 OFFCURVE",
"370 550 OFFCURVE",
"242 550 CURVE SMOOTH",
"183 550 LINE",
"183 520 LINE",
"205 520 LINE SMOOTH",
"292 520 OFFCURVE",
"364 488 OFFCURVE",
"364 350 CURVE"
);
},
{
closed = 1;
nodes = (
"242 155 LINE SMOOTH",
"370 155 OFFCURVE",
"459 227 OFFCURVE",
"459 350 CURVE",
"364 350 LINE",
"364 232 OFFCURVE",
"300 185 OFFCURVE",
"205 185 CURVE SMOOTH",
"183 185 LINE",
"183 155 LINE"
);
}
);
width = 485;
},
{
anchors = (
{
name = bottom;
position = "{225, 0}";
},
{
name = top;
position = "{225, 700}";
}
);
components = (
{
alignment = -1;
name = "_part.stem-serifs";
transform = "{1, 0, 0, 1, -20, 0}";
}
);
layerId = "09961995-7511-4D97-AA69-D4CC820B8978";
paths = (
{
closed = 1;
nodes = (
"446 350 LINE",
"446 480 OFFCURVE",
"357 550 OFFCURVE",
"229 550 CURVE SMOOTH",
"170 550 LINE",
"170 546 LINE",
"192 546 LINE SMOOTH",
"279 546 OFFCURVE",
"351 488 OFFCURVE",
"351 350 CURVE"
);
},
{
closed = 1;
nodes = (
"229 155 LINE SMOOTH",
"357 155 OFFCURVE",
"446 227 OFFCURVE",
"446 350 CURVE",
"351 350 LINE",
"351 232 OFFCURVE",
"287 159 OFFCURVE",
"192 159 CURVE SMOOTH",
"170 159 LINE",
"170 155 LINE"
);
}
);
width = 459;
}
);
leftKerningGroup = H;
rightKerningGroup = Thorn;
unicode = "00DE,00FE";
},
